<?xml version="1.0" encoding="UTF-8"?>
<svg id="Calque_2" data-name="Calque 2" xmlns="http://www.w3.org/2000/svg" viewBox="0 0 512 341.33">
  <g id="Layer_1" data-name="Layer 1">
    <path d="m490.67,85.33h-23.49C457.26,36.71,414.17,0,362.67,0H106.67C47.85,0,0,47.85,0,106.67v128c0,58.82,47.85,106.67,106.67,106.67h256c51.5,0,94.61-36.71,104.51-85.33h23.49c11.78,0,21.33-9.56,21.33-21.33V106.67c0-11.78-9.56-21.33-21.33-21.33Zm-187.29,127.15l-36.86,74.33c-3.73,7.51-11.29,11.86-19.14,11.86-3.18,0-6.42-.7-9.45-2.22-10.56-5.25-14.87-18.05-9.64-28.59l37.35-75.31.28-.53h-64.9c-13.25,0-25.73-6.14-33.34-16.41-7.47-10.07-9.62-22.87-5.91-35.11.43-1.39.98-2.73,1.69-4.01l44.97-82.67c5.61-10.35,18.58-14.17,28.93-8.53s14.19,18.58,8.53,28.93l-41.45,76.2,64.21-1.07c14.78,0,28.44,8.3,35.58,21.67,7.1,13.25,6.72,28.97-.87,41.47l.02-.02Z"/>
    <path d="m490.67,85.33h-23.49C457.26,36.71,414.17,0,362.67,0H106.67C47.85,0,0,47.85,0,106.67v128c0,58.82,47.85,106.67,106.67,106.67h256c51.5,0,94.61-36.71,104.51-85.33h23.49c11.78,0,21.33-9.56,21.33-21.33V106.67c0-11.78-9.56-21.33-21.33-21.33Zm-187.29,127.15l-36.86,74.33c-3.73,7.51-11.29,11.86-19.14,11.86-3.18,0-6.42-.7-9.45-2.22-10.56-5.25-14.87-18.05-9.64-28.59l37.35-75.31.28-.53h-64.9c-13.25,0-25.73-6.14-33.34-16.41-7.47-10.07-9.62-22.87-5.91-35.11.43-1.39.98-2.73,1.69-4.01l44.97-82.67c5.61-10.35,18.58-14.17,28.93-8.53s14.19,18.58,8.53,28.93l-41.45,76.2,64.21-1.07c14.78,0,28.44,8.3,35.58,21.67,7.1,13.25,6.72,28.97-.87,41.47l.02-.02Z"/>
  </g>
</svg>