<?xml version="1.0" encoding="UTF-8"?>
<svg id="Calque_2" data-name="Calque 2" xmlns="http://www.w3.org/2000/svg" viewBox="0 0 512 512.14">
  <g id="Layer_1" data-name="Layer 1">
    <path d="m346.52,229.77c-49.99-49.99-131.03-50-181.02-.01-49.99,49.99-50,131.03-.01,181.02h0l74.82,73.17c8.73,8.53,22.67,8.53,31.4,0l74.82-73.17c49.98-49.99,49.98-131.03,0-181.01Zm-90.52,132.91c-23.56,0-42.67-19.1-42.67-42.67s19.1-42.67,42.67-42.67,42.67,19.1,42.67,42.67-19.1,42.67-42.67,42.67Z" style="fill: #1d1d1b;"/>
    <path d="m465.07,119.16L315.73,18.38c-36.05-24.5-83.41-24.5-119.47,0L46.93,119.16C17.55,138.99-.04,172.13,0,207.58v197.89c.07,58.88,47.79,106.6,106.67,106.67h101.42l-72.43-70.85c-67.13-66.16-67.92-174.22-1.76-241.35,66.16-67.13,174.22-67.92,241.35-1.76.48.47.96.95,1.43,1.43h0c66.64,66.65,66.64,174.7,0,241.34l-72.79,71.19h101.44c58.88-.07,106.6-47.79,106.67-106.67v-197.89c.02-35.44-17.57-68.58-46.93-88.43Z" style="fill: #1d1d1b; opacity: .5;"/>
  </g>
</svg>