<?xml version="1.0" encoding="utf-8"?>
<!-- Generator: Adobe Illustrator 27.7.0, SVG Export Plug-In . SVG Version: 6.00 Build 0)  -->
<svg version="1.1" id="Layer_1" xmlns="http://www.w3.org/2000/svg" xmlns:xlink="http://www.w3.org/1999/xlink" x="0px" y="0px"
	 viewBox="0 0 512 512" style="enable-background:new 0 0 512 512;" xml:space="preserve">
<style type="text/css">
	.st0{fill:#FFFFFF;}
	.st1{opacity:0.5;fill:#FFFFFF;}
</style>
<path class="st0" d="M346.5,229.6c-50-50-131-50-181,0s-50,131,0,181l0,0l74.8,73.2c8.7,8.5,22.7,8.5,31.4,0l74.8-73.2
	C396.5,360.7,396.5,279.6,346.5,229.6z M256,362.5c-23.6,0-42.7-19.1-42.7-42.7s19.1-42.7,42.7-42.7s42.7,19.1,42.7,42.7
	S279.6,362.5,256,362.5z"/>
<path class="st1" d="M465.1,119L315.7,18.2c-36.1-24.5-83.4-24.5-119.5,0L46.9,119C17.5,138.8,0,172,0,207.4v197.9
	C0.1,464.2,47.8,511.9,106.7,512h101.4l-72.4-70.8c-67.1-66.2-67.9-174.2-1.8-241.4s174.2-67.9,241.4-1.8c0.5,0.5,1,0.9,1.4,1.4l0,0
	c66.6,66.6,66.6,174.7,0,241.3L303.9,512h101.4c58.9-0.1,106.6-47.8,106.7-106.7V207.4C512,172,494.4,138.9,465.1,119z"/>
</svg>
