<?xml version="1.0" encoding="utf-8"?>
<!-- Generator: Adobe Illustrator 27.7.0, SVG Export Plug-In . SVG Version: 6.00 Build 0)  -->
<svg version="1.1" id="Calque_2_00000137104964029821161530000013650327209319708827_"
	 xmlns="http://www.w3.org/2000/svg" xmlns:xlink="http://www.w3.org/1999/xlink" x="0px" y="0px" viewBox="0 0 512 512"
	 style="enable-background:new 0 0 512 512;" xml:space="preserve">
<style type="text/css">
	.st0{opacity:0.5;fill-rule:evenodd;clip-rule:evenodd;enable-background:new    ;}
</style>
<path class="st0" d="M302,4.1C292.8,0,280.5,0,256.5,0S220.7,0,211,4.1c-12.8,5.1-22.5,15.3-28.1,27.6c-2.6,5.6-3.6,12.3-3.6,22
	c0,14.3-8.2,27.1-20.5,34.8c-12.8,7.2-27.6,7.2-40.4,0c-8.7-4.6-14.8-7.2-21-7.7c-13.3-1.5-27.1,2-38.4,10.2
	c-8.2,6.1-14.3,16.4-26.1,37.3c-11.8,19.9-17.4,30.7-19.4,40.4c-1.5,13.3,2,27.1,10.2,37.9c3.6,5.1,9.2,9.2,17.4,14.3
	c12.3,7.7,19.9,20.5,19.9,34.8s-7.7,27.1-19.9,34.8c-8.2,5.1-13.8,9.2-17.4,14.3c-8.2,10.7-11.8,24.6-10.2,37.9
	c1.5,10.2,7.2,20.5,19.4,40.9c11.8,20.5,17.9,30.7,26.1,37.3c10.7,8.2,24.6,11.8,37.9,10.2c6.1-1,12.3-3.1,21-7.7
	c12.8-6.6,27.6-6.6,40.4,0c12.3,7.2,19.9,20.5,20.5,34.8c0,9.7,1.5,16.4,3.6,22c5.1,12.3,15.3,22.5,28.1,27.6
	c9.2,4.1,21.5,4.1,45.5,4.1s35.8,0,45.5-4.1c12.8-5.1,22.5-15.3,28.1-27.6c2.6-5.6,3.6-12.3,3.6-22c0.5-14.3,7.7-27.6,20.5-34.8
	s27.6-7.2,40.4,0c8.7,4.6,14.8,7.2,21,7.7c13.8,1.5,27.1-2,37.9-10.2c8.2-6.1,14.3-16.4,26.1-37.3c11.8-20.5,17.9-31.2,19.4-40.9
	c1.5-13.3-2-27.1-10.2-37.9c-3.6-5.1-9.2-9.2-17.4-14.3c-12.3-7.7-19.9-20.5-19.9-34.8c0-14.3,7.7-27.1,19.9-34.8
	c8.2-5.1,13.8-9.2,17.4-14.3c8.2-10.7,11.8-24.6,10.2-37.9c-1.5-10.2-7.2-20.5-19.4-40.9c-12.3-20.5-17.9-31.2-26.1-37.3
	c-10.7-8.2-24.6-11.8-37.9-10.2c-6.1,1-12.3,3.6-21,7.7c-12.8,6.6-27.6,6.6-40.4,0c-12.3-7.2-19.9-20.5-20.5-34.8
	c0-9.7-1.5-16.4-3.6-22c-5.1-12.8-15.3-22.5-28.1-27.6"/>
<path d="M333.7,255.7c0,42.5-34.8,76.7-77.2,76.7s-77.2-34.3-77.2-76.7S214,179,256.5,179S333.7,213.3,333.7,255.7"/>
</svg>
