<?xml version="1.0" encoding="UTF-8"?>
<svg id="Calque_2" data-name="Calque 2" xmlns="http://www.w3.org/2000/svg" viewBox="0 0 596.95 512">
  <g id="Calque_1-2" data-name="Calque 1">
    <g>
      <path d="m511.68,254.92c0-70.48.11-140.96-.06-211.44-.05-22.22,15.69-38.17,32.23-42.22,23.99-5.87,48.22,9.41,52.49,34.36.47,2.74.59,5.57.59,8.36.03,141.28.03,282.57.02,423.85,0,19.48-11.43,35.75-28.81,41.68-28.39,9.68-56.6-11.97-56.5-40.72.17-49.78.05-99.56.05-149.34,0-21.51,0-43.01,0-64.52Z"/>
      <path d="m383.77,298.69c0-56.38.22-112.76-.11-169.14-.12-21.33,13.91-38.98,33.78-43.36,6.47-1.43,13.13-1.15,19.67.63,15.89,4.33,25.9,14.58,30.38,30.23,1.05,3.68,1.42,7.68,1.43,11.53.07,113.33.04,226.65.08,339.98,0,22.08-15.35,39.15-35.51,42.68-21.11,3.7-42.15-9.34-48.25-30.67-1.2-4.21-1.46-8.43-1.46-12.73,0-56.38,0-112.76,0-169.14Z"/>
      <path d="m255.84,340.26c0-42.93-.29-85.87.13-128.8.2-20.24,15.34-36.19,33.69-39.92,23.63-4.8,45.38,10.06,50.32,32.23.74,3.33,1.11,6.82,1.11,10.23.06,84.82.06,169.64.04,254.45,0,20.34-13.08,37.2-32.43,42.08-23.65,5.97-46.51-9.3-51.56-31.32-.85-3.7-1.28-7.58-1.29-11.37-.09-42.53-.06-85.06-.06-127.59h.05Z"/>
      <path d="m213.2,384.13c0,28.19.17,56.38-.07,84.56-.14,16.32-7.25,29.04-21.45,37.47-7.84,4.66-16.52,6.61-25.44,5.56-16.11-1.91-30.84-12.1-36.62-30.48-1.26-4.01-1.64-8.08-1.64-12.22,0-56.78-.03-113.56.01-170.34.02-20.31,13.37-37.34,33.18-41.64,21.78-4.73,42.32,6.71,49.47,27.37,1.68,4.85,2.4,10.24,2.44,15.4.23,28.11.11,56.22.11,84.32Z"/>
      <path d="m85.26,426.38c0,14.09.03,28.19,0,42.28-.06,20.1-12.41,35.48-29.45,41.06-23.85,7.8-48.31-6.54-54.28-29.67-.98-3.8-1.42-7.84-1.43-11.76-.1-29.47-.16-58.95.07-88.42.04-5.76,2.19-11.25,5.03-16.33,6.73-12.03,16.89-19.56,30.46-21.72,22.29-3.54,43.75,10.04,48.74,33.48.68,3.18.81,6.51.83,9.78.09,13.77.04,27.54.04,41.31Z"/>
    </g>
  </g>
</svg>