<svg xmlns="http://www.w3.org/2000/svg" id="Calque_2" data-name="Calque 2" viewBox="0 0 24 800"><g id="Objects"><g><rect width="24" height="61.88" x="0" y="0" rx="11.45" ry="11.45"/><rect width="24" height="61.88" x="0" y="82.38" rx="11.45" ry="11.45"/><rect width="24" height="61.88" x="0" y="164.27" rx="11.45" ry="11.45"/><rect width="24" height="61.88" x="0" y="246.65" rx="11.45" ry="11.45"/><rect width="24" height="61.88" x="0" y="328.1" rx="11.45" ry="11.45"/><rect width="24" height="61.88" x="0" y="410.49" rx="11.45" ry="11.45"/><rect width="24" height="61.88" x="0" y="491.91" rx="11.45" ry="11.45"/><rect width="24" height="61.88" x="0" y="574.29" rx="11.45" ry="11.45"/><rect width="24" height="61.88" x="0" y="655.74" rx="11.45" ry="11.45"/><rect width="24" height="61.88" x="0" y="738.12" rx="11.45" ry="11.45"/></g></g></svg>