<?xml version="1.0" encoding="UTF-8"?>
<svg id="Calque_2" data-name="Calque 2" xmlns="http://www.w3.org/2000/svg" viewBox="0 0 24 800">
  <g id="Objects">
    <g>
      <rect x="0" y="0" width="24" height="61.88" rx="11.45" ry="11.45"/>
      <rect x="0" y="82.38" width="24" height="61.88" rx="11.45" ry="11.45"/>
      <rect x="0" y="164.27" width="24" height="61.88" rx="11.45" ry="11.45"/>
      <rect x="0" y="246.65" width="24" height="61.88" rx="11.45" ry="11.45"/>
      <rect x="0" y="328.1" width="24" height="61.88" rx="11.45" ry="11.45"/>
      <rect x="0" y="410.49" width="24" height="61.88" rx="11.45" ry="11.45"/>
      <rect x="0" y="491.91" width="24" height="61.88" rx="11.45" ry="11.45"/>
      <rect x="0" y="574.29" width="24" height="61.88" rx="11.45" ry="11.45"/>
      <rect x="0" y="655.74" width="24" height="61.88" rx="11.45" ry="11.45"/>
      <rect x="0" y="738.12" width="24" height="61.88" rx="11.45" ry="11.45"/>
    </g>
  </g>
</svg>