<?xml version="1.0" encoding="UTF-8"?>
<svg id="Calque_2" data-name="Calque 2" xmlns="http://www.w3.org/2000/svg" viewBox="0 0 1341.33 1004.84">
  <g id="Layer_1" data-name="Layer 1">
    <path d="m1317.57,347.33c-26.88,24.86-68.4,25.15-95.4.42-143.45-131.44-330.83-203.81-534.4-205.13-206.38-1.32-407.07,70.34-571.81,203.02-28.96,23.32-70.99,20.37-96.24-6.93l-.97-1.05c-27.78-30.04-24.26-77.29,7.59-102.96,86.5-69.71,182.01-125,284.79-164.79C433.09,22.71,560.12-.84,688.7.02c129.03.84,253.2,26.14,369.05,75.22,96.75,40.98,184.21,97.15,260.84,167.42,30.35,27.83,30.27,75.74.04,103.69l-1.05.98Z"/>
    <path d="m194.1,523.17l-.96-1.04c-27.93-30.2-24.13-78,8.48-103.06,60.95-46.84,127.54-84.47,198.75-112.24,91-35.48,185.73-53.47,281.58-53.47.74,0,1.48,0,2.22,0,97.11.28,190.54,19,277.68,55.64,66.38,27.91,126.91,65.34,180.73,111.67,31.72,27.31,32.5,76.2,1.77,104.62l-1.05.97c-26.22,24.25-66.41,24.85-93.5,1.57-99.65-85.62-227.44-132.35-366.03-132.75-.59,0-1.21,0-1.81,0-141.24,0-278.9,47.97-393.86,136.28-28.67,22.02-69.46,18.35-94-8.19Z"/>
    <path d="m373.47,712.6l-.97-1.05c-29.36-31.74-23.58-82.05,12.05-106.54,87.96-60.45,190.27-93.48,294.98-94.26,64.59-.47,126.74,11.36,184.64,35.17,33.89,13.94,65.45,31.64,94.43,52.91,35.94,26.38,39.07,78.91,6.34,109.18l-1.06.98c-24.77,22.91-62.39,25.33-89.59,5.36-113.94-83.64-278.91-80.33-408.7,8.49-29.04,19.87-68.21,15.58-92.1-10.25Z"/>
    <circle cx="670.66" cy="882.96" r="121.88" transform="translate(-427.92 732.84) rotate(-45)"/>
  </g>
</svg>