<?xml version="1.0" encoding="UTF-8"?>
<svg id="Calque_2" data-name="Calque 2" xmlns="http://www.w3.org/2000/svg" viewBox="0 0 469.35 512">
  <g id="Layer_1" data-name="Layer 1">
    <path d="m400.6,68.74C356.27,24.43,297.34,0,234.67,0S113.05,24.43,68.74,68.74C24.41,113.05,0,171.97,0,234.67s24.41,121.6,69.33,166.51l84.12,77.72c21.82,21.35,50.67,33.11,81.22,33.11s59.39-11.75,80.79-32.7l85.16-78.7c44.33-44.33,68.74-103.25,68.74-165.93s-24.43-121.62-68.74-165.93h-.02Zm-112.6,80.6c17.66,0,32,14.34,32,32s-14.34,32-32,32-32-14.34-32-32,14.34-32,32-32Zm-106.67,0c17.66,0,32,14.34,32,32s-14.34,32-32,32-32-14.34-32-32,14.34-32,32-32Zm153.75,129.07c-26.82,26.82-62.49,41.6-100.42,41.6s-73.6-14.76-100.42-41.6c-8.34-8.34-8.34-21.82,0-30.17s21.82-8.34,30.17,0c18.75,18.75,43.71,29.1,70.25,29.1s51.5-10.33,70.25-29.1c8.34-8.34,21.82-8.34,30.17,0s8.34,21.82,0,30.17h0Z" style="fill: #5587ff;"/>
  </g>
</svg>