<?xml version="1.0" encoding="UTF-8"?>
<svg id="Calque_2" data-name="Calque 2" xmlns="http://www.w3.org/2000/svg" viewBox="0 0 1466.52 1180.48">
  <g id="Layer_1" data-name="Layer 1">
    <circle cx="803.51" cy="575.54" r="455.03" style="fill: #ffc500;"/>
    <path d="m901.74,1034.26c-112.53,0-220.99-41.02-305.42-115.5l4.87-5.52c83.08,73.29,189.82,113.66,300.55,113.66,250.68,0,454.63-203.95,454.63-454.63s-203.95-454.62-454.63-454.62c-110.73,0-217.46,40.37-300.55,113.66l-4.87-5.52c84.43-74.48,192.89-115.5,305.42-115.5,254.74,0,461.99,207.25,461.99,461.99,0,254.74-207.25,462-461.99,462Z" style="fill: #002e46;"/>
    <g>
      <g>
        <path d="m9.7,567.86c-9.72-15.7-12.13-38.34-7.23-67.93l16.26-98.26c5.01-30.26,14.89-53.14,29.66-68.61,14.76-15.47,36.98-23.21,66.64-23.21s47.18,6.84,56.67,20.5c9.48,13.67,12.12,33.26,7.9,58.79l-3.82,23.04h-54.75l4.2-25.41c1.35-8.13,2.03-14.68,2.05-19.66.02-4.96-1.35-9.09-4.11-12.36-2.77-3.27-7.57-4.91-14.42-4.91-10.27,0-17.42,3.28-21.47,9.82-4.05,6.56-7.12,16.16-9.22,28.8l-20.64,124.69c-2.13,12.88-2.01,22.48.37,28.8,2.37,6.33,8.24,9.49,17.59,9.49s16.27-3.22,20.08-9.66c3.8-6.43,6.75-15.97,8.85-28.63l4.43-26.77h54.76l-3.76,22.7c-4.34,26.21-13.51,46.48-27.52,60.82-14.01,14.35-35.27,21.51-63.79,21.51-29.43,0-49.01-7.85-58.73-23.55Z" style="fill: #ffc500;"/>
        <path d="m199.17,568.54c-10.02-15.25-12.58-37.66-7.69-67.26l16.93-102.33c4.9-29.59,14.85-51.84,29.87-66.75,15.02-14.91,37.24-22.36,66.67-22.36s48.9,7.51,59.07,22.53c10.17,15.03,12.83,37.22,7.97,66.58l-16.99,102.66c-4.86,29.37-14.88,51.67-30.07,66.92-15.18,15.25-37.38,22.87-66.58,22.87-29.43,0-49.16-7.62-59.19-22.87Zm86.74-26.77c4.37-6.43,7.49-15.3,9.36-26.6l21.48-129.77c1.87-11.29,1.66-20.04-.61-26.26-2.28-6.21-8.21-9.32-17.8-9.32s-16.54,3.11-20.87,9.32c-4.34,6.22-7.44,14.97-9.31,26.26l-21.48,129.77c-1.91,11.52-1.79,20.45.36,26.77,2.14,6.33,8.12,9.49,17.94,9.49,9.58,0,16.56-3.22,20.94-9.66Z" style="fill: #ffc500;"/>
        <path d="m427.6,313.24h59.89l5.56,173.14,64.94-173.14h57.84l-40.29,274.45h-41.07l26.4-186.35-66.43,186.35h-34.91l-5.61-187.37-35.12,187.37h-41.41l50.22-274.45Z" style="fill: #ffc500;"/>
        <path d="m662.36,313.24h56.12l-45.43,274.45h-56.12l45.43-274.45Z" style="fill: #ffc500;"/>
        <path d="m760.57,313.24h39.36l37.99,142.64,23.61-142.64h46.88l-45.43,274.45h-37.99l-36.48-151.79-25.13,151.79h-48.25l45.43-274.45Z" style="fill: #ffc500;"/>
        <path d="m921.3,567.18c-8.81-16.38-10.69-39.81-5.64-70.3l15.2-91.82c5.16-31.17,15.17-54.83,30.06-70.98,14.88-16.15,37.15-24.23,66.81-24.23s47.68,6.9,57.49,20.67c9.81,13.78,12.57,33.66,8.27,59.63l-2.64,15.93h-54.76l3.2-19.31c2.09-12.65,2.21-21.97.35-27.95-1.87-5.98-7.82-8.98-17.85-8.98s-17.45,3.39-21.53,10.16c-4.09,6.78-7.2,16.6-9.33,29.48l-20.19,121.97c-2.13,12.88-1.94,22.76.57,29.65,2.51,6.9,8.78,10.34,18.82,10.34s17.31-3.67,22.53-11.01c5.2-7.34,8.89-17.56,11.06-30.66l4.82-29.14h-27.04l5.61-33.88h78.03l-23.33,140.95h-36.96l.28-24.4c-11.58,18.97-28.33,28.46-50.23,28.46-26.93,0-44.79-8.19-53.6-24.57Z" style="fill: #ffc500;"/>
      </g>
      <g>
        <path d="m451.43,895.63c-10.48-13.89-13.88-35.41-10.2-64.55l49.95-8.13c-2.42,17.4-2.09,30.21.99,38.45,3.08,8.25,9.07,12.37,17.97,12.37,6.62,0,11.75-2.09,15.41-6.27,3.65-4.18,6.03-9.54,7.11-16.09,1.79-10.84.86-20.04-2.79-27.61-3.66-7.57-9.98-15.87-18.98-24.91l-24.65-24.73c-9.84-9.49-16.88-19.65-21.13-30.49-4.26-10.84-5.12-23.83-2.62-38.97,3.7-22.36,13.22-39.58,28.57-51.67,15.35-12.08,34.77-18.13,58.27-18.13,25.1,0,41.36,7.18,48.8,21.52,7.44,14.35,10.01,32.58,7.71,54.72l-50.11,7.11c1.93-14.45,2.05-25.12.34-32.02-1.71-6.89-6.79-10.33-15.23-10.33-6.16,0-11.34,2.32-15.53,6.94-4.19,4.63-6.8,10.11-7.85,16.43-1.5,9.04-.77,16.66,2.2,22.87,2.96,6.22,8.16,13.05,15.6,20.5l24.03,24.39c11.32,11.52,19.69,23.67,25.11,36.43,5.42,12.76,6.7,27.73,3.86,44.89-2.17,13.1-7.07,24.79-14.7,35.07-7.64,10.28-17.36,18.36-29.16,24.23-11.81,5.87-24.79,8.81-38.93,8.81-25.56,0-43.57-6.94-54.05-20.83Z" style="fill: #ffc500;"/>
        <path d="m625.26,893.6c-10.02-15.25-12.58-37.66-7.68-67.26l16.94-102.32c4.9-29.59,14.85-51.84,29.87-66.74,15.01-14.91,37.24-22.37,66.67-22.37s48.89,7.52,59.07,22.53c10.17,15.03,12.83,37.22,7.97,66.58l-16.99,102.67c-4.86,29.36-14.88,51.67-30.07,66.92-15.19,15.24-37.38,22.87-66.59,22.87-29.43,0-49.16-7.62-59.19-22.87Zm86.74-26.77c4.37-6.44,7.49-15.3,9.36-26.6l21.48-129.77c1.87-11.29,1.66-20.04-.61-26.26-2.28-6.21-8.21-9.32-17.8-9.32s-16.54,3.11-20.88,9.32c-4.34,6.21-7.44,14.97-9.31,26.26l-21.48,129.77c-1.91,11.52-1.79,20.45.37,26.77,2.14,6.33,8.12,9.49,17.93,9.49s16.56-3.22,20.93-9.66Z" style="fill: #ffc500;"/>
        <path d="m822.38,893.6c-10.03-15.25-12.59-37.66-7.69-67.26l16.94-102.32c4.9-29.59,14.85-51.84,29.87-66.74,15.01-14.91,37.24-22.37,66.67-22.37s48.89,7.52,59.07,22.53c10.17,15.03,12.83,37.22,7.97,66.58l-16.99,102.67c-4.86,29.36-14.88,51.67-30.07,66.92-15.19,15.24-37.38,22.87-66.58,22.87-29.43,0-49.16-7.62-59.18-22.87Zm86.73-26.77c4.37-6.44,7.49-15.3,9.36-26.6l21.48-129.77c1.87-11.29,1.66-20.04-.61-26.26-2.28-6.21-8.21-9.32-17.8-9.32s-16.54,3.11-20.88,9.32c-4.34,6.21-7.44,14.97-9.31,26.26l-21.48,129.77c-1.91,11.52-1.79,20.45.36,26.77,2.14,6.33,8.12,9.49,17.94,9.49s16.56-3.22,20.93-9.66Z" style="fill: #ffc500;"/>
        <path d="m1047.04,638.29h39.36l37.99,142.65,23.61-142.65h46.88l-45.42,274.45h-37.99l-36.48-151.79-25.12,151.79h-48.26l45.43-274.45Z" style="fill: #ffc500;"/>
      </g>
    </g>
    <g>
      <g>
        <path d="m44.06,533.5c-9.72-15.7-12.13-38.34-7.23-67.93l16.26-98.26c5.01-30.27,14.89-53.14,29.66-68.61,14.76-15.47,36.98-23.21,66.64-23.21s47.17,6.84,56.67,20.5c9.48,13.67,12.12,33.26,7.9,58.79l-3.82,23.04h-54.75l4.2-25.41c1.35-8.13,2.03-14.68,2.05-19.66.02-4.96-1.35-9.09-4.11-12.36-2.77-3.27-7.57-4.91-14.42-4.91-10.26,0-17.42,3.28-21.47,9.82-4.05,6.56-7.12,16.16-9.22,28.8l-20.64,124.69c-2.13,12.88-2.01,22.48.37,28.8,2.37,6.33,8.24,9.49,17.59,9.49s16.27-3.22,20.08-9.66c3.8-6.43,6.75-15.97,8.85-28.63l4.43-26.77h54.76l-3.76,22.7c-4.34,26.21-13.51,46.48-27.52,60.82-14.01,14.35-35.27,21.52-63.79,21.52s-49.01-7.85-58.73-23.55Z" style="fill: #002e46;"/>
        <path d="m233.54,534.18c-10.02-15.25-12.58-37.66-7.69-67.26l16.93-102.33c4.9-29.59,14.85-51.84,29.87-66.75,15.02-14.91,37.24-22.36,66.67-22.36s48.9,7.51,59.07,22.53c10.17,15.03,12.83,37.22,7.97,66.58l-16.99,102.66c-4.86,29.37-14.88,51.67-30.07,66.92-15.18,15.25-37.38,22.87-66.58,22.87-29.43,0-49.16-7.62-59.19-22.87Zm86.74-26.77c4.37-6.43,7.49-15.3,9.36-26.6l21.48-129.77c1.87-11.29,1.66-20.04-.61-26.26-2.28-6.21-8.21-9.32-17.8-9.32s-16.54,3.11-20.87,9.32c-4.34,6.22-7.44,14.97-9.31,26.26l-21.48,129.77c-1.91,11.52-1.79,20.45.36,26.77,2.14,6.33,8.12,9.49,17.94,9.49s16.56-3.22,20.93-9.66Z" style="fill: #002e46;"/>
        <path d="m461.96,278.87h59.89l5.56,173.14,64.94-173.14h57.84l-40.3,274.45h-41.06l26.4-186.35-66.43,186.35h-34.91l-5.61-187.37-35.12,187.37h-41.41l50.22-274.45Z" style="fill: #002e46;"/>
        <path d="m696.73,278.87h56.12l-45.43,274.45h-56.12l45.43-274.45Z" style="fill: #002e46;"/>
        <path d="m794.94,278.87h39.36l37.99,142.64,23.61-142.64h46.88l-45.43,274.45h-37.99l-36.48-151.79-25.12,151.79h-48.26l45.43-274.45Z" style="fill: #002e46;"/>
        <path d="m955.67,532.82c-8.81-16.38-10.69-39.81-5.64-70.3l15.2-91.82c5.16-31.17,15.17-54.83,30.06-70.98,14.88-16.15,37.15-24.23,66.81-24.23s47.68,6.89,57.49,20.67c9.81,13.78,12.57,33.66,8.27,59.63l-2.64,15.93h-54.76l3.2-19.31c2.09-12.65,2.21-21.97.35-27.95-1.87-5.98-7.82-8.98-17.85-8.98s-17.45,3.39-21.53,10.16c-4.09,6.78-7.2,16.6-9.33,29.48l-20.19,121.97c-2.13,12.88-1.95,22.76.57,29.65,2.51,6.9,8.78,10.34,18.82,10.34s17.31-3.67,22.53-11.01c5.2-7.34,8.89-17.56,11.06-30.66l4.82-29.14h-27.04l5.61-33.88h78.03l-23.33,140.95h-36.96l.28-24.4c-11.58,18.97-28.33,28.46-50.23,28.46-26.93,0-44.79-8.18-53.6-24.56Z" style="fill: #002e46;"/>
      </g>
      <g>
        <path d="m485.79,861.27c-10.48-13.89-13.88-35.41-10.2-64.55l49.95-8.13c-2.42,17.4-2.09,30.21.99,38.45,3.08,8.25,9.07,12.37,17.97,12.37,6.62,0,11.75-2.09,15.41-6.27,3.65-4.18,6.03-9.54,7.11-16.09,1.79-10.84.86-20.04-2.79-27.61-3.66-7.57-9.98-15.87-18.98-24.91l-24.65-24.73c-9.84-9.49-16.88-19.65-21.13-30.49-4.26-10.84-5.12-23.83-2.62-38.97,3.7-22.36,13.22-39.58,28.57-51.67,15.35-12.08,34.77-18.13,58.27-18.13,25.1,0,41.36,7.18,48.8,21.52,7.44,14.35,10.01,32.58,7.71,54.72l-50.11,7.11c1.93-14.45,2.05-25.13.34-32.02-1.71-6.89-6.79-10.33-15.23-10.33-6.16,0-11.34,2.32-15.53,6.94-4.19,4.63-6.8,10.11-7.85,16.43-1.5,9.04-.77,16.66,2.2,22.87,2.96,6.22,8.16,13.05,15.6,20.5l24.03,24.39c11.32,11.52,19.69,23.67,25.11,36.43,5.42,12.76,6.7,27.73,3.86,44.89-2.17,13.1-7.07,24.79-14.7,35.07-7.64,10.28-17.36,18.36-29.16,24.23-11.81,5.87-24.79,8.81-38.93,8.81-25.56,0-43.57-6.94-54.05-20.83Z" style="fill: #002e46;"/>
        <path d="m659.63,859.23c-10.02-15.25-12.58-37.66-7.68-67.26l16.94-102.32c4.9-29.59,14.85-51.84,29.87-66.74,15.02-14.91,37.24-22.37,66.67-22.37s48.89,7.52,59.07,22.53c10.17,15.03,12.83,37.22,7.97,66.58l-16.99,102.67c-4.86,29.37-14.88,51.67-30.07,66.92-15.19,15.25-37.38,22.87-66.59,22.87-29.43,0-49.16-7.62-59.18-22.87Zm86.74-26.77c4.37-6.44,7.49-15.3,9.36-26.6l21.48-129.77c1.87-11.29,1.66-20.04-.61-26.26-2.28-6.21-8.21-9.32-17.8-9.32s-16.54,3.11-20.88,9.32c-4.34,6.21-7.44,14.97-9.31,26.26l-21.48,129.77c-1.91,11.52-1.79,20.45.37,26.77,2.14,6.33,8.12,9.49,17.93,9.49,9.58,0,16.56-3.22,20.94-9.66Z" style="fill: #002e46;"/>
        <path d="m856.75,859.23c-10.03-15.25-12.59-37.66-7.69-67.26l16.94-102.32c4.9-29.59,14.85-51.84,29.87-66.74,15.01-14.91,37.24-22.37,66.67-22.37s48.89,7.52,59.07,22.53c10.18,15.03,12.83,37.22,7.97,66.58l-16.99,102.67c-4.86,29.37-14.88,51.67-30.07,66.92-15.18,15.25-37.38,22.87-66.58,22.87-29.43,0-49.16-7.62-59.18-22.87Zm86.73-26.77c4.37-6.44,7.49-15.3,9.36-26.6l21.48-129.77c1.87-11.29,1.66-20.04-.61-26.26-2.28-6.21-8.21-9.32-17.8-9.32s-16.54,3.11-20.88,9.32c-4.34,6.21-7.44,14.97-9.31,26.26l-21.48,129.77c-1.91,11.52-1.79,20.45.36,26.77,2.14,6.33,8.12,9.49,17.94,9.49,9.58,0,16.56-3.22,20.93-9.66Z" style="fill: #002e46;"/>
        <path d="m1081.4,603.93h39.36l37.99,142.65,23.61-142.65h46.88l-45.42,274.45h-37.99l-36.48-151.79-25.12,151.79h-48.26l45.43-274.45Z" style="fill: #002e46;"/>
      </g>
    </g>
    <rect x="1129.48" y="57.85" width="166.68" height="7.37" transform="translate(311.66 875.55) rotate(-45)" style="fill: #002e46;"/>
    <rect x="454.18" y="1055.96" width="88.38" height="7.36" transform="translate(-603.31 662.76) rotate(-45)" style="fill: #002e46;"/>
    <rect x="630.83" y="61.11" width="135.94" height="7.36" transform="translate(158.86 513.11) rotate(-45)" style="fill: #002e46;"/>
    <rect x="1268.69" y="459.33" width="228.73" height="7.36" transform="translate(77.68 1113.58) rotate(-45)" style="fill: #002e46;"/>
    <g>
      <path d="m98.65,231.91c-2.92-3.87-3.86-9.85-2.84-17.97l13.91-2.27c-.67,4.85-.58,8.42.28,10.72.86,2.29,2.52,3.44,5,3.44,1.84,0,3.28-.58,4.29-1.74,1.02-1.16,1.68-2.66,1.98-4.49.5-3.01.24-5.58-.78-7.69-1.02-2.11-2.78-4.42-5.29-6.93l-6.87-6.88c-2.74-2.65-4.7-5.48-5.88-8.49-1.18-3.02-1.43-6.64-.73-10.85,1.03-6.23,3.68-11.02,7.96-14.39,4.28-3.37,9.68-5.05,16.23-5.05,6.99,0,11.52,2,13.59,5.99,2.07,3.99,2.79,9.07,2.15,15.24l-13.95,1.97c.54-4.01.57-6.99.09-8.91-.48-1.92-1.89-2.88-4.24-2.88-1.72,0-3.16.65-4.32,1.93-1.17,1.29-1.89,2.82-2.18,4.58-.42,2.52-.22,4.65.61,6.37.82,1.73,2.27,3.63,4.34,5.71l6.69,6.79c3.15,3.21,5.49,6.59,6.99,10.14,1.51,3.55,1.87,7.72,1.08,12.5-.61,3.65-1.97,6.91-4.1,9.77-2.12,2.86-4.83,5.11-8.12,6.75-3.29,1.64-6.9,2.46-10.84,2.46-7.12,0-12.13-1.94-15.05-5.81Z" style="fill: #002e46;"/>
      <path d="m160.07,171.76h-11.91l1.91-11.52h39.46l-1.9,11.52h-11.72l-10.75,64.92h-15.82l10.74-64.92Z" style="fill: #002e46;"/>
      <path d="m204.87,160.25h17.44l2.22,76.43h-14.49l-.08-16.8h-12.2l-5.73,16.8h-14.78l27.61-76.43Zm5.16,50.01l.42-30.77-9.66,30.77h9.24Z" style="fill: #002e46;"/>
      <path d="m244.02,206.39l-7.42-46.14h14.78l3.84,26.9,12.07-26.9h14.39l-22.5,46.14-5.01,30.29h-15.16l5.01-30.29Z" style="fill: #002e46;"/>
      <path d="m317.52,171.76h-11.91l1.91-11.52h39.46l-1.9,11.52h-11.72l-10.75,64.92h-15.82l10.74-64.92Z" style="fill: #002e46;"/>
      <path d="m349.87,234.84c-2.92-1.92-4.75-4.7-5.48-8.35-.73-3.65-.63-8.3.31-13.97l8.65-52.27h15.44l-9.01,54.45c-.6,3.65-.63,6.52-.09,8.59.55,2.07,2.22,3.11,5.01,3.11s4.81-1.04,6.04-3.11c1.24-2.07,2.15-4.93,2.76-8.59l9.01-54.45h15.54l-8.65,52.27c-.93,5.67-2.37,10.32-4.31,13.97-1.94,3.65-4.7,6.43-8.29,8.35-3.59,1.92-8.25,2.88-13.97,2.88-5.72,0-10.04-.96-12.96-2.88Z" style="fill: #002e46;"/>
      <path d="m409.01,160.25h10.96l10.58,39.73,6.58-39.73h13.05l-12.65,76.43h-10.58l-10.16-42.27-6.99,42.27h-13.44l12.65-76.43Z" style="fill: #002e46;"/>
      <path d="m461.81,160.25h33.65l-1.78,10.75h-18.02l-3.36,20.29h13.91l-1.79,10.85h-13.91l-3.97,23.97h18.21l-1.75,10.57h-33.84l12.65-76.43Z" style="fill: #002e46;"/>
      <path d="m503.65,160.25h18.87c6.48,0,11.41.84,14.79,2.5,3.38,1.67,5.56,4.24,6.54,7.7.99,3.46,1,8.06.05,13.78l-4.61,27.84c-.97,5.85-2.51,10.55-4.62,14.1-2.11,3.55-5.12,6.2-9.03,7.93-3.91,1.73-9.04,2.6-15.39,2.6h-19.25l12.65-76.43Zm8.21,65.58c2.73,0,4.82-.42,6.27-1.27,1.44-.85,2.47-2.09,3.09-3.73.62-1.63,1.19-3.99,1.7-7.08l5.23-31.61c.48-2.89.63-5.08.47-6.55-.17-1.48-.83-2.58-1.99-3.3-1.15-.73-3.09-1.09-5.82-1.09h-3.34l-9.05,54.64h3.43Z" style="fill: #002e46;"/>
      <path d="m546.51,223.19h13.72l-2.23,13.49h-13.72l2.23-13.49Zm10.58-62.75h14.39l-14.66,57.47h-5.05l5.32-57.47Z" style="fill: #002e46;"/>
    </g>
    <g>
      <path d="m378.6,748.26c5.12-66.92.52-125.21-10.49-154.25-105.08,64.68-218.68,92.73-243.8,98.4l-7.36,96.24c14.33,4.58,58.6,19.61,112.02,45.39l-.41,5.33c-.62,8.14-7.73,14.56-15.84,14.32l-109.31-3.31c-8.11-.24-14.2-7.07-13.58-15.21l4.21-55.05,7.98.24,6.18-80.76-49.03-1.48c-2.77-.08-5.21,3.02-7.28,7.99l-15.75-.48c-10.36-.31-15.29,64.05-4.92,64.33l15.75.48c1.29,5.1,3.24,8.34,6.02,8.43l24.68.75-4.21,55.05c-1.32,17.2,11.55,31.61,28.69,32.13l109.31,3.31c16.48.5,30.95-12.04,33.21-28.29,32.17,16.25,66.74,36.18,99.67,59.91,15.51-28.07,29.11-86.1,34.26-153.48Z" style="fill: #002e46;"/>
      <path d="m396.16,575.69c-4.88-.15-9.82,3.3-14.64,9.76,13.93,24.46,20.32,88.53,14.6,163.35-5.74,75.06-21.98,138.59-39.64,161.93.18.14.38.29.57.43,3.73,6.29,7.99,9.82,12.68,9.96,22.59.68,46.84-76.1,54.13-171.47,7.3-95.38-5.12-173.27-27.71-173.95Z" style="fill: #002e46;"/>
    </g>
    <path d="m424.88,115.46c-18.88,0-34.24-15.36-34.24-34.23s15.36-34.24,34.24-34.24,34.23,15.36,34.23,34.24-15.36,34.23-34.23,34.23Zm0-61.1c-14.82,0-26.87,12.05-26.87,26.87s12.06,26.87,26.87,26.87,26.87-12.05,26.87-26.87-12.05-26.87-26.87-26.87Z" style="fill: #002e46;"/>
    <path d="m739.14,1180.48c-21.29,0-38.6-17.31-38.6-38.6s17.32-38.6,38.6-38.6,38.6,17.32,38.6,38.6-17.32,38.6-38.6,38.6Zm0-69.84c-17.22,0-31.24,14.01-31.24,31.24s14.01,31.23,31.24,31.23,31.24-14.01,31.24-31.23c0-17.23-14.01-31.24-31.24-31.24Z" style="fill: #002e46;"/>
  </g>
</svg>