<?xml version="1.0" encoding="UTF-8" standalone="no"?>
<!DOCTYPE svg PUBLIC "-//W3C//DTD SVG 1.1//EN" "http://www.w3.org/Graphics/SVG/1.1/DTD/svg11.dtd">
<svg width="100%" height="100%" viewBox="0 0 378 378" version="1.1" xmlns="http://www.w3.org/2000/svg" xmlns:xlink="http://www.w3.org/1999/xlink" xml:space="preserve" xmlns:serif="http://www.serif.com/" style="fill-rule:evenodd;clip-rule:evenodd;stroke-linejoin:round;stroke-miterlimit:2;">
    <g transform="matrix(1,0,0,1,-3016.199951,-179.322998)">
        <path d="M3393.7,368.073C3393.7,472.317 3309.19,556.823 3204.95,556.823C3100.7,556.823 3016.2,472.317 3016.2,368.073C3016.2,263.829 3100.7,179.323 3204.95,179.323C3309.19,179.323 3393.7,263.829 3393.7,368.073Z" style="fill:rgb(155,187,206);fill-rule:nonzero;"/>
        <clipPath id="_clip1">
            <path d="M3393.7,368.073C3393.7,472.317 3309.19,556.823 3204.95,556.823C3100.7,556.823 3016.2,472.317 3016.2,368.073C3016.2,263.829 3100.7,179.323 3204.95,179.323C3309.19,179.323 3393.7,263.829 3393.7,368.073Z" clip-rule="nonzero"/>
        </clipPath>
        <g clip-path="url(#_clip1)">
            <path d="M3207.14,216.568C3263.62,216.568 3284.82,248.046 3293.77,272.894C3297.08,282.095 3302.89,283.24 3305.08,295.273C3307.26,307.307 3302.69,312.394 3303.47,319.727C3304.83,332.465 3311.26,334.077 3313.1,344.502C3315.29,356.901 3312.29,360.376 3315.65,371.121C3319.3,382.793 3327.16,387.456 3329.14,396.921C3331.6,408.682 3323.31,418.982 3316.02,424.816C3308.72,430.65 3318.77,434.818 3314.37,444.782C3310.27,454.079 3298.14,456.639 3296.6,459.552C3294.14,464.199 3300.35,467.732 3294.96,479.241C3290.85,487.992 3278.55,493.461 3260.5,489.361C3244.53,485.73 3242.99,466.39 3242.17,444.509C3241.29,420.963 3216.83,415.246 3216.83,415.246L3188.95,413.605C3188.95,413.605 3177.9,423.725 3186.38,438.491C3193.78,451.376 3207.99,478.969 3189.39,489.087C3186.2,490.82 3182.83,490.497 3178.43,490.174C3173.27,489.795 3166.7,489.416 3157.39,492.37C3144.78,496.374 3142.35,501.94 3130.04,505.495C3121.27,508.03 3099.96,509.049 3090.39,498.112C3080.59,486.913 3085.19,480.064 3081.91,469.667C3078.19,457.877 3065.23,450.796 3064.41,439.04C3063.08,420.09 3079.81,419.137 3081.9,411.8C3083.99,404.481 3076.44,399.93 3080.27,391.725C3085.5,380.506 3097.04,383.574 3104.88,372.855C3110.42,365.278 3098.04,356.171 3099.96,347.147C3103.1,332.339 3114.58,333.535 3115.63,325.514C3116.68,317.498 3105.69,306.95 3108.31,295.185C3111.76,279.66 3122.69,275.311 3133.67,263.546C3141.91,254.711 3151.19,217.788 3207.14,216.568Z" style="fill:rgb(98,40,40);fill-rule:nonzero;"/>
            <path d="M3188.57,359.452C3188.57,359.452 3157.39,342.769 3149.46,353.166C3141.53,363.558 3150.83,373.673 3142.08,387.897C3133.33,402.117 3119.58,395.814 3110.63,407.587C3100.23,421.261 3106.25,438.491 3107.07,446.969C3107.89,455.448 3097.26,467.212 3107.07,484.71C3117.19,502.762 3144.81,497.839 3144.81,497.839C3144.81,497.839 3144.98,497.914 3145.29,498.052C3148.51,496.06 3152.03,494.07 3157.39,492.37C3166.7,489.416 3173.27,489.795 3178.43,490.174C3182.83,490.497 3186.2,490.82 3189.39,489.087C3207.99,478.969 3193.78,451.376 3186.38,438.491C3177.9,423.725 3188.95,413.605 3188.95,413.605L3216.83,415.246C3216.83,415.246 3218.03,415.524 3219.89,416.211C3220.59,408.085 3221.01,402.088 3220.84,401.572C3220.29,399.93 3188.57,359.452 3188.57,359.452Z" style="fill:rgb(73,34,34);fill-rule:nonzero;"/>
            <path d="M3341.92,772.641C3333.94,688.46 3315.41,564.373 3278.46,507.136C3269.5,493.255 3243.72,503.396 3218.66,505.679C3198.26,507.539 3178.09,500.571 3169.79,500.571C3110.82,500.571 3083.24,665.928 3072.87,771.652C3162.56,770.974 3252.25,770.929 3341.92,772.641Z" style="fill:rgb(44,30,67);fill-rule:nonzero;"/>
            <path d="M3360.86,516.618C3352.11,492.916 3327.77,479.896 3302.88,469.944C3277.36,459.732 3253.48,454.356 3245.54,441.5C3237.61,428.648 3239.78,400.254 3239.78,400.254L3211.64,406.768L3183.67,400.254C3183.67,400.254 3185.84,428.648 3177.9,441.5C3169.97,454.356 3146.09,459.732 3120.56,469.944C3095.68,479.896 3071.34,492.916 3062.59,516.618C3052.92,542.808 3017,732.127 3017,732.127C3017,732.127 3030.13,737.961 3056.38,740.148C3082.64,742.339 3100.34,737.961 3100.34,737.961C3100.34,737.961 3124.57,595.383 3135.15,595.383L3288.3,595.383C3298.87,595.383 3323.11,737.961 3323.11,737.961C3323.11,737.961 3340.81,742.339 3367.06,740.148C3393.32,737.961 3406.45,732.127 3406.45,732.127C3406.45,732.127 3370.53,542.808 3360.86,516.618Z" style="fill:rgb(67,57,86);fill-rule:nonzero;"/>
            <path d="M3260.22,377.778C3260.22,377.778 3262.68,388.989 3266.79,396.921C3270.89,404.854 3279.37,399.93 3282.1,408.136C3284.84,416.338 3275.54,416.887 3272.53,425.638C3269.52,434.39 3279.58,433.785 3278.27,442.595C3277.18,449.978 3270.62,448.883 3265.97,454.356C3261.32,459.825 3262.14,472.677 3262.14,472.677L3223.85,469.121L3224.4,404.581L3260.22,377.778Z" style="fill:rgb(73,34,34);fill-rule:nonzero;"/>
            <path d="M3209.9,497.839C3240.91,497.839 3268.95,485.184 3289.17,464.765C3269.18,457.524 3252.03,452.01 3245.54,441.5C3237.61,428.648 3239.78,400.254 3239.78,400.254L3211.64,406.768L3183.67,400.254C3183.67,400.254 3185.84,428.648 3177.9,441.5C3171.13,452.472 3152.73,458.007 3131.61,465.739C3151.76,485.584 3179.39,497.839 3209.9,497.839Z" style="fill:rgb(178,128,122);fill-rule:nonzero;"/>
            <path d="M3209.9,497.839C3240.91,497.839 3268.95,485.184 3289.17,464.765C3269.18,457.524 3252.03,452.01 3245.54,441.5C3237.61,428.648 3239.78,400.254 3239.78,400.254L3211.64,406.768L3183.67,400.254C3183.67,400.254 3185.84,428.648 3177.9,441.5C3171.13,452.472 3152.73,458.007 3131.61,465.739C3151.76,485.584 3179.39,497.839 3209.9,497.839Z" style="fill:rgb(178,128,122);fill-rule:nonzero;"/>
            <path d="M3115.96,471.825L3120.86,476.651C3144.76,500.189 3176.38,513.155 3209.9,513.155C3244.01,513.155 3276.03,499.799 3300.06,475.543L3304.82,470.733C3304.17,470.473 3303.53,470.201 3302.88,469.944C3277.36,459.732 3253.48,454.356 3245.54,441.5C3237.61,428.648 3239.78,400.254 3239.78,400.254L3211.64,406.768L3183.67,400.254C3183.67,400.254 3185.84,428.648 3177.9,441.5C3169.97,454.356 3146.09,459.732 3120.56,469.944C3119.03,470.557 3117.49,471.182 3115.96,471.825Z" style="fill:rgb(146,136,170);fill-rule:nonzero;"/>
            <path d="M3209.9,497.839C3240.91,497.839 3268.95,485.184 3289.17,464.765C3269.18,457.524 3252.03,452.01 3245.54,441.5C3237.61,428.648 3239.78,400.254 3239.78,400.254L3211.64,406.768L3183.67,400.254C3183.67,400.254 3185.84,428.648 3177.9,441.5C3171.13,452.472 3152.73,458.007 3131.61,465.739C3151.76,485.584 3179.39,497.839 3209.9,497.839Z" style="fill:rgb(255,149,125);fill-rule:nonzero;"/>
            <path d="M3183.57,418.976L3183.57,418.973C3184.31,409.246 3183.7,400.691 3183.67,400.27C3183.69,400.535 3183.94,404.004 3183.94,408.958C3183.94,411.896 3183.85,415.354 3183.57,418.976Z" style="fill:rgb(63,28,27);fill-rule:nonzero;"/>
            <path d="M3239.79,417.753C3239.58,414.578 3239.51,411.563 3239.51,408.958C3239.51,404.26 3239.73,400.896 3239.77,400.336C3239.71,401.207 3239.2,408.85 3239.79,417.753Z" style="fill:rgb(63,28,27);fill-rule:nonzero;"/>
            <path d="M3239.77,400.33C3239.77,400.325 3239.77,400.32 3239.78,400.316C3239.77,400.32 3239.77,400.325 3239.77,400.33ZM3239.78,400.314L3239.78,400.259L3239.78,400.314Z" style="fill:rgb(63,28,27);fill-rule:nonzero;"/>
            <path d="M3183.67,400.268L3183.67,400.263L3183.67,400.268ZM3183.67,400.26L3183.67,400.257L3183.67,400.26Z" style="fill:rgb(63,28,27);fill-rule:nonzero;"/>
            <path d="M3210.75,435.401C3197.96,435.401 3190.62,424.073 3183.57,418.976C3183.85,415.354 3183.94,411.896 3183.94,408.958C3183.94,404.004 3183.69,400.535 3183.67,400.27L3183.67,400.254L3211.64,406.768L3239.78,400.254L3239.78,400.316C3239.77,400.32 3239.77,400.325 3239.77,400.33L3239.77,400.336C3239.73,400.896 3239.51,404.26 3239.51,408.958C3239.51,411.563 3239.58,414.578 3239.79,417.753C3239.58,417.878 3239.36,418.021 3239.16,418.142C3231.72,422.704 3224.29,435.401 3210.75,435.401Z" style="fill:rgb(221,122,98);fill-rule:nonzero;"/>
            <path d="M3266.98,334.82C3268.59,332.335 3273.17,326.492 3280.9,331.134C3288.63,335.772 3284.58,346.358 3280.78,352.427C3276.97,358.492 3274.53,363.851 3270.43,363.843C3266.32,363.839 3266.74,353.614 3266.74,348.381C3266.74,342.601 3265.36,337.304 3266.98,334.82Z" style="fill:rgb(255,149,125);fill-rule:nonzero;"/>
            <path d="M3271.56,337.023C3272.3,334.622 3276.29,333.535 3279.17,335.596C3281.67,337.376 3281.65,340.859 3280.84,344.93C3279.89,349.69 3276.79,353.317 3274.89,352.305C3272.99,351.294 3275.01,349.094 3274.35,345.883C3273.7,342.673 3270.37,340.889 3271.56,337.023Z" style="fill:rgb(237,110,88);fill-rule:nonzero;"/>
            <path d="M3270.12,328.834C3269.7,309.515 3270.6,291.24 3264.49,279.668C3250.5,253.184 3227.7,250.17 3210.66,250.17C3193.64,250.17 3170.83,253.184 3156.84,279.668C3150.73,291.24 3151.63,309.515 3151.21,328.834C3150.77,349.342 3148.27,362.399 3151.36,377.367C3154.25,391.322 3174.48,405.752 3184.82,412.098C3191.58,416.249 3198.35,427.8 3210.66,427.8C3222.98,427.8 3229.75,416.249 3236.51,412.098C3246.85,405.752 3267.08,391.322 3269.96,377.367C3273.06,362.399 3270.56,349.342 3270.12,328.834Z" style="fill:rgb(255,149,125);fill-rule:nonzero;"/>
            <path d="M3195.41,251.698C3195.41,251.698 3227.57,249.02 3246.07,266.036C3267.8,286.019 3269.98,319.705 3269.98,319.705L3271.88,289.977C3271.88,289.977 3254.76,258.338 3253.57,257.385C3252.38,256.432 3222.64,241.923 3221.93,241.923C3221.21,241.923 3195.41,251.698 3195.41,251.698Z" style="fill:rgb(98,40,40);fill-rule:nonzero;"/>
            <path d="M3151.56,275.219C3144.26,287.618 3148.81,304.52 3148.64,319.705C3157.79,314.169 3171.8,303.622 3182.89,289.578C3196.12,272.831 3203.24,257.339 3205.89,248.601C3189.8,249.436 3167.77,247.652 3151.56,275.219Z" style="fill:rgb(98,40,40);fill-rule:nonzero;"/>
            <path d="M3152.58,334.82C3150.96,332.335 3146.39,326.492 3138.66,331.134C3130.93,335.772 3134.97,346.358 3138.78,352.427C3142.59,358.492 3145.03,363.851 3149.13,363.843C3153.23,363.839 3152.82,353.614 3152.82,348.381C3152.82,342.601 3154.19,337.304 3152.58,334.82Z" style="fill:rgb(255,149,125);fill-rule:nonzero;"/>
            <path d="M3148,337.023C3147.26,334.622 3143.27,333.535 3140.39,335.596C3137.89,337.376 3137.91,340.859 3138.72,344.93C3139.67,349.69 3142.77,353.317 3144.67,352.305C3146.57,351.294 3144.55,349.094 3145.2,345.883C3145.86,342.673 3149.19,340.889 3148,337.023Z" style="fill:rgb(237,110,88);fill-rule:nonzero;"/>
            <path d="M3275.17,308.037C3274.63,308.037 3274.16,307.634 3274.09,307.084C3266.46,247.774 3219,245.738 3216.98,245.683C3216.38,245.662 3215.9,245.163 3215.92,244.559C3215.94,243.967 3216.42,243.497 3217.01,243.497L3217.04,243.497C3217.56,243.509 3268.39,245.595 3276.26,306.803C3276.34,307.403 3275.91,307.953 3275.31,308.029L3275.17,308.037Z" style="fill:rgb(147,69,69);fill-rule:nonzero;"/>
            <path d="M3282.23,299.71C3281.69,299.71 3281.22,299.307 3281.15,298.757C3276.63,264.722 3258,249.784 3243.16,243.245C3242.61,243.001 3242.36,242.355 3242.61,241.801C3242.85,241.251 3243.49,240.999 3244.05,241.243C3259.39,248.009 3278.66,263.429 3283.32,298.472C3283.39,299.068 3282.97,299.618 3282.37,299.697L3282.23,299.71Z" style="fill:rgb(147,69,69);fill-rule:nonzero;"/>
            <path d="M3128.4,279.87C3127.97,279.87 3127.57,279.614 3127.39,279.19C3127.16,278.632 3127.43,277.994 3127.99,277.763C3139.44,273.053 3143.31,264.911 3147.41,256.294C3150.26,250.296 3153.2,244.097 3158.84,238.863C3174.26,224.538 3194.49,223.304 3195.35,223.258C3195.94,223.228 3196.47,223.69 3196.5,224.29C3196.53,224.895 3196.07,225.411 3195.47,225.444C3195.26,225.453 3175.16,226.695 3160.32,240.466C3155,245.415 3152.14,251.421 3149.38,257.23C3145.29,265.847 3141.06,274.757 3128.82,279.786C3128.68,279.84 3128.54,279.87 3128.4,279.87Z" style="fill:rgb(147,69,69);fill-rule:nonzero;"/>
            <path d="M3094.31,402.118C3094.18,402.118 3094.05,402.096 3093.92,402.05C3093.36,401.836 3093.07,401.207 3093.28,400.64C3094.83,396.514 3098.54,394.373 3102.48,392.111C3107.55,389.194 3112.8,386.176 3114.76,378.508C3116.32,372.418 3115,366.987 3113.72,361.74C3112.4,356.305 3111.03,350.689 3112.95,344.54C3114.44,339.785 3116.76,336.272 3119,332.88C3122.33,327.844 3125.21,323.495 3124.58,316.154C3124.53,315.554 3124.97,315.021 3125.57,314.971C3126.17,314.904 3126.7,315.365 3126.76,315.97C3127.45,324.066 3124.23,328.935 3120.83,334.085C3118.67,337.35 3116.43,340.729 3115.04,345.195C3113.3,350.765 3114.54,355.843 3115.85,361.22C3117.19,366.731 3118.58,372.431 3116.88,379.054C3114.68,387.616 3108.78,391.012 3103.57,394.008C3099.83,396.162 3096.6,398.017 3095.33,401.408C3095.16,401.849 3094.75,402.118 3094.31,402.118Z" style="fill:rgb(147,69,69);fill-rule:nonzero;"/>
            <path d="M3304.35,426.914L3304.13,426.894C3303.54,426.772 3303.15,426.197 3303.27,425.605C3304.12,421.399 3307.57,418.327 3310.91,415.351C3314.8,411.876 3318.84,408.279 3318.93,402.831C3319.02,397.475 3316.03,394.235 3312.86,390.806C3309.95,387.662 3306.95,384.414 3305.92,379.364C3304.85,374.114 3305.24,369.148 3305.66,363.894C3306.07,358.739 3306.49,353.413 3305.46,347.613C3303.44,336.276 3292.32,323.101 3292.21,322.966C3291.82,322.509 3291.87,321.817 3292.33,321.426C3292.8,321.036 3293.49,321.09 3293.88,321.552C3294.35,322.106 3305.49,335.315 3307.61,347.226C3308.69,353.304 3308.26,358.777 3307.84,364.066C3307.44,369.165 3307.05,373.979 3308.06,378.928C3308.97,383.377 3311.76,386.399 3314.46,389.32C3317.79,392.913 3321.22,396.632 3321.12,402.865C3321.01,409.274 3316.42,413.37 3312.36,416.988C3309.15,419.847 3306.12,422.549 3305.42,426.037C3305.31,426.558 3304.86,426.914 3304.35,426.914Z" style="fill:rgb(147,69,69);fill-rule:nonzero;"/>
            <path d="M3135.79,328.276C3135.19,328.276 3134.71,327.802 3134.69,327.21C3134.68,326.731 3134.48,315.512 3141.62,312.238C3144.52,310.912 3159.71,303.269 3174.56,283.051C3179.66,276.105 3182.69,269.041 3185.36,262.812C3189.92,252.172 3193.52,243.769 3204.6,242.678C3205.19,242.636 3205.74,243.06 3205.79,243.66C3205.85,244.265 3205.42,244.798 3204.81,244.857C3195.03,245.818 3191.81,253.31 3187.37,263.673C3184.65,270.015 3181.57,277.196 3176.32,284.344C3161.16,304.998 3145.51,312.864 3142.53,314.228C3136.69,316.906 3136.88,327.055 3136.88,327.155C3136.9,327.76 3136.42,328.259 3135.82,328.276L3135.79,328.276Z" style="fill:rgb(147,69,69);fill-rule:nonzero;"/>
        </g>
    </g>
</svg>
