<?xml version="1.0" encoding="UTF-8"?>
<svg id="Calque_2" data-name="Calque 2" xmlns="http://www.w3.org/2000/svg" viewBox="0 0 191.8400975154 417.6470185639">
  <g id="Layer_1" data-name="Layer 1">
    <path d="m1.0757248512,51.0599245697c-2.3187,3.1821-.6444,8.4994,2.6907,10.2615,3.8969,2.0589,7.7866.7056,10.2614-2.6907C53.4804248512,4.4956245697,138.4848248512,3.9007245697,169.0237248512,40.2922245697c11.7344,13.9764,9.1817,31.0507.5439,46.9604-13.2772,24.4538-31.2576,37.4522-52.95,74.1375-38.3533,64.8609-51.844,142.0975-40.0665,213.6777-2.8695-2.6927-5.8438-5.2723-8.9279-7.7137-6.6679-5.2777-13.0291.2581-12.8035,5.3034.3166,7.0638,4.1824,4.2023,20.2498,22.387,3.6549,4.1367,5.836,7.0048,8.0398,10.1132.7597,2.7777,1.1699,6.0879,5.1837,7.8566.1842.3003.3737.5975.5558.8992,4.1559,6.8854,13.8784,3.4398,13.9761-3.7854.2759-20.405,2.8221-39.9141,8.2839-60.6119.9998-3.7889-1.2601-8.3197-5.2383-9.2258-3.9286-.8948-8.1548,1.1793-9.2259,5.2383-2.279,8.6362-4.1051,17.3979-5.5048,26.2275-8.5475-51.7217-2.7861-106.8367,16.7005-157.8857,31.5891-82.7564,77.2006-99.9906,83.435-143.5462C201.7928248512-3.1608754303,62.6906248512-33.4966754303,1.0757248512,51.0599245697Zm148.2478,88.6362c.2242-.2901.6497-.8302,0,0h0Z" style="fill: #fff;"/>
  </g>
</svg>