<?xml version="1.0" encoding="UTF-8"?>
<svg id="Calque_2" data-name="Calque 2" xmlns="http://www.w3.org/2000/svg" viewBox="0 0 174.9905175871 391.1873968797">
  <g id="Layer_1" data-name="Layer 1">
    <path d="m164.2267328869,18.9120574954l-85.7567717498,50.7146496851,89.8701302781,2.2969845913c5.7085109913.1458674824,8.4929837386,7.5340642861,5.3169742403,11.8245011877-61.7687094641,83.4400967463-65.5317500865,176.9484936108-64.7980956204,280.8863065319l22.5108307178-28.6439027176c2.4188649438-3.0780464638,7.1844459198-4.315055276,10.4664170424-1.7352613617,3.0771396498,2.4186985458,4.3279620007,7.1671740798,1.7351984287,10.4663393287-35.7106244713,45.4400706804-34.8345034758,45.6975928952-40.4994928318,46.3750164897-4.4327593363.5299849681-7.9473852163-1.3514554942-11.7054050142-3.3287924152-14.4824919059-7.6203025219-27.0284012977-15.6799747127-40.1568106868-26.4731586235-3.0221033951-2.4843703105-4.3526731371-7.1363539607-1.7352613618-10.4664170424,2.3725698129-3.0184238939,7.2255329752-4.3995413925,10.4663393287-1.7351984287,10.631660139,8.7404984302,22.0451706266,16.4888401024,34.0719496399,23.1733436454-.9216225585-103.6376163252,1.286880006-199.4063354668,59.3609061015-285.7674366373l-101.8317294221-2.6027208149c-3.171147022-.0810667306-6.2948783451-3.2248342842-6.6310838057-6.325077297-.3905164434-3.6003094155,1.4080795156-6.2319043741,4.4130237001-8.0089427581l85.9281036767-50.8159501826L6.7382112951,14.9223245189C2.8028339856,14.8051684322-.5016447287,10.4822661672.0631530781,6.679536418.6971462874,2.4111918911,4.1081872502-.1204687348,8.306019101.0044150993l153.7026536803,4.5736223411c6.226033252.1852522466,10.2341891369,9.5931667728,2.2180601056,14.334020055Z" style="fill: #fff;"/>
  </g>
</svg>