<?xml version="1.0" encoding="UTF-8" standalone="no"?>
<!DOCTYPE svg PUBLIC "-//W3C//DTD SVG 1.1//EN" "http://www.w3.org/Graphics/SVG/1.1/DTD/svg11.dtd">
<svg width="100%" height="100%" viewBox="0 0 378 378" version="1.1" xmlns="http://www.w3.org/2000/svg" xmlns:xlink="http://www.w3.org/1999/xlink" xml:space="preserve" xmlns:serif="http://www.serif.com/" style="fill-rule:evenodd;clip-rule:evenodd;stroke-linejoin:round;stroke-miterlimit:2;">
    <g transform="matrix(1,0,0,1,-1570.26001,-179.322998)">
        <path d="M1947.76,368.073C1947.76,472.317 1863.25,556.823 1759.01,556.823C1654.77,556.823 1570.26,472.317 1570.26,368.073C1570.26,263.829 1654.77,179.323 1759.01,179.323C1863.25,179.323 1947.76,263.829 1947.76,368.073Z" style="fill:rgb(179,179,224);fill-rule:nonzero;"/>
        <clipPath id="_clip1">
            <path d="M1947.76,368.073C1947.76,472.317 1863.25,556.823 1759.01,556.823C1654.77,556.823 1570.26,472.317 1570.26,368.073C1570.26,263.829 1654.77,179.323 1759.01,179.323C1863.25,179.323 1947.76,263.829 1947.76,368.073Z" clip-rule="nonzero"/>
        </clipPath>
        <g clip-path="url(#_clip1)">
            <path d="M1720.98,452.236C1708.22,451.201 1701.71,442.895 1701.44,442.542L1702.25,441.916C1702.32,441.999 1708.78,450.214 1721.06,451.211L1720.98,452.236Z" style="fill:rgb(36,39,51);fill-rule:nonzero;"/>
            <path d="M1802.39,450.449L1802.18,449.442C1815.99,446.666 1820.37,439.796 1820.42,439.727L1821.29,440.265C1821.11,440.561 1816.67,447.578 1802.39,450.449Z" style="fill:rgb(36,39,51);fill-rule:nonzero;"/>
            <path d="M1708.44,407.06C1708.44,407.06 1711.24,399.998 1756.53,399.998C1801.81,399.998 1813.37,405.481 1813.37,405.481C1813.37,405.481 1803.24,425.275 1757.73,425.275C1712.22,425.275 1708.44,407.06 1708.44,407.06Z" style="fill:rgb(73,41,37);fill-rule:nonzero;"/>
            <path d="M1589.79,652.416C1612.92,656.522 1630.74,652.175 1630.74,652.175C1630.74,652.175 1628.32,704.464 1625.89,756.73C1716.25,756.661 1806.58,753.83 1896.92,751.791C1894.47,694.199 1891.95,628.906 1891.95,628.906C1891.95,628.906 1902.44,635.137 1930.13,631.824C1955.44,628.795 1963.03,619.281 1963.03,619.281C1963.03,619.281 1951.32,541.065 1899.84,489.581C1861.32,451.062 1820.85,439.997 1820.85,439.997C1820.85,439.997 1820.85,432.185 1818.61,420.825C1816.47,410.013 1813.48,405.482 1813.48,405.482C1813.48,405.482 1796.13,425.012 1753.47,425.275C1717.72,425.495 1708.55,407.059 1708.55,407.059C1708.55,407.059 1704.78,415.453 1703.19,424.653C1701.22,436.013 1701.85,442.229 1701.85,442.229C1701.85,442.229 1649.56,463.304 1604.46,514.669C1558.55,566.975 1557.6,633.953 1557.6,633.953C1557.6,633.953 1564.46,647.918 1589.79,652.416Z" style="fill:rgb(91,53,46);fill-rule:nonzero;"/>
            <path d="M1607.75,510.998C1606.65,512.21 1605.56,513.422 1604.46,514.669C1558.55,566.975 1557.6,633.953 1557.6,633.953C1557.6,633.953 1564.47,647.918 1589.79,652.416C1612.92,656.522 1630.74,652.176 1630.74,652.176C1630.74,652.176 1639.49,622.12 1635.47,575.494C1631.26,526.681 1607.75,510.998 1607.75,510.998Z" style="fill:rgb(163,94,73);fill-rule:nonzero;"/>
            <path d="M1752.47,510.918C1754.23,522.823 1755.88,534.065 1756.53,547.668C1757.17,561.068 1755.43,582.675 1753.58,605.553C1751.72,628.701 1749.79,652.636 1750.1,670.703C1750.44,689.638 1753.83,706.45 1756.82,721.282C1759.18,732.977 1761.42,744.115 1761.96,754.983C1764.48,754.928 1767.01,754.879 1769.54,754.822C1768.99,743.345 1766.68,731.854 1764.25,719.784C1761.17,704.559 1758,688.817 1757.68,670.569C1757.37,652.873 1759.28,629.128 1761.13,606.164C1763,583.036 1764.76,561.191 1764.1,547.307C1763.43,533.328 1761.67,521.375 1759.96,509.812C1758.3,498.576 1756.59,486.954 1755.85,473.338L1753.37,427.043C1751.96,427.09 1750.52,427.124 1749.05,427.124C1747.93,427.124 1746.85,427.102 1745.78,427.077L1748.29,473.744C1749.04,487.713 1750.78,499.51 1752.47,510.918Z" style="fill:rgb(166,128,50);fill-rule:nonzero;"/>
            <path d="M1755.28,510.506C1756.97,521.951 1758.72,533.789 1759.37,547.533C1760.02,561.112 1758.27,582.809 1756.42,605.784C1754.55,628.861 1752.63,652.725 1752.94,670.652C1753.27,689.329 1756.49,705.288 1759.61,720.72C1762,732.556 1764.26,743.827 1764.8,754.924C1765.43,754.91 1766.06,754.898 1766.7,754.884C1766.15,743.634 1763.87,732.275 1761.46,720.346C1758.36,704.998 1755.16,689.124 1754.84,670.618C1754.52,652.784 1756.44,628.969 1758.3,605.935C1760.16,582.9 1761.92,561.145 1761.26,547.443C1760.6,533.604 1758.85,521.72 1757.15,510.228C1755.48,498.927 1753.76,487.238 1753.02,473.49L1750.52,427.1C1750.03,427.106 1749.55,427.124 1749.05,427.124C1748.91,427.124 1748.77,427.118 1748.63,427.118L1751.13,473.593C1751.87,487.427 1753.6,499.162 1755.28,510.506Z" style="fill:rgb(142,63,58);fill-rule:nonzero;"/>
            <path d="M1733.31,458.933C1731.05,458.613 1729.48,456.527 1729.8,454.271C1730.12,452.015 1732.21,450.447 1734.46,450.766C1736.72,451.085 1738.29,453.174 1737.97,455.429C1737.65,457.683 1735.56,459.254 1733.31,458.933ZM1743.42,454.653C1743.42,454.653 1742.23,449.089 1744.1,445.701C1745.97,442.314 1750.23,434.691 1752.09,431.21C1753.95,427.731 1748.35,425.948 1746.87,427.676C1745.4,429.405 1738.46,437.521 1735.86,440.882C1733.27,444.239 1727.98,447.346 1727.98,447.346L1727.99,447.346C1726.12,448.814 1724.79,450.969 1724.43,453.509C1723.69,458.731 1727.32,463.568 1732.55,464.307C1737.61,465.026 1742.3,461.624 1743.25,456.653L1743.27,456.692L1743.29,456.472C1743.3,456.377 1743.33,456.286 1743.34,456.19C1743.42,455.672 1743.43,455.162 1743.42,454.653Z" style="fill:rgb(173,176,165);fill-rule:nonzero;"/>
            <path d="M1892.03,553.956C1886.82,594.902 1891.95,628.906 1891.95,628.906L1892.28,629.077C1894.15,630.027 1905.09,634.82 1930.13,631.824C1955.44,628.795 1963.03,619.281 1963.03,619.281C1963.03,619.281 1953.77,551.403 1910.79,501.226C1910.75,501.264 1897.25,512.902 1892.03,553.956Z" style="fill:rgb(163,94,73);fill-rule:nonzero;"/>
            <path d="M1757.98,422.092C1719.65,422.112 1712.77,407.572 1712.77,407.572C1712.77,407.572 1718.53,401.675 1756.74,401.862C1794.95,402.049 1808.71,406.431 1808.71,406.431C1808.71,406.431 1796.3,422.076 1757.98,422.092ZM1756.37,399.171C1714.58,398.911 1708.28,407.06 1708.28,407.06C1708.28,407.06 1715.8,427.149 1757.72,427.124C1799.63,427.096 1813.2,405.481 1813.2,405.481C1813.2,405.481 1798.16,399.429 1756.37,399.171Z" style="fill:rgb(124,74,67);fill-rule:nonzero;"/>
            <path d="M1791.9,420.652L1759.49,423.942L1728.88,422.882L1728.88,390.489L1791.9,390.489L1791.9,420.652Z" style="fill:rgb(163,10,10);fill-rule:nonzero;"/>
            <path d="M1807.15,229.389C1785.81,212.662 1735.04,212.662 1713.69,229.389C1694.32,244.568 1689.27,263.796 1689.27,273.625C1689.27,278.956 1692.02,299.943 1693.67,322.705C1695.05,341.89 1695.07,361.369 1697.63,368.37C1703.13,383.447 1713.11,390.098 1724.37,399.878C1735.63,409.661 1739.59,413.126 1746.38,416.02C1753.09,418.879 1767.76,418.879 1774.47,416.02C1781.26,413.126 1785.22,409.661 1796.48,399.878C1807.74,390.098 1817.72,383.447 1823.22,368.37C1825.77,361.369 1825.79,341.89 1827.18,322.705C1828.83,299.943 1831.58,278.956 1831.58,273.625C1831.58,263.796 1826.53,244.568 1807.15,229.389Z" style="fill:rgb(191,83,65);fill-rule:nonzero;"/>
            <path d="M1760.43,216.845C1742.42,216.856 1724.35,221.037 1713.69,229.389C1694.32,244.567 1689.27,263.796 1689.27,273.625C1689.27,278.269 1691.35,294.781 1692.98,313.994C1693.14,315.931 1693.27,315.925 1693.45,313.986C1693.82,310.074 1694.9,303.379 1698.07,296.402C1700.93,290.114 1704.59,286.942 1707.18,285.385C1708.85,284.382 1710.12,282.416 1709.78,280.501L1707.81,269.281C1707.47,267.366 1708.61,266.531 1710.43,267.22C1714.21,268.652 1721.32,270.757 1731.63,271.425C1746.93,272.416 1773.85,272.416 1789.14,271.425C1799.46,270.757 1806.56,268.652 1810.35,267.22C1812.17,266.531 1813.3,267.366 1812.96,269.281L1810.99,280.501C1810.65,282.416 1811.93,284.382 1813.59,285.385C1816.18,286.942 1819.85,290.114 1822.71,296.402C1825.88,303.381 1826.96,310.076 1827.32,313.99C1827.5,315.927 1827.63,315.933 1827.8,313.996C1829.42,294.781 1831.51,278.269 1831.51,273.625C1831.51,263.796 1826.46,244.567 1807.08,229.389C1796.42,221.037 1778.43,216.856 1760.43,216.845Z" style="fill:rgb(66,21,17);fill-rule:nonzero;"/>
            <path d="M1693.46,319.93C1693.46,319.93 1686.91,315.634 1681.34,320.795C1675.33,326.369 1678.48,338.434 1683.18,344.859C1688.16,351.682 1695.27,351.041 1695.27,351.041L1698.07,334.441L1693.46,319.93Z" style="fill:rgb(191,83,65);fill-rule:nonzero;"/>
            <path d="M1689.91,340.954C1688.57,340.954 1686.25,339.746 1685.49,337.083C1684.43,333.43 1684.82,328.036 1688.44,327.547C1688.7,327.512 1688.95,327.495 1689.18,327.495C1691.42,327.495 1692.68,329.005 1692.82,330.956C1692.97,332.902 1691.76,334.479 1691.17,336.348C1690.59,338.22 1691.54,340.052 1690.66,340.749C1690.49,340.884 1690.22,340.954 1689.91,340.954Z" style="fill:rgb(119,61,56);fill-rule:nonzero;"/>
            <path d="M1827.46,319.93C1827.46,319.93 1834.01,315.634 1839.58,320.795C1845.59,326.369 1842.44,338.434 1837.74,344.859C1832.75,351.682 1825.65,351.041 1825.65,351.041L1822.85,334.441L1827.46,319.93Z" style="fill:rgb(191,83,65);fill-rule:nonzero;"/>
            <path d="M1831.01,340.954C1830.69,340.954 1830.43,340.884 1830.26,340.749C1829.38,340.052 1830.33,338.22 1829.75,336.348C1829.16,334.479 1827.94,332.902 1828.09,330.956C1828.24,329.005 1829.5,327.495 1831.73,327.495C1831.97,327.495 1832.22,327.512 1832.48,327.547C1836.1,328.036 1836.49,333.43 1835.43,337.083C1834.66,339.746 1832.34,340.954 1831.01,340.954Z" style="fill:rgb(119,61,56);fill-rule:nonzero;"/>
            <path d="M1799.66,413.144C1792,417.389 1778.8,422.082 1757.81,422.092C1735.64,422.104 1724.01,417.243 1718.13,413.144L1712.45,413.144C1718.21,419.056 1730.95,427.142 1757.55,427.124C1782.64,427.108 1797.56,419.363 1805.51,413.144L1799.66,413.144Z" style="fill:rgb(124,74,67);fill-rule:nonzero;"/>
        </g>
    </g>
</svg>
