<svg width="1288" height="2615" viewBox="0 0 1288 2615" fill="none" xmlns="http://www.w3.org/2000/svg"
    xmlns:xlink="http://www.w3.org/1999/xlink">
    <path fill-rule="evenodd" clip-rule="evenodd"
        d="M1256.23 161.942C1256.23 75.2601 1185.95 5 1099.23 5H161.462C74.7459 5 4.46484 75.2601 4.46484 161.942V2450.85C4.46484 2537.54 74.7459 2607.8 161.462 2607.8H1099.23C1185.95 2607.8 1256.23 2537.54 1256.23 2450.85V161.942Z"
        fill="#8C8C8C" />
    <g filter="url(#filter0_f_2421_2299)">
        <path fill-rule="evenodd" clip-rule="evenodd"
            d="M1253.89 161.942V2450.85C1253.89 2536.22 1184.66 2605.47 1099.23 2605.47H161.461C76.0347 2605.47 6.80469 2536.22 6.80469 2450.85V161.942C6.80469 76.5769 76.0347 7.32422 161.461 7.32422H1099.23C1184.66 7.32422 1253.89 76.5769 1253.89 161.942Z"
            fill="#EFF6F1" />
    </g>
    <g filter="url(#filter1_f_2421_2299)">
        <path fill-rule="evenodd" clip-rule="evenodd"
            d="M1253.94 161.942V2450.85C1253.94 2536.22 1184.66 2605.47 1099.24 2605.47H161.464C76.0376 2605.47 6.75977 2536.22 6.75977 2450.85V161.942C6.75977 76.5769 76.0376 7.32422 161.464 7.32422H1099.24C1184.66 7.32422 1253.94 76.5769 1253.94 161.942Z"
            fill="#6D6D6D" />
    </g>
    <g filter="url(#filter2_f_2421_2299)">
        <path fill-rule="evenodd" clip-rule="evenodd"
            d="M1253.32 161.942V2450.85C1253.32 2535.91 1184.33 2604.85 1099.23 2604.85H161.461C76.3694 2604.85 7.37891 2535.91 7.37891 2450.85V161.942C7.37891 76.8865 76.3694 7.94336 161.461 7.94336H1099.23C1184.33 7.94336 1253.32 76.8865 1253.32 161.942Z"
            fill="#595959" />
    </g>
    <g filter="url(#filter3_f_2421_2299)">
        <path fill-rule="evenodd" clip-rule="evenodd"
            d="M1250.98 161.942V2450.85C1250.98 2534.59 1183.04 2602.53 1099.24 2602.53H161.464C77.6621 2602.53 9.72266 2534.59 9.72266 2450.85V161.942C9.72266 78.2033 77.6621 10.2676 161.464 10.2676H1099.24C1183.04 10.2676 1250.98 78.2033 1250.98 161.942Z"
            fill="#FCFBFC" />
    </g>
    <g filter="url(#filter4_f_2421_2299)">
        <path fill-rule="evenodd" clip-rule="evenodd"
            d="M1250.98 161.942V2450.85C1250.98 2534.59 1183.04 2602.53 1099.24 2602.53H161.464C77.6621 2602.53 9.72266 2534.59 9.72266 2450.85V161.942C9.72266 78.2033 77.6621 10.2676 161.464 10.2676H1099.24C1183.04 10.2676 1250.98 78.2033 1250.98 161.942Z"
            fill="#535353" />
    </g>
    <g filter="url(#filter5_f_2421_2299)">
        <path fill-rule="evenodd" clip-rule="evenodd"
            d="M1248.68 161.94V2450.85C1248.68 2533.35 1181.79 2600.28 1099.23 2600.28H161.459C78.9002 2600.28 12.0117 2533.35 12.0117 2450.85V161.94C12.0117 79.441 78.9002 12.5117 161.459 12.5117H1099.23C1181.79 12.5117 1248.68 79.441 1248.68 161.94Z"
            fill="#707070" />
    </g>
    <g filter="url(#filter6_f_2421_2299)">
        <path fill-rule="evenodd" clip-rule="evenodd"
            d="M1248.11 161.941V2450.85C1248.11 2533.04 1181.46 2599.66 1099.23 2599.66H161.461C79.2361 2599.66 12.5859 2533.04 12.5859 2450.85V161.941C12.5859 79.7517 79.2361 13.1328 161.461 13.1328H1099.23C1181.46 13.1328 1248.11 79.7517 1248.11 161.941Z"
            fill="#828282" />
    </g>
    <g filter="url(#filter7_f_2421_2299)">
        <path fill-rule="evenodd" clip-rule="evenodd"
            d="M1245.77 161.94V2450.85C1245.77 2531.72 1180.17 2597.34 1099.23 2597.34H161.46C80.5249 2597.34 14.9258 2531.72 14.9258 2450.85V161.94C14.9258 81.0675 80.5249 15.4551 161.46 15.4551H1099.23C1180.17 15.4551 1245.77 81.0675 1245.77 161.94Z"
            fill="#B8B8B8" />
    </g>
    <g filter="url(#filter8_f_2421_2299)">
        <path fill-rule="evenodd" clip-rule="evenodd"
            d="M1245.77 161.94V2450.85C1245.77 2531.72 1180.17 2597.34 1099.23 2597.34H161.46C80.5249 2597.34 14.9258 2531.72 14.9258 2450.85V161.94C14.9258 81.0675 80.5249 15.4551 161.46 15.4551H1099.23C1180.17 15.4551 1245.77 81.0675 1245.77 161.94Z"
            fill="#848484" />
    </g>
    <g filter="url(#filter9_f_2421_2299)">
        <path fill-rule="evenodd" clip-rule="evenodd"
            d="M1240.46 161.944V2450.85C1240.46 2528.78 1177.25 2591.99 1099.23 2591.99H161.461C83.4402 2591.99 20.2305 2528.78 20.2305 2450.85V161.944C20.2305 84.0146 83.4402 20.7266 161.461 20.7266H1099.23C1177.25 20.7266 1240.46 84.0146 1240.46 161.944Z"
            fill="#959595" />
    </g>
    <g filter="url(#filter10_f_2421_2299)">
        <path fill-rule="evenodd" clip-rule="evenodd"
            d="M1239.84 161.942V2450.85C1239.84 2528.47 1176.92 2591.37 1099.23 2591.37H161.461C83.7752 2591.37 20.8516 2528.47 20.8516 2450.85V161.942C20.8516 84.3229 83.7752 21.4219 161.461 21.4219H1099.23C1176.92 21.4219 1239.84 84.3229 1239.84 161.942Z"
            fill="#797979" />
    </g>
    <g filter="url(#filter11_f_2421_2299)">
        <path fill-rule="evenodd" clip-rule="evenodd"
            d="M1238.17 161.942V2450.85C1238.17 2527.54 1175.96 2589.75 1099.23 2589.75H161.46C84.7299 2589.75 22.5234 2527.54 22.5234 2450.85V161.942C22.5234 85.253 84.7299 23.0488 161.46 23.0488H1099.23C1175.96 23.0488 1238.17 85.253 1238.17 161.942Z"
            fill="#959595" />
    </g>
    <g filter="url(#filter12_f_2421_2299)">
        <path fill-rule="evenodd" clip-rule="evenodd"
            d="M1237.6 161.941V2450.85C1237.6 2527.23 1175.63 2589.12 1099.23 2589.12H161.461C85.0649 2589.12 23.1445 2527.23 23.1445 2450.85V161.941C23.1445 85.5616 85.0649 23.668 161.461 23.668H1099.23C1175.63 23.668 1237.6 85.5616 1237.6 161.941Z"
            fill="#838383" />
    </g>
    <rect x="1035.56" y="2607.79" width="16.5632" height="26.1735" transform="rotate(180 1035.56 2607.79)"
        fill="#5B5B5B" style="mix-blend-mode:overlay" />
    <rect x="219.918" y="2607.79" width="16.5632" height="26.1735" transform="rotate(180 219.918 2607.79)"
        fill="#5B5B5B" style="mix-blend-mode:overlay" />
    <rect x="4.46484" y="2382.7" width="16.5632" height="26.1735" transform="rotate(-90 4.46484 2382.7)" fill="#5B5B5B"
        style="mix-blend-mode:overlay" />
    <rect x="4.46484" y="223.912" width="16.5632" height="26.1735" transform="rotate(-90 4.46484 223.912)"
        fill="#5B5B5B" style="mix-blend-mode:overlay" />
    <rect x="469.232" y="5" width="16.5632" height="26.1735" fill="#5B5B5B" style="mix-blend-mode:overlay" />
    <rect x="1256.22" y="209.363" width="16.5632" height="26.1735" transform="rotate(90 1256.22 209.363)" fill="#5B5B5B"
        style="mix-blend-mode:overlay" />
    <g filter="url(#filter13_f_2421_2299)">
        <path fill-rule="evenodd" clip-rule="evenodd"
            d="M1235.26 161.944V2450.85C1235.26 2525.92 1174.34 2586.8 1099.23 2586.8H161.461C86.3547 2586.8 25.4375 2525.92 25.4375 2450.85V161.944C25.4375 86.8813 86.3547 25.9941 161.461 25.9941H1099.23C1174.34 25.9941 1235.26 86.8813 1235.26 161.944Z"
            fill="#4D4D4D" />
    </g>
    <g filter="url(#filter14_f_2421_2299)">
        <path fill-rule="evenodd" clip-rule="evenodd"
            d="M1234.68 161.942V2450.85C1234.68 2525.61 1174.05 2586.26 1099.23 2586.26H161.461C86.6417 2586.26 26.0117 2525.61 26.0117 2450.85V161.942C26.0117 87.1894 86.6417 26.5352 161.461 26.5352H1099.23C1174.05 26.5352 1234.68 87.1894 1234.68 161.942Z"
            fill="#3B3B3B" />
    </g>
    <g filter="url(#filter15_f_2421_2299)">
        <path fill-rule="evenodd" clip-rule="evenodd"
            d="M1232.91 161.944V2450.85C1232.91 2524.6 1173.1 2584.48 1099.23 2584.48H161.459C87.6435 2584.48 27.7773 2524.6 27.7773 2450.85V161.944C27.7773 88.1207 87.6435 28.3184 161.459 28.3184H1099.23C1173.1 28.3184 1232.91 88.1207 1232.91 161.944Z"
            fill="#252525" />
    </g>
    <g filter="url(#filter16_f_2421_2299)">
        <path fill-rule="evenodd" clip-rule="evenodd"
            d="M1232.29 161.944V2450.85C1232.29 2524.29 1172.71 2583.86 1099.23 2583.86H161.459C87.9773 2583.86 28.3984 2524.29 28.3984 2450.85V161.944C28.3984 88.5078 87.9773 28.9375 161.459 28.9375H1099.23C1172.71 28.9375 1232.29 88.5078 1232.29 161.944Z"
            fill="black" />
    </g>
    <g filter="url(#filter17_f_2421_2299)">
        <path fill-rule="evenodd" clip-rule="evenodd"
            d="M1230.05 161.943V2450.85C1230.05 2523.05 1171.48 2581.61 1099.24 2581.61H161.463C89.2241 2581.61 30.6484 2523.05 30.6484 2450.85V161.943C30.6484 89.7465 89.2241 31.1836 161.463 31.1836H1099.24C1171.48 31.1836 1230.05 89.7465 1230.05 161.943Z"
            fill="#252525" />
    </g>
    <g filter="url(#filter18_f_2421_2299)">
        <path fill-rule="evenodd" clip-rule="evenodd"
            d="M1229.43 161.943V2450.85C1229.43 2522.74 1171.14 2580.99 1099.23 2580.99H161.461C89.556 2580.99 31.2676 2522.74 31.2676 2450.85V161.943C31.2676 90.0562 89.556 31.8027 161.461 31.8027H1099.23C1171.14 31.8027 1229.43 90.0562 1229.43 161.943Z"
            fill="#2A2A2A" />
    </g>
    <g filter="url(#filter19_f_2421_2299)">
        <path fill-rule="evenodd" clip-rule="evenodd"
            d="M1227.61 161.943V2450.85C1227.61 2521.73 1170.14 2579.21 1099.23 2579.21H161.46C90.5588 2579.21 33.082 2521.73 33.082 2450.85V161.943C33.082 91.0629 90.5588 33.584 161.46 33.584H1099.23C1170.14 33.584 1227.61 91.0629 1227.61 161.943Z"
            fill="#353535" />
    </g>
    <g filter="url(#filter20_f_2421_2299)">
        <path fill-rule="evenodd" clip-rule="evenodd"
            d="M1227.09 161.943V2450.85C1227.09 2521.42 1169.85 2578.67 1099.23 2578.67H161.462C90.8467 2578.67 33.6094 2521.42 33.6094 2450.85V161.943C33.6094 91.373 90.8467 34.127 161.462 34.127H1099.23C1169.85 34.127 1227.09 91.373 1227.09 161.943Z"
            fill="#484848" />
    </g>
    <g filter="url(#filter21_f_2421_2299)">
        <path fill-rule="evenodd" clip-rule="evenodd"
            d="M1224.7 161.944V2450.85C1224.7 2520.11 1168.51 2576.27 1099.24 2576.27H161.463C92.1862 2576.27 36 2520.11 36 2450.85V161.944C36 92.6913 92.1862 36.5293 161.463 36.5293H1099.24C1168.51 36.5293 1224.7 92.6913 1224.7 161.944Z"
            fill="#383838" />
    </g>
    <g filter="url(#filter22_f_2421_2299)">
        <path fill-rule="evenodd" clip-rule="evenodd"
            d="M1222.36 161.942V2450.85C1222.36 2518.79 1167.27 2573.94 1099.24 2573.94H161.462C93.4272 2573.94 38.3398 2518.79 38.3398 2450.85V161.942C38.3398 94.0061 93.4272 38.8516 161.462 38.8516H1099.24C1167.27 38.8516 1222.36 94.0061 1222.36 161.942Z"
            fill="#2E2E2E" />
    </g>
    <g filter="url(#filter23_f_2421_2299)">
        <path fill-rule="evenodd" clip-rule="evenodd"
            d="M1221.83 161.945V2450.86C1221.83 2518.56 1166.98 2573.4 1099.23 2573.4H161.461C93.7124 2573.4 38.8633 2518.56 38.8633 2450.86V161.945C38.8633 94.2416 93.7124 39.3965 161.461 39.3965H1099.23C1166.98 39.3965 1221.83 94.2416 1221.83 161.945Z"
            fill="#212121" />
    </g>
    <g filter="url(#filter24_f_2421_2299)">
        <path fill-rule="evenodd" clip-rule="evenodd"
            d="M1219.54 161.943V2450.85C1219.54 2517.24 1165.69 2571.08 1099.23 2571.08H161.461C95.0022 2571.08 41.1562 2517.24 41.1562 2450.85V161.943C41.1562 95.5562 95.0022 41.7185 161.461 41.7185H1099.23C1165.69 41.7185 1219.54 95.5562 1219.54 161.943Z"
            fill="#252525" />
    </g>
    <g filter="url(#filter25_f_2421_2299)">
        <path fill-rule="evenodd" clip-rule="evenodd"
            d="M1218.92 161.943V2450.85C1218.92 2516.93 1165.36 2570.46 1099.24 2570.46H161.462C95.338 2570.46 41.7793 2516.93 41.7793 2450.85V161.943C41.7793 95.8661 95.338 42.3379 161.462 42.3379H1099.24C1165.36 42.3379 1218.92 95.8661 1218.92 161.943Z"
            fill="#252527" />
    </g>
    <g filter="url(#filter26_f_2421_2299)">
        <path fill-rule="evenodd" clip-rule="evenodd"
            d="M1206.59 161.944V2450.85C1206.59 2510.11 1158.53 2558.14 1099.23 2558.14H161.46C102.169 2558.14 54.1035 2510.11 54.1035 2450.85V161.944C54.1035 102.684 102.169 54.6562 161.46 54.6562H1099.23C1158.53 54.6562 1206.59 102.684 1206.59 161.944Z"
            fill="#1B1B1B" />
    </g>
    <g filter="url(#filter27_f_2421_2299)">
        <path fill-rule="evenodd" clip-rule="evenodd"
            d="M1206.02 161.943V2450.85C1206.02 2509.8 1158.24 2557.6 1099.24 2557.6H161.463C102.458 2557.6 54.6797 2509.8 54.6797 2450.85V161.943C54.6797 102.993 102.458 55.1973 161.463 55.1973H1099.24C1158.24 55.1973 1206.02 102.993 1206.02 161.943Z"
            fill="#070707" />
    </g>
    <g filter="url(#filter28_f_2421_2299)">
        <path fill-rule="evenodd" clip-rule="evenodd"
            d="M1203.77 161.942V2450.85C1203.77 2508.56 1157 2555.35 1099.23 2555.35H161.461C103.698 2555.35 56.9238 2508.56 56.9238 2450.85V161.942C56.9238 104.232 103.698 57.4434 161.461 57.4434H1099.23C1157 57.4434 1203.77 104.232 1203.77 161.942Z"
            fill="black" />
    </g>
    <mask id="mask0_2421_2299" style="mask-type:alpha" maskUnits="userSpaceOnUse" x="57" y="58" width="1147"
        height="2497">
        <path fill-rule="evenodd" clip-rule="evenodd"
            d="M1203.15 161.943V2450.85C1203.15 2508.18 1156.62 2554.66 1099.24 2554.66H161.463C104.082 2554.66 57.5469 2508.18 57.5469 2450.85V161.943C57.5469 104.619 104.082 58.1406 161.463 58.1406H1099.24C1156.62 58.1406 1203.15 104.619 1203.15 161.943Z"
            fill="white" />
    </mask>
    <g mask="url(#mask0_2421_2299)">
        <rect x="-35.3086" y="0.519775" width="1245.14" height="2612.72" fill="url(#pattern0_2421_2299)" />
    </g>
    <path
        d="M630.362 135.436C646.764 135.436 660.06 122.14 660.06 105.739C660.06 89.3369 646.764 76.0408 630.362 76.0408C613.96 76.0408 600.664 89.3369 600.664 105.739C600.664 122.14 613.96 135.436 630.362 135.436Z"
        fill="#252527" />
    <circle cx="630.344" cy="105.737" r="28.7562" fill="black" stroke="black" stroke-width="0.683878" />
    <g filter="url(#filter29_f_2421_2299)">
        <circle cx="626.808" cy="101.237" r="3.96792" fill="white" />
    </g>
    <g filter="url(#filter30_f_2421_2299)">
        <circle cx="626.747" cy="101.522" r="1.93403" fill="white" />
    </g>
    <g filter="url(#filter31_f_2421_2299)">
        <ellipse cx="634.259" cy="109.128" rx="2.41754" ry="3.08133" transform="rotate(22.5431 634.259 109.128)"
            fill="#8F85AC" />
    </g>
    <g filter="url(#filter32_f_2421_2299)">
        <path
            d="M631.208 107.949C628.298 112.181 627.13 112.027 626.579 111.255C626.248 111.917 625.851 112.446 625.587 113.239C625.256 114.231 626.579 115.223 627.571 115.554C628.563 115.884 633.192 114.231 634.184 113.57C635.176 112.908 637.821 110.924 638.152 109.602C638.483 108.279 638.813 101.997 638.813 101.335C638.813 100.674 639.144 100.013 638.813 99.0207C638.549 98.2271 637.16 98.4696 636.499 98.69C636.278 99.2411 635.705 100.542 635.176 101.335C634.515 102.327 634.845 102.658 631.208 107.949Z"
            fill="#494067" />
    </g>
    <g style="mix-blend-mode:darken" opacity="0.5">
        <g opacity="0.3" filter="url(#filter33_f_2421_2299)">
            <path
                d="M154.217 2602.94C69.1114 2602.94 6.33611 2532.59 18.4093 2446.46C34.7067 2527.13 53.4166 2571.4 154.217 2602.94Z"
                fill="white" />
        </g>
        <g opacity="0.4" filter="url(#filter34_f_2421_2299)">
            <path
                d="M162.754 2607.52C69.0158 2613.06 5.35382 2535.02 9.9591 2435.63C35.3723 2541.67 54.9797 2581.34 162.754 2607.52Z"
                fill="black" />
        </g>
    </g>
    <g style="mix-blend-mode:darken" opacity="0.5">
        <g opacity="0.3" filter="url(#filter35_f_2421_2299)">
            <path
                d="M1234.53 2430.72C1253.17 2514.11 1198.56 2591.06 1112.25 2598.12C1187.05 2564.45 1225.96 2536.41 1234.53 2430.72Z"
                fill="white" />
        </g>
        <g opacity="0.4" filter="url(#filter36_f_2421_2299)">
            <path
                d="M1247.21 2415.7C1265.87 2517.4 1201.25 2601.46 1109.66 2605.81C1218.63 2563.76 1235.97 2527.15 1247.21 2415.7Z"
                fill="black" />
        </g>
    </g>
    <g style="mix-blend-mode:darken" opacity="0.5">
        <g opacity="0.5" filter="url(#filter37_f_2421_2299)">
            <path
                d="M138.392 12.0215C66.0422 25.4169 21.4747 67.3503 18.002 144.811C39.4193 69.6799 42.3125 50.4604 138.392 12.0215Z"
                fill="white" />
        </g>
        <g opacity="0.4" filter="url(#filter38_f_2421_2299)">
            <path
                d="M155.904 7.94255C60.4052 10.2722 -2.82534 89.4797 8.75059 175.094C27.7391 60.3593 53.9814 38.8102 155.904 7.94255Z"
                fill="#464646" />
        </g>
    </g>
    <g style="mix-blend-mode:darken" opacity="0.5">
        <g opacity="0.5" filter="url(#filter39_f_2421_2299)">
            <path
                d="M1112.52 12.5664C1185.45 14.896 1254.32 79.5434 1245.64 157.004C1230.38 84.2026 1209.76 42.8516 1112.52 12.5664Z"
                fill="white" />
        </g>
        <g opacity="0.4" filter="url(#filter40_f_2421_2299)">
            <path
                d="M1099.19 7.32401C1194.69 9.65364 1261.25 90.6084 1249.67 176.222C1225.36 70.2241 1198.16 40.5213 1099.19 7.32401Z"
                fill="#464646" />
        </g>
    </g>
    <g filter="url(#filter41_i_2421_2299)">
        <mask id="mask1_2421_2299" style="mask-type:alpha" maskUnits="userSpaceOnUse" x="1256" y="934" width="13"
            height="183">
            <path
                d="M1256.24 934.598H1262.43C1265.75 934.598 1268.43 937.284 1268.43 940.598V1110.69C1268.43 1114 1265.75 1116.69 1262.43 1116.69H1256.24V934.598Z"
                fill="#D9D9D9" />
        </mask>
        <g mask="url(#mask1_2421_2299)">
            <path d="M1268.43 934.598H1267.32V1116.69H1268.43V934.598Z" fill="#898989" />
            <path d="M1267.33 934.598H1266.22V1116.69H1267.33V934.598Z" fill="#919191" />
            <path d="M1266.21 934.598H1265.11V1116.69H1266.21V934.598Z" fill="#C9C9C9" />
            <path d="M1265.11 934.598H1264V1116.69H1265.11V934.598Z" fill="#ACACAC" />
            <path d="M1264 934.598H1262.89V1116.69H1264V934.598Z" fill="#C9C9C9" />
            <path d="M1262.89 934.598H1261.78V1116.69H1262.89V934.598Z" fill="#ADADAD" />
            <path d="M1261.78 934.598H1260.67V1116.69H1261.78V934.598Z" fill="#ADADAD" />
            <path d="M1260.67 934.598H1259.56V1116.69H1260.67V934.598Z" fill="#ADADAD" />
            <path d="M1259.62 934.598H1258.45V1116.69H1259.62V934.598Z" fill="#ACACAC" />
            <path d="M1258.45 934.598H1257.35V1116.69H1258.45V934.598Z" fill="#BFBFBF" />
            <path d="M1257.35 934.598H1256.24V1116.69H1257.35V934.598Z" fill="#A6A6A6" />
        </g>
    </g>
    <g filter="url(#filter42_i_2421_2299)">
        <mask id="mask2_2421_2299" style="mask-type:alpha" maskUnits="userSpaceOnUse" x="1256" y="447" width="13"
            height="334">
            <path
                d="M1256.24 447.49H1262.43C1265.75 447.49 1268.43 450.177 1268.43 453.49V774.662C1268.43 777.976 1265.75 780.662 1262.43 780.662H1256.24V447.49Z"
                fill="#D9D9D9" />
        </mask>
        <g mask="url(#mask2_2421_2299)">
            <path d="M1268.43 447.49H1267.32V780.662H1268.43V447.49Z" fill="#898989" />
            <path d="M1267.33 447.49H1266.22V780.662H1267.33V447.49Z" fill="#919191" />
            <path d="M1266.21 447.49H1265.11V780.662H1266.21V447.49Z" fill="#C9C9C9" />
            <path d="M1265.1 447.49H1264V780.662H1265.1V447.49Z" fill="#ACACAC" />
            <path d="M1264 447.49H1262.89V780.662H1264V447.49Z" fill="#C9C9C9" />
            <path d="M1262.89 447.49H1261.78V780.662H1262.89V447.49Z" fill="#ADADAD" />
            <path d="M1261.78 447.49H1260.67V780.662H1261.78V447.49Z" fill="#ADADAD" />
            <path d="M1260.67 447.49H1259.52V780.662H1260.67V447.49Z" fill="#ADADAD" />
            <path d="M1259.56 447.49H1258.45V780.662H1259.56V447.49Z" fill="#ACACAC" />
            <path d="M1258.45 447.49H1257.35V780.662H1258.45V447.49Z" fill="#BFBFBF" />
            <path d="M1257.35 447.49H1256.24V780.662H1257.35V447.49Z" fill="#A6A6A6" />
        </g>
    </g>
    <defs>
        <filter id="filter0_f_2421_2299" x="4.80469" y="5.32422" width="1251.09" height="2602.15"
            filterUnits="userSpaceOnUse" color-interpolation-filters="sRGB">
            <feFlood flood-opacity="0" result="BackgroundImageFix" />
            <feBlend mode="normal" in="SourceGraphic" in2="BackgroundImageFix" result="shape" />
            <feGaussianBlur stdDeviation="1" result="effect1_foregroundBlur_2421_2299" />
        </filter>
        <filter id="filter1_f_2421_2299" x="4.75977" y="5.32422" width="1251.18" height="2602.15"
            filterUnits="userSpaceOnUse" color-interpolation-filters="sRGB">
            <feFlood flood-opacity="0" result="BackgroundImageFix" />
            <feBlend mode="normal" in="SourceGraphic" in2="BackgroundImageFix" result="shape" />
            <feGaussianBlur stdDeviation="1" result="effect1_foregroundBlur_2421_2299" />
        </filter>
        <filter id="filter2_f_2421_2299" x="5.37891" y="5.94336" width="1249.94" height="2600.91"
            filterUnits="userSpaceOnUse" color-interpolation-filters="sRGB">
            <feFlood flood-opacity="0" result="BackgroundImageFix" />
            <feBlend mode="normal" in="SourceGraphic" in2="BackgroundImageFix" result="shape" />
            <feGaussianBlur stdDeviation="1" result="effect1_foregroundBlur_2421_2299" />
        </filter>
        <filter id="filter3_f_2421_2299" x="7.72266" y="8.26758" width="1245.26" height="2596.26"
            filterUnits="userSpaceOnUse" color-interpolation-filters="sRGB">
            <feFlood flood-opacity="0" result="BackgroundImageFix" />
            <feBlend mode="normal" in="SourceGraphic" in2="BackgroundImageFix" result="shape" />
            <feGaussianBlur stdDeviation="1" result="effect1_foregroundBlur_2421_2299" />
        </filter>
        <filter id="filter4_f_2421_2299" x="7.72266" y="8.26758" width="1245.26" height="2596.26"
            filterUnits="userSpaceOnUse" color-interpolation-filters="sRGB">
            <feFlood flood-opacity="0" result="BackgroundImageFix" />
            <feBlend mode="normal" in="SourceGraphic" in2="BackgroundImageFix" result="shape" />
            <feGaussianBlur stdDeviation="1" result="effect1_foregroundBlur_2421_2299" />
        </filter>
        <filter id="filter5_f_2421_2299" x="10.0117" y="10.5117" width="1240.67" height="2591.77"
            filterUnits="userSpaceOnUse" color-interpolation-filters="sRGB">
            <feFlood flood-opacity="0" result="BackgroundImageFix" />
            <feBlend mode="normal" in="SourceGraphic" in2="BackgroundImageFix" result="shape" />
            <feGaussianBlur stdDeviation="1" result="effect1_foregroundBlur_2421_2299" />
        </filter>
        <filter id="filter6_f_2421_2299" x="10.5859" y="11.1328" width="1239.52" height="2590.53"
            filterUnits="userSpaceOnUse" color-interpolation-filters="sRGB">
            <feFlood flood-opacity="0" result="BackgroundImageFix" />
            <feBlend mode="normal" in="SourceGraphic" in2="BackgroundImageFix" result="shape" />
            <feGaussianBlur stdDeviation="1" result="effect1_foregroundBlur_2421_2299" />
        </filter>
        <filter id="filter7_f_2421_2299" x="12.9258" y="13.4551" width="1234.84" height="2585.88"
            filterUnits="userSpaceOnUse" color-interpolation-filters="sRGB">
            <feFlood flood-opacity="0" result="BackgroundImageFix" />
            <feBlend mode="normal" in="SourceGraphic" in2="BackgroundImageFix" result="shape" />
            <feGaussianBlur stdDeviation="1" result="effect1_foregroundBlur_2421_2299" />
        </filter>
        <filter id="filter8_f_2421_2299" x="12.9258" y="13.4551" width="1234.84" height="2585.88"
            filterUnits="userSpaceOnUse" color-interpolation-filters="sRGB">
            <feFlood flood-opacity="0" result="BackgroundImageFix" />
            <feBlend mode="normal" in="SourceGraphic" in2="BackgroundImageFix" result="shape" />
            <feGaussianBlur stdDeviation="1" result="effect1_foregroundBlur_2421_2299" />
        </filter>
        <filter id="filter9_f_2421_2299" x="18.2305" y="18.7266" width="1224.23" height="2575.27"
            filterUnits="userSpaceOnUse" color-interpolation-filters="sRGB">
            <feFlood flood-opacity="0" result="BackgroundImageFix" />
            <feBlend mode="normal" in="SourceGraphic" in2="BackgroundImageFix" result="shape" />
            <feGaussianBlur stdDeviation="1" result="effect1_foregroundBlur_2421_2299" />
        </filter>
        <filter id="filter10_f_2421_2299" x="18.8516" y="19.4219" width="1222.99" height="2573.95"
            filterUnits="userSpaceOnUse" color-interpolation-filters="sRGB">
            <feFlood flood-opacity="0" result="BackgroundImageFix" />
            <feBlend mode="normal" in="SourceGraphic" in2="BackgroundImageFix" result="shape" />
            <feGaussianBlur stdDeviation="1" result="effect1_foregroundBlur_2421_2299" />
        </filter>
        <filter id="filter11_f_2421_2299" x="20.5234" y="21.0488" width="1219.65" height="2570.7"
            filterUnits="userSpaceOnUse" color-interpolation-filters="sRGB">
            <feFlood flood-opacity="0" result="BackgroundImageFix" />
            <feBlend mode="normal" in="SourceGraphic" in2="BackgroundImageFix" result="shape" />
            <feGaussianBlur stdDeviation="1" result="effect1_foregroundBlur_2421_2299" />
        </filter>
        <filter id="filter12_f_2421_2299" x="21.1445" y="21.668" width="1218.45" height="2569.46"
            filterUnits="userSpaceOnUse" color-interpolation-filters="sRGB">
            <feFlood flood-opacity="0" result="BackgroundImageFix" />
            <feBlend mode="normal" in="SourceGraphic" in2="BackgroundImageFix" result="shape" />
            <feGaussianBlur stdDeviation="1" result="effect1_foregroundBlur_2421_2299" />
        </filter>
        <filter id="filter13_f_2421_2299" x="23.4375" y="23.9941" width="1213.82" height="2564.81"
            filterUnits="userSpaceOnUse" color-interpolation-filters="sRGB">
            <feFlood flood-opacity="0" result="BackgroundImageFix" />
            <feBlend mode="normal" in="SourceGraphic" in2="BackgroundImageFix" result="shape" />
            <feGaussianBlur stdDeviation="1" result="effect1_foregroundBlur_2421_2299" />
        </filter>
        <filter id="filter14_f_2421_2299" x="24.0117" y="24.5352" width="1212.67" height="2563.72"
            filterUnits="userSpaceOnUse" color-interpolation-filters="sRGB">
            <feFlood flood-opacity="0" result="BackgroundImageFix" />
            <feBlend mode="normal" in="SourceGraphic" in2="BackgroundImageFix" result="shape" />
            <feGaussianBlur stdDeviation="1" result="effect1_foregroundBlur_2421_2299" />
        </filter>
        <filter id="filter15_f_2421_2299" x="25.7773" y="26.3184" width="1209.14" height="2560.16"
            filterUnits="userSpaceOnUse" color-interpolation-filters="sRGB">
            <feFlood flood-opacity="0" result="BackgroundImageFix" />
            <feBlend mode="normal" in="SourceGraphic" in2="BackgroundImageFix" result="shape" />
            <feGaussianBlur stdDeviation="1" result="effect1_foregroundBlur_2421_2299" />
        </filter>
        <filter id="filter16_f_2421_2299" x="26.3984" y="26.9375" width="1207.89" height="2558.92"
            filterUnits="userSpaceOnUse" color-interpolation-filters="sRGB">
            <feFlood flood-opacity="0" result="BackgroundImageFix" />
            <feBlend mode="normal" in="SourceGraphic" in2="BackgroundImageFix" result="shape" />
            <feGaussianBlur stdDeviation="1" result="effect1_foregroundBlur_2421_2299" />
        </filter>
        <filter id="filter17_f_2421_2299" x="28.6484" y="29.1836" width="1203.4" height="2554.43"
            filterUnits="userSpaceOnUse" color-interpolation-filters="sRGB">
            <feFlood flood-opacity="0" result="BackgroundImageFix" />
            <feBlend mode="normal" in="SourceGraphic" in2="BackgroundImageFix" result="shape" />
            <feGaussianBlur stdDeviation="1" result="effect1_foregroundBlur_2421_2299" />
        </filter>
        <filter id="filter18_f_2421_2299" x="29.2676" y="29.8027" width="1202.16" height="2553.19"
            filterUnits="userSpaceOnUse" color-interpolation-filters="sRGB">
            <feFlood flood-opacity="0" result="BackgroundImageFix" />
            <feBlend mode="normal" in="SourceGraphic" in2="BackgroundImageFix" result="shape" />
            <feGaussianBlur stdDeviation="1" result="effect1_foregroundBlur_2421_2299" />
        </filter>
        <filter id="filter19_f_2421_2299" x="31.082" y="31.584" width="1198.53" height="2549.63"
            filterUnits="userSpaceOnUse" color-interpolation-filters="sRGB">
            <feFlood flood-opacity="0" result="BackgroundImageFix" />
            <feBlend mode="normal" in="SourceGraphic" in2="BackgroundImageFix" result="shape" />
            <feGaussianBlur stdDeviation="1" result="effect1_foregroundBlur_2421_2299" />
        </filter>
        <filter id="filter20_f_2421_2299" x="31.6094" y="32.127" width="1197.48" height="2548.54"
            filterUnits="userSpaceOnUse" color-interpolation-filters="sRGB">
            <feFlood flood-opacity="0" result="BackgroundImageFix" />
            <feBlend mode="normal" in="SourceGraphic" in2="BackgroundImageFix" result="shape" />
            <feGaussianBlur stdDeviation="1" result="effect1_foregroundBlur_2421_2299" />
        </filter>
        <filter id="filter21_f_2421_2299" x="34" y="34.5293" width="1192.7" height="2543.74"
            filterUnits="userSpaceOnUse" color-interpolation-filters="sRGB">
            <feFlood flood-opacity="0" result="BackgroundImageFix" />
            <feBlend mode="normal" in="SourceGraphic" in2="BackgroundImageFix" result="shape" />
            <feGaussianBlur stdDeviation="1" result="effect1_foregroundBlur_2421_2299" />
        </filter>
        <filter id="filter22_f_2421_2299" x="36.3398" y="36.8516" width="1188.02" height="2539.09"
            filterUnits="userSpaceOnUse" color-interpolation-filters="sRGB">
            <feFlood flood-opacity="0" result="BackgroundImageFix" />
            <feBlend mode="normal" in="SourceGraphic" in2="BackgroundImageFix" result="shape" />
            <feGaussianBlur stdDeviation="1" result="effect1_foregroundBlur_2421_2299" />
        </filter>
        <filter id="filter23_f_2421_2299" x="36.8633" y="37.3965" width="1186.97" height="2538.01"
            filterUnits="userSpaceOnUse" color-interpolation-filters="sRGB">
            <feFlood flood-opacity="0" result="BackgroundImageFix" />
            <feBlend mode="normal" in="SourceGraphic" in2="BackgroundImageFix" result="shape" />
            <feGaussianBlur stdDeviation="1" result="effect1_foregroundBlur_2421_2299" />
        </filter>
        <filter id="filter24_f_2421_2299" x="39.1562" y="39.7185" width="1182.38" height="2533.36"
            filterUnits="userSpaceOnUse" color-interpolation-filters="sRGB">
            <feFlood flood-opacity="0" result="BackgroundImageFix" />
            <feBlend mode="normal" in="SourceGraphic" in2="BackgroundImageFix" result="shape" />
            <feGaussianBlur stdDeviation="1" result="effect1_foregroundBlur_2421_2299" />
        </filter>
        <filter id="filter25_f_2421_2299" x="39.7793" y="40.3379" width="1181.14" height="2532.12"
            filterUnits="userSpaceOnUse" color-interpolation-filters="sRGB">
            <feFlood flood-opacity="0" result="BackgroundImageFix" />
            <feBlend mode="normal" in="SourceGraphic" in2="BackgroundImageFix" result="shape" />
            <feGaussianBlur stdDeviation="1" result="effect1_foregroundBlur_2421_2299" />
        </filter>
        <filter id="filter26_f_2421_2299" x="52.1035" y="52.6562" width="1156.49" height="2507.49"
            filterUnits="userSpaceOnUse" color-interpolation-filters="sRGB">
            <feFlood flood-opacity="0" result="BackgroundImageFix" />
            <feBlend mode="normal" in="SourceGraphic" in2="BackgroundImageFix" result="shape" />
            <feGaussianBlur stdDeviation="1" result="effect1_foregroundBlur_2421_2299" />
        </filter>
        <filter id="filter27_f_2421_2299" x="52.6797" y="53.1973" width="1155.34" height="2506.4"
            filterUnits="userSpaceOnUse" color-interpolation-filters="sRGB">
            <feFlood flood-opacity="0" result="BackgroundImageFix" />
            <feBlend mode="normal" in="SourceGraphic" in2="BackgroundImageFix" result="shape" />
            <feGaussianBlur stdDeviation="1" result="effect1_foregroundBlur_2421_2299" />
        </filter>
        <filter id="filter28_f_2421_2299" x="54.9238" y="55.4434" width="1150.85" height="2501.91"
            filterUnits="userSpaceOnUse" color-interpolation-filters="sRGB">
            <feFlood flood-opacity="0" result="BackgroundImageFix" />
            <feBlend mode="normal" in="SourceGraphic" in2="BackgroundImageFix" result="shape" />
            <feGaussianBlur stdDeviation="1" result="effect1_foregroundBlur_2421_2299" />
        </filter>
        <pattern id="pattern0_2421_2299" patternContentUnits="objectBoundingBox" width="1" height="1">
            <use xlink:href="#image0_2421_2299" transform="matrix(0.000568182 0 0 0.000270777 0 0.0197769)" />
        </pattern>
        <filter id="filter29_f_2421_2299" x="617.369" y="91.7983" width="18.8776" height="18.8778"
            filterUnits="userSpaceOnUse" color-interpolation-filters="sRGB">
            <feFlood flood-opacity="0" result="BackgroundImageFix" />
            <feBlend mode="normal" in="SourceGraphic" in2="BackgroundImageFix" result="shape" />
            <feGaussianBlur stdDeviation="2.73551" result="effect1_foregroundBlur_2421_2299" />
        </filter>
        <filter id="filter30_f_2421_2299" x="622.812" y="97.5876" width="7.86719" height="7.86816"
            filterUnits="userSpaceOnUse" color-interpolation-filters="sRGB">
            <feFlood flood-opacity="0" result="BackgroundImageFix" />
            <feBlend mode="normal" in="SourceGraphic" in2="BackgroundImageFix" result="shape" />
            <feGaussianBlur stdDeviation="1" result="effect1_foregroundBlur_2421_2299" />
        </filter>
        <filter id="filter31_f_2421_2299" x="628.732" y="103.134" width="11.0527" height="11.9878"
            filterUnits="userSpaceOnUse" color-interpolation-filters="sRGB">
            <feFlood flood-opacity="0" result="BackgroundImageFix" />
            <feBlend mode="normal" in="SourceGraphic" in2="BackgroundImageFix" result="shape" />
            <feGaussianBlur stdDeviation="1.5" result="effect1_foregroundBlur_2421_2299" />
        </filter>
        <filter id="filter32_f_2421_2299" x="618.012" y="90.9517" width="28.4711" height="32.1679"
            filterUnits="userSpaceOnUse" color-interpolation-filters="sRGB">
            <feFlood flood-opacity="0" result="BackgroundImageFix" />
            <feBlend mode="normal" in="SourceGraphic" in2="BackgroundImageFix" result="shape" />
            <feGaussianBlur stdDeviation="3.76133" result="effect1_foregroundBlur_2421_2299" />
        </filter>
        <filter id="filter33_f_2421_2299" x="9.91992" y="2439.46" width="151.297" height="170.477"
            filterUnits="userSpaceOnUse" color-interpolation-filters="sRGB">
            <feFlood flood-opacity="0" result="BackgroundImageFix" />
            <feBlend mode="normal" in="SourceGraphic" in2="BackgroundImageFix" result="shape" />
            <feGaussianBlur stdDeviation="3.5" result="effect1_foregroundBlur_2421_2299" />
        </filter>
        <filter id="filter34_f_2421_2299" x="2.72461" y="2428.63" width="167.029" height="186.17"
            filterUnits="userSpaceOnUse" color-interpolation-filters="sRGB">
            <feFlood flood-opacity="0" result="BackgroundImageFix" />
            <feBlend mode="normal" in="SourceGraphic" in2="BackgroundImageFix" result="shape" />
            <feGaussianBlur stdDeviation="3.5" result="effect1_foregroundBlur_2421_2299" />
        </filter>
        <filter id="filter35_f_2421_2299" x="1105.25" y="2423.72" width="139.922" height="181.401"
            filterUnits="userSpaceOnUse" color-interpolation-filters="sRGB">
            <feFlood flood-opacity="0" result="BackgroundImageFix" />
            <feBlend mode="normal" in="SourceGraphic" in2="BackgroundImageFix" result="shape" />
            <feGaussianBlur stdDeviation="3.5" result="effect1_foregroundBlur_2421_2299" />
        </filter>
        <filter id="filter36_f_2421_2299" x="1102.66" y="2408.7" width="154.766" height="204.108"
            filterUnits="userSpaceOnUse" color-interpolation-filters="sRGB">
            <feFlood flood-opacity="0" result="BackgroundImageFix" />
            <feBlend mode="normal" in="SourceGraphic" in2="BackgroundImageFix" result="shape" />
            <feGaussianBlur stdDeviation="3.5" result="effect1_foregroundBlur_2421_2299" />
        </filter>
        <filter id="filter37_f_2421_2299" x="11.002" y="5.02148" width="134.391" height="146.789"
            filterUnits="userSpaceOnUse" color-interpolation-filters="sRGB">
            <feFlood flood-opacity="0" result="BackgroundImageFix" />
            <feBlend mode="normal" in="SourceGraphic" in2="BackgroundImageFix" result="shape" />
            <feGaussianBlur stdDeviation="3.5" result="effect1_foregroundBlur_2421_2299" />
        </filter>
        <filter id="filter38_f_2421_2299" x="0.386719" y="0.942627" width="162.518" height="181.151"
            filterUnits="userSpaceOnUse" color-interpolation-filters="sRGB">
            <feFlood flood-opacity="0" result="BackgroundImageFix" />
            <feBlend mode="normal" in="SourceGraphic" in2="BackgroundImageFix" result="shape" />
            <feGaussianBlur stdDeviation="3.5" result="effect1_foregroundBlur_2421_2299" />
        </filter>
        <filter id="filter39_f_2421_2299" x="1105.52" y="5.56641" width="147.863" height="158.437"
            filterUnits="userSpaceOnUse" color-interpolation-filters="sRGB">
            <feFlood flood-opacity="0" result="BackgroundImageFix" />
            <feBlend mode="normal" in="SourceGraphic" in2="BackgroundImageFix" result="shape" />
            <feGaussianBlur stdDeviation="3.5" result="effect1_foregroundBlur_2421_2299" />
        </filter>
        <filter id="filter40_f_2421_2299" x="1092.19" y="0.323975" width="165.791" height="182.898"
            filterUnits="userSpaceOnUse" color-interpolation-filters="sRGB">
            <feFlood flood-opacity="0" result="BackgroundImageFix" />
            <feBlend mode="normal" in="SourceGraphic" in2="BackgroundImageFix" result="shape" />
            <feGaussianBlur stdDeviation="3.5" result="effect1_foregroundBlur_2421_2299" />
        </filter>
        <filter id="filter41_i_2421_2299" x="1256.24" y="930.598" width="16.1953" height="186.093"
            filterUnits="userSpaceOnUse" color-interpolation-filters="sRGB">
            <feFlood flood-opacity="0" result="BackgroundImageFix" />
            <feBlend mode="normal" in="SourceGraphic" in2="BackgroundImageFix" result="shape" />
            <feColorMatrix in="SourceAlpha" type="matrix" values="0 0 0 0 0 0 0 0 0 0 0 0 0 0 0 0 0 0 127 0"
                result="hardAlpha" />
            <feOffset dx="4" dy="-4" />
            <feGaussianBlur stdDeviation="2" />
            <feComposite in2="hardAlpha" operator="arithmetic" k2="-1" k3="1" />
            <feColorMatrix type="matrix" values="0 0 0 0 0 0 0 0 0 0 0 0 0 0 0 0 0 0 0.35 0" />
            <feBlend mode="normal" in2="shape" result="effect1_innerShadow_2421_2299" />
        </filter>
        <filter id="filter42_i_2421_2299" x="1256.24" y="443.49" width="16.1953" height="337.172"
            filterUnits="userSpaceOnUse" color-interpolation-filters="sRGB">
            <feFlood flood-opacity="0" result="BackgroundImageFix" />
            <feBlend mode="normal" in="SourceGraphic" in2="BackgroundImageFix" result="shape" />
            <feColorMatrix in="SourceAlpha" type="matrix" values="0 0 0 0 0 0 0 0 0 0 0 0 0 0 0 0 0 0 127 0"
                result="hardAlpha" />
            <feOffset dx="4" dy="-4" />
            <feGaussianBlur stdDeviation="2" />
            <feComposite in2="hardAlpha" operator="arithmetic" k2="-1" k3="1" />
            <feColorMatrix type="matrix" values="0 0 0 0 0 0 0 0 0 0 0 0 0 0 0 0 0 0 0.35 0" />
            <feBlend mode="normal" in2="shape" result="effect1_innerShadow_2421_2299" />
        </filter>
        <image width="" height="" xlink:href="data:" />
    </defs>
</svg>