<svg xmlns="http://www.w3.org/2000/svg" xmlns:xlink="http://www.w3.org/1999/xlink" viewBox="0 0 281.73 173.37"><defs><style>.cls-1,.cls-2{fill:#36a9e1;}.cls-1{opacity:0.28;}.cls-3{fill:url(#Dégradé_sans_nom_22);}.cls-4{fill:url(#Dégradé_sans_nom_32);}.cls-5{fill:#fcea10;}</style><linearGradient id="Dégradé_sans_nom_22" x1="78.75" y1="72.59" x2="129.51" y2="91.06" gradientUnits="userSpaceOnUse"><stop offset="0" stop-color="#36a9e1"/><stop offset="0.09" stop-color="#34a2d8"/><stop offset="0.25" stop-color="#2e90bf" stop-opacity="0.99"/><stop offset="0.44" stop-color="#247297" stop-opacity="0.97"/><stop offset="0.66" stop-color="#174860" stop-opacity="0.94"/><stop offset="0.91" stop-color="#06131a" stop-opacity="0.91"/><stop offset="1" stop-opacity="0.9"/></linearGradient><linearGradient id="Dégradé_sans_nom_32" x1="129.41" y1="178.8" x2="129.41" y2="27.31" gradientUnits="userSpaceOnUse"><stop offset="0" stop-color="#36a9e1"/><stop offset="0.34" stop-color="#36a7df"/><stop offset="0.48" stop-color="#34a2d8"/><stop offset="0.58" stop-color="#3199cb"/><stop offset="0.67" stop-color="#2d8cba"/><stop offset="0.74" stop-color="#277aa3"/><stop offset="0.81" stop-color="#206586"/><stop offset="0.87" stop-color="#184c65"/><stop offset="0.93" stop-color="#0f2e3d"/><stop offset="0.98" stop-color="#040e12"/><stop offset="1"/></linearGradient></defs><g id="Calque_2" data-name="Calque 2"><g id="Calque_1-2" data-name="Calque 1"><polygon class="cls-1" points="79.8 100.8 50.8 29.77 0 29.77 59.2 169.78 79.8 169.78 79.8 100.8"/><polygon class="cls-2" points="98.13 104.3 122.2 169.78 70 169.78 3.4 12.28 60.55 12.28 98.13 104.3"/><path class="cls-3" d="M188.8,12.27l-66.6,157.5H70L3.41,12.27H60.55l37.58,92,38.47-92Z"/><polygon class="cls-4" points="188.81 12.28 122.2 169.78 70 169.78 97.76 104.14 136.6 12.28 188.81 12.28"/><circle class="cls-5" cx="263.45" cy="18.27" r="18.27"/><path class="cls-2" d="M261.52,40.69a22.49,22.49,0,0,1-19.75-28.42H136.6L119.67,52.32H225.08v59.85q0,9.69-4.39,14.63t-12.71,5a23.32,23.32,0,0,1-12.6-3.82A52,52,0,0,1,183,116.23L154.43,150a61.23,61.23,0,0,0,24.64,17.43,89.42,89.42,0,0,0,33.41,6q32,0,48.49-16.08T277.5,109V35.84A22.38,22.38,0,0,1,261.52,40.69Z"/></g></g></svg>