<?xml version="1.0" encoding="UTF-8"?>
<svg id="Calque_2" data-name="Calque 2" xmlns="http://www.w3.org/2000/svg" viewBox="0 0 3066.8 2196.4">
  <g id="Camada_1" data-name="Camada 1">
    <g>
      <path d="m3066.8,2194.94c-3.55.16-7.1.46-10.64.46-694.71.02-1389.42.02-2084.13-.02-8.75,0-17.51-.56-26.26-.86-5.68-2.49-9.54-6.87-13.19-11.77-17.44-23.33-37.23-44.79-54.67-68.12-3.07-4.1-6.67-8.32-3.02-14,.97-1.12,2.17-1.86,3.55-2.35,16.14-1.49,32.31-.38,48.46-.7,3.56-.07,7.12-.12,10.67-.51,11.96,2.22,23.92,2.36,35.89,0,25.82,1.15,51.65.19,77.48.5,4.89.06,9.79-.06,14.67.23.98.04,1.96.18,2.91.41,4.88,2.96,9.95,1.84,15.03.67,3.97-.37,7.77-1.99,11.84-1.59,4.38.36,8.76.26,13.14.26,158.27,0,316.54,0,474.81,0,4.93,0,9.86.18,14.77-.5,14.43,2.32,28.87,2.51,43.31,0,4.36.6,8.74.5,13.12.5,228.87,0,457.75,0,686.62.07,7.12,0,14.16-1.08,21.27-.93,20.98,1.64,42.01.79,63.02.82,11.71.01,23.35-2.36,35.12-1.52,3.79.27,7.75-.17,10.6,3.17,5.13.72,10.25,2.06,15.38,2.07,192.33.18,384.65.24,576.98.31,1.09,0,2.18-.17,3.27-.27v93.7Z" style="fill: #fafef1;"/>
      <path d="m1568.41,251.55c2.7-5.84,6.64-10.94,11.67-14.67,39.47-29.25,81.05-53.21,132.49-52.59,31.62.38,57.95,15.13,83.89,30.52,75.48,44.78,121.52,109.84,133.41,197.5,4.49,33.12-1.77,64.88-15.94,95.11-1.34,2.85-4.68,6.36-2.23,8.92,2.59,2.71,5.74-1.36,8.65-2.29,26.51-8.54,48.49-23.42,68.96-42.73,30.26-28.55,69.99-37.22,109.87-43.45,23.01-3.59,45.92-2.97,68.16,4.71,23.37,8.07,32.02,25.75,24.51,49.32-3.27,10.25-8.76,19.45-13.81,28.85-1.09,2.03-3.36,4.29-1.18,6.65,1.77,1.92,4.1.37,6.17-.18,14.27-3.75,28.26-8.75,43.3-8.91,26.76-.28,46.9,11.37,58.5,35.12,21.2,43.38,24.21,87.14-1.42,130.24-3.87,6.51-4.4,10.25,4.97,11.12,19.81,1.84,38.66,7.29,56.37,16.61,23.11,12.15,29.68,27.31,22.26,52.21-26.79,89.81-108.21,127.83-197.89,92.66-7.15-2.8-13.42-8.24-21.73-7.91,2.67,7.12,5.47,14.19,7.98,21.37,3.6,10.34,7.87,20.55,10.2,31.18,2.22,10.14,6.16,12.32,16.39,9.92,51.22-12.02,101.99-13.19,151.15,9.48,32.25,14.88,61.77,34.16,90.16,55.35,68.58,51.17,125.33,112.58,164.52,189.26,4.86,9.51,12.75,15.39,22.59,19.24,28.95,11.32,54.57,27.82,76.41,50.02,2.24,2.28,5.29,4.15,5.1,8.02-3.42,3.95-8.04,3.19-12.27,2.63-48.75-6.47-97.55-12.66-146.34-18.8-58.29-7.34-116.55-14.88-174.83-22.26-47.98-6.07-96-11.81-143.87-18.77-16.21-2.36-32.51-4.24-48.7-6.75-2.25-.29-4.48-.69-6.76-.67-21.19-3.24-42.53-5.48-63.63-9.37-1.97-.32-3.81-1.28-5.87-1.17-2.74-.12-5.38-.78-8.06-1.28-2.02-.52-4.08,0-6.11-.17-22.26-2.55-44.37-6.07-66.55-9.15-3.34-.46-6.46-1.08-9.03-3.38-.63-.65-1.07-1.43-1.32-2.3.14-7.1,6.05-8.6,10.92-10.59,15.21-6.22,30.66-12.1,44.77-20.47,28.18-16.71,57.39-32.19,80.15-56.57,12.72-13.63,20.25-29.78,21.21-48.59.93-18.21-8.13-31.25-22.27-41.42-20.53-14.76-43.92-17.82-68.15-15.28-32.19,3.36-62.56,12.67-90.45,29.69-28.76,17.55-51.4,41.24-71.29,68.03-11.78,15.86-20.69,33.5-31.94,49.68-4.25,6.12-8.97,11.73-14.37,16.8-3.24,3.04-6.9,6.57-11.49,3.64-4.76-3.03-2.78-7.7-1-11.8,7.94-18.34,15.35-36.86,20.11-56.34,3.63-14.89,5.99-30.01,7.78-45.2,2.3-19.58-12.85-32.48-32.24-27.74-8.19,2-14.76,6.95-21.57,11.54-23.13,15.6-43.64,33.77-58.78,57.57-21.07,33.12-27.3,68.59-17.69,106.73.33,1.32.79,2.62,1.1,3.95.91,3.84,1.62,7.77-1.85,10.66-3.42,2.84-7.35,1.89-10.86.14-11.54-5.74-23.22-10.93-35.87-13.9-27.83-6.52-54.98-3.41-81.5,5.88-16.75,5.87-33.44,12.04-48.73,21.46-8.08,4.97-13.92,12.27-21.03,18.25-1.58.88-3.29.96-5.04.84-7.37-1.39-11.59-7.38-16.82-11.81-2.03-1.72-3.94-3.57-6.21-5.01-2.94-2.94-5.08-6.13-3.4-10.56,2.58-3.88,6.7-4.11,10.79-4.77,26.86-4.38,44.45-21.31,50.12-47.23,1.73-7.9-2.13-15.04-1.55-22.65,5.91-15.26,13.88-29.51,21.65-43.85,4.18-7.05,10.08-12.61,15.9-18.24,5.76-7.49,8.28-15.91,7.45-25.37-.29-3.27,0-6.57,1.1-9.73.16-.81.46-1.56.89-2.27,7.6-5.65,15.55-10.85,19.95-19.87,3.64-7.48,5.94-14.64.26-22.14-1.15-1.52-1.25-3.57-1.73-5.43-1.23-6.59-1.35-13.17.11-19.74,2.95-7.87,6.65-15.43,9.96-23.15.3-2.75,2.7-4.08,4.09-6.09,3.95-4.59,8.85-8.17,13.2-12.34,8.13-2.88,11.1-9.07,11.33-17.22.12-4.28-.76-8.89,2.83-12.44,2.98-2.24,6.37-1.53,9.5-.85,21.53,4.73,39.86-2.1,56.37-15.45,27.57-22.31,43.55-51.45,45.49-86.53,1.31-23.68-10.11-42.48-41.63-44.2-6.71-.37-13.72,1.6-20.09-2.16-.69-.57-1.21-1.27-1.6-2.07-1.11-4-2.55-7.75-6.23-10.23-2.63-1.77-3.88-4.5-4.47-7.56-.44-15.02.21-30.08,1.29-44.98,1.21-16.7.88-33.34,1.09-50,.35-26.8,1.29-53.68-7.27-79.69-.52-1.58-.46-3.24-.16-4.86.7-3.57,2.59-6.6,4.81-9.38,10.47-13.13,13.37-27.9,9.12-43.95-4.76-17.97-6.74-36.43-10.27-54.57-3.51-18.06-10.83-35.45-25.38-48.4-3.46-3.08-7.28-6.09-9.02-10.5-5.24-13.27-16.8-20.36-27.53-28.06-5.43-3.9-9.6-8.6-14.03-13.44-8.09-8.82-16.79-16.94-27.38-23.35-12.04-7.29-25.64-10.67-37.64-17.66-3.18-1.85-6.04-3.97-4.9-8.38Z" style="fill: #f23c2f;"/>
      <path d="m388.83,1201.68c-1.23-5.21-3.94-9.65-7.52-13.5-31.18-33.56-37.1-72.54-24.63-115.34,11.62-39.9,29.24-76.09,63.2-102.35,8.25-6.38,5.55-14.14-.19-20.85-19.21-22.43-33.64-47.13-38.89-76.69-5.4-30.39-1.66-58.77,16.18-84.71,12.42-18.05,29.45-23.44,50.19-19.26,10.2,2.05,20.31,4.5,30.48,6.7,2.61.56,5.82,2.19,7.75-.2,2.03-2.51-.64-5.13-1.82-7.44-17.25-33.72-24.41-68.98-16.31-106.54.97-4.5,1.66-9.69,4.34-13.1,20.34-25.88,19.37-55.69,17.96-86.21-2.36-50.92,8.46-97.69,49.15-132.74,15.71-13.54,35.09-18.84,55.57-19.49,8.54-.27,11.43-2.65,9.98-11.91-6.43-41.07-3.6-80.36,28.66-111.25,26.12-25.02,58.59-39.07,92.77-49.25,45.38-13.53,91.7-14.2,138.37-9.26,9.79,1.04,19.62,1.74,29.45,2.43,2.32.16,5.24,1.14,6.78-1.46,1.56-2.64-.83-4.63-2.09-6.6-15.37-24-24.53-49.76-25.26-78.68-1.13-44.93,21.38-75.39,58.42-96.43C985.11,17.02,1042.15-2.26,1105.04.21c71.09,2.79,132.1,31.36,186.75,74.51,42.41,33.49,72.21,76.11,84.33,129.7,1.19,5.27,1.26,10.8,1.85,16.21-2.25,4.28-6.38,4.79-10.51,5.07-25.92,1.74-51.68,4.92-77.15,10.01-47.12,9.41-88.99,29.44-124.88,61.84-10.88,9.82-21.3,19.59-27.1,33.35-.44,1.05-.5,2.11-.59,3.19.24,7.82.6,15.63.94,23.45-5.49,5.62-12.96,5.51-19.85,6.17-15.66,1.5-25.93,9.21-30.66,24.24-3.37,10.69-6.29,21.54-10.41,31.97-2.44,6.2-2.56,11.19,4.94,13.79,2.06.71,3.68,2.34,4.78,4.35,1.44,2.62.92,5.32.38,8.03-11.92,22.93-10.31,48.82-15.76,73.17-8.44,37.74-18.99,74.79-33.05,110.75-9.57,24.5-11.39,49.33-7.05,74.92.37,2.17.83,4.29.5,6.49.98,7.19,3.65,13.92,5.64,20.84,1.18,4.1,2.71,8.18.74,12.46-5.31,4.32-9.11.19-13.03-2.48-13.62-9.31-27.68-17.4-44.24-20.61-11.95-2.31-21.6.21-28.92,10.26-1.6,2.2-3.55,4.17-6.11,5.37-16.64,9.22-34.63,8.9-52.74,7.26-21.13-1.92-42.09-1.33-62.56,4.59-14.64,4.23-25.37,13.61-32.06,27.41-8,16.52-16.1,32.89-29.9,45.71-9.69,9.01-20.1,16.88-31.92,22.79-24.22,12.12-47.87,25.29-71.31,38.82-25.2,14.54-40.61,36.81-48.99,64.26-1.67,5.48-3.26,11.01-4.65,16.58-5.91,21.31-4,42.05,4.4,62.36,1.23,2.98,2.6,6.08,1.58,9.5-2.11,4.7-6.69,5.25-10.88,6.2-21.64,4.88-42.76,11.01-62.53,21.54-27.93,14.88-53,33.6-76.2,54.93-26.01,23.92-48.01,51.54-71.29,77.96-2.29,2.6-4.32,5.92-8.73,4.49Z" style="fill: #f23c2f;"/>
      <path d="m2081.75,1152.87c2.83.44,5.67.88,8.5,1.32,1,.15,2,.25,3.01.31,22.56,3.19,45.13,6.38,67.69,9.56,1,.15,2,.24,3.01.3,104.81,13.66,209.61,27.37,314.42,40.96,66.8,8.66,133.62,17.15,200.44,25.68,4.34.55,8.72.82,13.08,1.22,23.15,6.15,27.4,12.31,28.09,40.62,1.21,3.5.88,6.82-.31,10.38-19.95,59.66-40.34,119.17-60.49,178.76-20.42,60.37-40.86,120.72-61.4,181.05-20.18,59.28-40.38,118.56-60.92,177.72-8.43,24.28-16.39,48.73-25.33,72.83-1.24,3.35-2.25,6.78-5.27,9.06-6.08,2.82-9.88-1.25-13.6-4.81-15.12-14.47-27.52-31.21-39.17-48.46-36.32-53.77-71.76-108.13-108.12-161.88-38.35-56.7-77.58-112.8-121.05-165.74-25.35-30.87-51.49-61.07-78.31-90.71-37.32-41.24-75.9-81.23-115.66-120.08-35.06-34.25-71.64-66.86-109.87-97.54-17.16-13.77-32.43-28.81-39.43-50.25-1.75-5.36-8.35-4.2-9.74-9.16.57-12.74,14.95-25.06,29.97-26.11,17.03-1.19,33.74,1.76,50.5,3.74,11.9,1.41,23.78,3.07,35.68,4.45,3.59.42,6.99,1.08,10.02,3.12.69.67,1.36,1.37,2.01,2.08,26.42,3.75,52.84,7.5,79.26,11.26,1,.15,2,.24,3.01.31Z" style="fill: #fafef1;"/>
      <path d="m388.83,1201.68c15.08-17.28,30.04-34.68,45.28-51.83,21.3-23.97,44.61-45.75,70.52-64.75,33.65-24.68,70.82-40.92,112-47.9,2.77-2.67,6.24-2.89,9.86-3.1,20.61-1.19,40.68,3.17,60.89,5.99,7.74,1.08,14.56,4.57,19.09,11.42,1.23,2.27,1.75,4.91.65,7.11-3.44,6.92.31,11.19,4.79,15.71,9.44,9.53,20.63,17.02,30.07,26.58,16.71,16.92,29.09,36.81,40.37,57.48,19.93,36.52,35.16,75.19,51.39,113.39.53,1.26.99,2.55,1.57,3.79.57,1.23,1.52,3.54,1.93,3.32,1.45-.79.26-2.38.13-3.62-2.3-22.77-3.33-45.71-9-68.06-1.09-4.3-2.25-9.6,4.68-10.93,3.21.99,4.63,3.57,5.65,6.43,3.88,10.95,7.57,21.96,11.03,33.05.98,3.14,1.35,6.37-.56,9.4-2.23,2.8-2.48,5.99-1.86,9.34,3.66,19.91,4.23,40.16,6.53,60.22,3.05,26.59,5.99,53.22,7.64,79.91,1.75,28.31,4.38,56.69,1.12,85.15-1.49,13-.71,26.17-1.71,39.3-2.33,30.5-5.15,60.94-8.11,91.38-1.82,18.75-3.04,37.57-5.47,56.26-.54,4.14-1.19,8.15-4.91,10.8-6.94,1.3-7.47-4.32-8.51-8.53-4.29-17.53-7.1-35.35-10.07-53.14-4.73-28.3-7.83-56.81-11.03-85.3-1.68-14.91-2.97-29.9-3.78-44.9-.22-4.12-.62-8.16-1.52-12.19-.85-3.82-1.4-7.97-6.26-8.46-4.69-.47-6.69,3.29-8.28,6.78-3.87,8.46-7.94,16.83-11.56,25.39-1.28,3.03-2.65,6.01-4.23,8.89-2.35,4.28-5.32,8.38-10.88,6.31-5.15-1.91-4.58-6.67-3.99-11.22,2.3-17.61,5.46-35.08,7.61-52.72,2.99-24.4,5.72-48.81,8.16-73.26,2.76-27.76,5.62-55.51,4.48-83.42-1.13-27.72-8.49-53.8-21.66-78.36-15.97-29.8-36.32-56.6-55.98-83.9-1.11-1.55-1.89-3.33-2.98-4.91.95,1.55,1.91,3.09,2.64,4.75,11.86,26.92,29.39,50.61,43.39,76.29,15.52,28.45,24.66,58.83,25.44,91.56,1.82,76.03-11.42,149.65-34.89,221.68-2.37,7.28-5.28,14.38-7.91,21.58-1.67,4.58-4.19,8.93-9.85,8.13-5.71-.81-7.02-5.67-6.95-10.58.13-8.96-1.64-18.04,1.41-26.86,7.51-5.43,9.4-13.9,11.43-22.06,5.72-23.03,4.73-46.22-.37-69.13-12.41-55.8-25.45-111.45-44.56-165.46-1.27-3.6-2.73-7.2-2.78-11.1-.02-1.96.27-4.04,2.19-4.98,2.41-1.18,4.12.53,5.69,2.08,1.6,1.59,2.31,3.7,3.2,5.7,10.04,22.79,19.1,46,28.99,68.86,1.9,4.4,3.02,10.41,9.06,10.43,6.66.02,8.35-6.12,10.43-11.16,2.21-5.37,3.28-10.95,3.14-16.82-.36-15.9-2.1-31.59-5.99-47.05-8.03-31.9-27.33-55.52-53.78-74.04-17.94-12.56-35.62-25.42-50.93-41.29-9.48-9.84-21.93-7.61-33.39-5.89-18.16,2.73-32.45,12.96-43.64,27.13-16.6,21.02-24.12,45.55-27.46,71.88-2.39,18.8-.06,37.74-3.01,56.48-1.52,9.67-4.32,12.81-14.29,12.81-5.52,0-10.86-1.36-16.23-2.25-17.16-2.82-31.36,2.17-39.05,17.28-6.65,13.08-15.98,24.89-19.52,39.57-5.59,23.2-3.19,46.28,1.29,69.14,6.01,30.66,17.68,59.15,35.36,85.08,5.19,7.61,2.33,10.2-5.89,13.48-11.55,4.61-16.86-1.96-23.45-8.52-13.75-13.68-29.39-24.46-48.52-29.29-4.46-1.12-9.24-2.81-13.04,1.53-3.79,4.33-1.5,8.79.17,13.11,6.94,17.96,19.61,32.09,31.46,46.76,4.64,5.74,9.86,11.01,13.84,17.27,1.51,2.38,2.81,5.12.87,7.64-2.25,2.92-5.55,2.13-8.28.79-7.62-3.75-14.62-8.58-21.76-13.15-11.31-7.23-22.81-14.1-35.39-18.95-7.79-3.01-15.77-4.08-24.12-2.73-5.97.97-10.85,3.65-14.84,8.05-7.32,8.07-6.44,13.23,2.66,19.19,36.17,23.71,72.99,46.39,109.5,69.57,12.23,7.77,23.71,16.69,32.75,28.28,2.2,2.82,4.84,6.02,1.95,9.51-2.52,3.04-6.08,1.59-9.14.3-37.11-15.7-76.3-23.18-115.84-29.25-17.6-2.7-34.89-2.46-51.18,6.09-5.63,2.95-10.69,6.61-15.05,11.25-6.43,6.86-5.75,10.34,2.95,13.67,20.2,7.73,40.88,14.09,61.33,21.12,24.1,8.28,48.32,15.94,73.85,18.55,26.6,2.72,52.38-.87,77.49-9.79,3.49-1.24,5.78-3.72,7.58-7.08,5.87-10.94,11.9-13.23,23.64-9.08,13.72,4.84,26.89,11.07,39.17,18.78,12.67,7.96,26.35,11.8,40.97,13.25,5.48-.52,10.59-2.08,15.78-4.04,25.24-9.55,49.49,3.13,49.61,32.13.07,16.93-3.76,32.49-9.94,47.8-1.59,3.94-2.87,8.44-7.53,10.27-6.32-.59-5.37-5.15-4.67-9.14,1.71-9.67,4.6-19.08,5.76-28.89.71-6.03,1.03-12.01.5-17.98-1.2-13.45-11.72-22.9-25.11-23.44-10.5-.42-19.81,3.29-29.09,7.44-13.22,5.91-26.35,12.04-39.77,17.49-4.05,1.65-9.47,4.09-11.83-.6-2.62-5.22,3.68-7.03,7.03-9.22,5.02-3.29,10.8-5.31,15.93-8.45,5.15-3.15,5.07-5.22-.55-7.65-11.62-5.03-23.92-7.59-36.48-8.84-43.73-4.34-84.25,8.4-124.31,23.48-2.8,1.06-5.41,2.67-8.48,2.95-3.48-.24-6.88-.87-10.43.46-52.87,19.7-104.82,41.3-152.01,72.82-14.12,9.44-27.52,19.81-39.66,31.73-.64.63-1.44,1.11-2.1,1.73.8-.76,1.76-1.31,2.58-2.03,21.5-18.79,44.95-34.88,69.57-49.21,31.03-18.06,63.39-33.35,97.4-45,4.64-1.59,9.28-3.49,14.38-2.01,5.3,1.58,11.77,1.34,13.42,8.61-.34,6.42-5.59,8.23-10.14,10.58-22.08,11.42-44.52,22.29-65.21,36.12-52.01,34.77-88.71,81.07-105.26,142.19-4.05,14.97-6.21,30.26-7.4,45.67-1.18,15.33-6.37,23.39-17.61,26.42-4.22,1.14-8.11,1.05-11.5-2.08-16.91-27.98-24.68-58.86-27.58-90.95-4.72-52.12-.73-104.36-.97-156.55,2.06-15.91,3.11-31.92,6.13-47.76,5.04-26.37,14.94-50.91,26.92-74.61,13.91-27.52,23.37-56.5,31.77-86.04,11.31-39.78,26.09-78.36,42.86-116.17,11.09-25.01,22.7-49.78,33.56-74.9,2.27-5.26,4.34-10.72,9.62-13.94,24.86-42.86,49.71-85.72,74.57-128.58,4.8-8.28,9.63-16.55,14.44-24.83Z" style="fill: #28526f;"/>
      <path d="m1085.82,446.88c-.29-3.08-.58-6.16-.87-9.24.91-3.82,4.12-4.9,7.27-5.73,26.52-7.03,53.22-13.31,79.96-19.46,1.89-.43,3.77-.49,5.64.03,5.43,1.77,7.26,7.17,10.85,10.81,2.63,2.66,5.21,5.79,7.84,0,5.44-11.96,13.11-22.82,17.99-35.01,5.43-13.56,3.35-30.39-11.85-37.27-1.55-.78-2.75-1.91-3.6-3.43-2.3-5.85.89-10.45,3.23-15.39,2.69-5.68,7.72-9.9,9.62-16.01,18.72-22.18,41.19-39.89,65.86-54.93,24.99-15.23,51.6-26.06,80.6-31.31,25.56-4.62,50.62-2.77,75.55,3.21,8.01,1.92,15.84,4.19,24.19,3.88,3.58-.13,7.03.96,10.32,2.41,23.85,5.15,48.71,2.85,72.28,9.7,9.19,2.67,17.98,6.97,27.7,2.43,4.22,7.04,12.24,9.17,18.75,10.72,11.08,2.63,20.83,8.61,29.52,14.09,8.96,5.66,19.58,12.1,24.94,22.8,2.97,5.93,8.31,9.03,13.4,12.82,10.76,8.03,23.94,13.99,27.66,28.94.48,1.95,2.22,3.83,3.84,5.21,22.23,18.87,31.5,43.51,33.67,71.97.86,11.33,4.26,22.55,7.22,33.62,5.8,21.7,1.67,40.6-14.59,56.48-16.41-.83-32.93,1.17-49.21-3.04-34.3-8.86-69.02-15.98-103.38-24.62-1.61-.4-3.06-1.13-4.6-1.67-15.9-2.44-31.3-7.66-47.42-8.91-25.55-1.97-50.72-1.41-74.62,9.85-12.82,6.03-16.62,16.9-16.71,29.47-.04,5.6.64,11.42,1.62,17.08,3.74,21.7-4.57,39.66-23.46,50.68-3.07,1.79-6.21,3.54-9.55,4.74-26.79,9.58-51.77,21.99-70.51,44.34-7.89,3.11-14.46-1.05-20.95-4.28-12.27-6.09-20-16.44-26.35-28.35-13.47-25.25-32.01-45.61-58.53-57.75-14.96-6.85-30.74-9.61-47.13-9.01-1.27.05-3.38-.45-3.52,1.03-.11,1.17,2.08,1.41,3.39,1.75,26.46,6.9,48.82,20.62,66.85,41.07,18.04,20.46,29.74,44.42,37.67,70.38,10.9,35.69,12.89,71.93,7.34,108.71-6.38,26.48-17.85,50.19-37.72,69.35-11.54,11.13-24.79,19.57-39.86,24.97-6.76,2.42-13.1,5.13-17.38,11.24-2.15.96-4.32,1.03-6.52.22-9.07-5.29-19.44-4.19-29.24-5.89-10.73.06-20.01-4.27-28.73-9.88-3.68-2.37-6.8-5.64-4.96-10.84,4.19-4.09,8.69-1.81,13.04-.49,18.37,5.59,37.03,7.5,55.84,3.07,30.82-7.26,51.47-26.49,63.14-55.6,2.33-5.81,4.27-11.81,6.05-17.84,11.65-54.09,4.21-105.82-20.33-155.04-13.37-26.82-33.94-46.59-62.44-57.33-1.54-.58-3.11-1.03-4.65-1.6-4.82-1.79-6.78.28-6.46,4.97.21,2.97,1.28,5.89.52,8.93,2.67,15.46,9.35,29.46,15.83,43.53,6.62,14.36,13.2,28.73,19.03,43.44,7.34,18.53,7.78,37.69,5.86,57.13-2.67,9.8-6.64,19.05-12.49,27.35-2.42,3.44-5.24,7.6-10.61,3.93-1.66-2.56-1.31-5.39-.41-7.94,11.46-32.49,4.56-63.14-9.89-92.7-11.09-22.69-21.38-45.59-26-70.56-2.33-12.6-4.54-25.29-4.11-38.22.11-3.27-.11-6.62,2.16-9.4,9.69-3.47,12.29-11.21,12.78-20.55.35-6.82,1.99-13.56,3.78-20.09,2.59-9.48,3.13-18.78.99-28.3.75-5.68,5.92-4.9,9.47-6,2.78-.86,5.91-.77,8.74-1.83.9-.34,1.76-.78,2.75-.83-.83.07-1.57.41-2.35.65-7.68,2.33-16.18,2.24-22.75,7.83-1.77.34-3.56-.05-5.33.26-14.95,1.57-29.9,3.17-44.91,3.78-3.7.15-7.78.79-10.76-2.57Z" style="fill: #20173a;"/>
      <path d="m177.52,2016.01c19.13-.98,25.03-6.84,26.65-25.98,7.58-89.47,53.17-154.39,129.44-199.15,19.55-11.47,39.78-21.78,59.7-32.63,1.37-3.34,4.13-4.89,7.38-5.98,22.05-7.38,43.87-15.4,65.85-22.99,4.5-1.55,11-4.84,13.32.55,2.65,6.17-4.75,8.07-9.07,10.3-21.14,10.94-42.94,20.64-63.43,32.82-25.01,14.87-49.03,31.01-65.82,55.65-3.86,3.08-6.83,7.07-10.54,10.31-1.65,1.45-3.25,3.76-5.31,3.65-7.95-.46-15.6-1.78-23.58,1.74-3.43,1.51-5.22-4.56-1.59-9.26,4.19-5.42,9.51-9.83,14.26-14.77,3-3.12,6.3-5.96,9.02-9.36-3.91,1.86-7.36,4.49-10.88,6.94-54.92,38.36-87.06,91.19-98.79,156.71-2.1,11.74-3.55,23.5-2.11,35.77,2.66,22.81,21.13,36.73,46.06,32.45,32.12-5.5,59.12-20.91,82.5-42.97,14.12-13.33,27.88-27.09,39.75-42.56,1-1.3,2.24-2.4,3.44-3.53,6.47-6.13,13.12-7.86,19.35-4.82,7.46,3.64,9.1,10.35,9.18,17.87.23,21.71,4.41,42.38,16.81,60.68,11.95,17.63,29.46,25.44,50.03,27.46,31.92,3.13,57.19-11.38,80.49-30.76,4.83-4.01,9.69-8,14.31-12.29,10.77-10.01,19.95-7.85,25.08,5.88,4.14,11.05,7.94,22.24,16.03,31.18,12.85,14.19,29.75,20.15,48.08,22.32,24.31,2.87,48.43-1.74,72.65-2.59,23.23-.82,46.49-1.48,69.74.62,39.75,3.59,77.32-1.7,108.24-29.75,12.96-11.76,21.41-26.82,27.18-43.38,7.88-22.58,11.37-46.14,16.05-69.44,1.78-8.84,3.47-17.7,5.38-26.51.72-3.3,1.69-8.17,5.99-7.37,4,.74,4.07,5.57,3.53,9.08-2.12,13.77-4.05,27.58-5.34,41.43-1.52,16.34-2.14,32.78,1.12,49.04.53,2.67.31,7.38,3.87,7.08,2.98-.26,2.87-4.89,3.2-7.72,1.61-13.84,3.22-27.67,5.35-41.44,2.1-13.62,7.52-17.52,20.24-12.99,21.49,7.65,43.36,13.16,66.12,15.35,11.61,1.12,22.96-.85,34.34-1.86,22.03-1.96,44.06-3.97,66.1-5.8,7.89-.65,15.69-2.41,23.7-1.76,3.88.31,7.67.54,10.63,3.52,4.97,10.02,2.93,21.05,4.48,31.56.31,2.11-.34,4.29-.32,6.45.47,15.97-2.49,31.7-3.26,47.59-.12,2.59-1.78,4.46-3.49,6.22-2.71,2.59-5.95,3.76-9.68,3.71-1.36-.02-2.73.15-4.1.12-39.66-1.04-79.27,1.5-118.9,2.1-24.03.37-48.08.91-72.12,1.34-9.3.17-11.22,2.38-11.49,12-.4,13.94,2.41,17.97,15.1,19.6,18.14,2.33,36.34,4.26,54.6,5.44,2.36-.1,4.73,0,7.09-.08,11.91-.1,23.68,1.92,35.57,2.27,4.2,2.46,8.32,1.21,12.44-.27,27.04-2.01,54.03,2.71,80.97.97,24.57-1.58,49.07-1.38,73.62-.9,5.37,2.67,10.74,2.47,16.1-.06,65.79-2.87,131.62-1.95,197.44-2.05,5.46,0,10.93.18,16.38-.52,24.67,2.97,49.39,2.08,74.11.91,3.79-.87,7.64-.37,11.46-.37,245.15-.04,490.3.02,735.45-.14,14.55,0,28.95,1.83,43.45,1.98,2.76.03,5.49.39,7.63,2.48,3.19,4.39,3.26,8.61-.7,12.61-25.64,3.17-51.4,1.46-77.1,1.48-209.7.17-419.4.09-629.11.05-5.19,0-10.39-.28-15.58-.43-14.24-.6-28.48-.68-42.71.05-38.85.03-77.7.09-116.55.1-126.42.04-252.84.06-379.26.08-3.01,0-6.01-.15-9.02-.23-8.22-1.49-16.4,1.42-24.61.24-31.83-.02-63.66-.03-95.49-.05-12.04-1-24.08-.82-36.12-.09-20.32.23-40.64.46-60.96.69-1.34.41-2.61,1.13-4.06,1.14-7.8-2.04-15.11,1.57-22.71,1.97-5.76.3-11.51.24-17.26.24-193.09,0-386.19,0-579.28,0-5.75,0-11.51.16-17.22-.41-3.26-.3-5.08-2.5-7-4.92-9.1-11.43-18.37-22.74-28.99-32.81-3.98-3.77-4.74-8.99-7.42-13.3-5.02-12.5-10.03-24.99-15.05-37.49Z" style="fill: #20173a;"/>
      <path d="m232.29,2100.36c55.61.29,111.21.79,166.82.84,149.31.14,298.62.09,447.93.1,1.64,0,3.28-.14,4.92-.22,6.43-1.71,12.8-.04,19.19.3,1.36.28,2.71.6,3.81,1.53,8.41,16.8,22.18,29.52,33.52,44.1,12.36,15.89,24.85,31.68,37.28,47.51-57.49.57-114.98,1.6-172.48,1.64-252.77.18-505.55.08-758.32.08-3.83,0-7.67.08-11.5.13-1.25.15-2.21-.41-3.08-1.23,0,0-.39-.29-.39-.29.06-27.93.1-55.86.21-83.79.01-3.48-.82-7.21,2.04-10.15,64.53-.02,129.07-.04,193.6-.11,1.33,0,2.65-.56,3.98-.87,10.87-3.85,21.69-3.66,32.46.42Z" style="fill: #d9ebe5;"/>
      <path d="m2363.02,2099.69c.06-3.78.12-7.55.17-11.33,7.2-6.57,16.42-3.91,24.72-5.15,6.37-.95,12.73,1.28,19.47.13,21.18-3.6,35.12-15.35,42.63-35.12,11.73-30.88,22.48-62.11,32.86-93.47,4.8-14.51,10.34-28.77,14.99-43.34,1.17-3.67,2.43-7.33,6.48-8.93,23.61-68.25,47.47-136.41,70.78-204.75,47.25-138.53,94.19-277.16,141.29-415.75,1.05-3.1,2.38-6.1,3.58-9.15,8.6,5.63,7.58,14.36,5.93,22.25-8.66,41.52-16.22,83.36-34.56,122.18-5.61,11.87-2.71,23.42,2.79,34.74,22.61,46.6,44.51,93.5,56.03,144.41,9.2,40.65,11.78,80.7-9.13,119.09-16.37,30.06-41.91,50.22-71.26,66.05-12.41,6.69-20.03,16.16-24.19,29.49-13.84,44.35-30.9,87.24-58.48,125.23-18.86,25.98-42.55,46.32-70.98,61.03-10.11,5.23-15.96,12.44-17.44,23.92-2.88,22.32-12.74,42.34-21.79,62.6-2.22,4.96-3.85,10.19-5.75,15.29-36.04,1.55-72.08,3.55-108.15.56Z" style="fill: #f23c2f;"/>
      <path d="m299.81,1355.09c-10.76,24.54-21.2,49.22-32.34,73.58-23.13,50.64-42.87,102.49-57.06,156.36-6.75,25.61-18.08,49.38-29.91,72.77-15.6,30.85-22.4,63.82-27.44,97.47-.68,4.53.45,9.83-4.11,13.23-4.65-58.94-9.52-117.87-13.85-176.83-2.14-29.17-6.65-58.27-3.95-87.67,6.59-71.91,47.76-115.21,114.11-137.42,17.69-5.92,35.99-9.46,54.55-11.49Z" style="fill: #5f322f;"/>
      <path d="m1468.43,239.43c-8.1,2.28-16.31,2.29-24.29-.07-59.92-17.72-115.04-5.97-167.13,26.35-23.46,14.55-43.66,32.86-63.23,52.02-4.35,4.79-10.52,4.3-16,4.89-18.27,1.95-36.18,5.13-53.18,12.38-3.1,1.32-6.21,2.24-9.32.01-.4-10.57,5.76-17.95,12.4-24.96,43.95-46.36,98.28-72.24,161.11-80.98,23.01-3.2,46.13-5.64,69.19-8.43,25.79.22,51.5,1.07,76.14,9.95,5.37,1.94,11.09,3.39,14.31,8.84Z" style="fill: #f4f2e5;"/>
      <path d="m232.29,2100.36c-10.84,1.27-21.65.5-32.46-.42-2.42-15.48-4.85-30.96-7.27-46.44,13.36,15.52,29.73,28.49,39.73,46.86Z" style="fill: #5f322f;"/>
      <path d="m1598.52,2100.85c14.23-2.25,28.47-2.24,42.71-.05-14.24.02-28.48.03-42.71.05Z" style="fill: #28526f;"/>
      <path d="m937.47,2100.9c12.05-2.18,24.09-2.24,36.12.09-12.04-.03-24.08-.06-36.12-.09Z" style="fill: #28526f;"/>
      <path d="m1069.08,2101.04c8.18-2.36,16.39-2.28,24.61-.24-3.88.43-7.76.85-11.64,1.28-4.37-.19-8.76.37-13.11-.35l-.25-.41.39-.28Z" style="fill: #28526f;"/>
      <path d="m1068.94,2101.72c4.37.12,8.74.24,13.11.35-4.41,1.54-8.79,1.61-13.11-.35Z" style="fill: #d9ebe5;"/>
      <path d="m874.97,2102.91c-1.03-.2-2.06-.4-3.09-.6-.22-1.25.06-1.93,1.49-1.31,1.05.19,2.1.39,3.15.58-.52.44-1.03.88-1.55,1.32Z" style="fill: #377e9f;"/>
      <path d="m1573.7,1095.26c10.62,34.11-12.18,68.2-49.23,73.64-4.03.59-8.06,1.27-12.08,1.92-1.39,1.93-3.37,2.87-5.66,2.71-13.85-.96-27.76-1.21-41.48-3.54-2.84-.87-4.18-3.24-5.66-5.56-1.69-2.63-4.36-3.14-7.21-2.62-3.2.59-4.4,3.01-4.66,5.93-.41,4.61-.4,9.24-1.07,13.84-1.96,16.57-5.65,32.84-8.09,49.32-5.13,34.69-7.21,69.41-4.77,104.56,3.27,47.12,13.77,92.37,30.76,136.28,11.79,30.48,26.97,59.21,44.06,87.03,17.51,28.49,39.08,54.1,57.41,81.99,20.98,31.93,38.29,65.72,50.29,102.08,1.59,4.83,3.95,9.8,1.13,15.05-3.96,3.62-8.28,2.12-12.27.42-26.59-11.32-53.16-22.72-79.72-34.11-3.81-1.63-7.35-3.75-8.34-8.32-1.67-5.68-.1-11.4.27-17.02,1-15.18,1.81-30.41,3.31-45.52,1.12-11.34.27-22.85,2.83-34.06.2-.85.13-1.75.13-2.63,0,1.09-.07,2.18-.21,3.26-1.78,13.74-1.65,27.64-3.18,41.39-2.01,18.07-1.22,36.41-5.14,54.29-1.27,2.76-3.69,4-6.45,4.43-15.53,2.4-28.24,11.04-41.31,18.76-9.12,5.39-18.22,10.81-27.63,15.7-7.27,1.81-14.75,2.96-21.39,6.8-15.55,3.9-31.42,6.16-47.11,9.33-3.22.65-6.52.49-9.45-1.43-3.76-2.94-4.06-7.27-3.47-11.26,3.57-23.97-6.93-42.92-19.18-62.47-44.64-71.18-82.49-145.76-107.36-226.37-9.52-30.85-19.25-62-21.13-94.23-1.24-21.32-6.81-41.97-6.85-63.28.12-2.24-.18-4.46-.24-6.69-2.05-23.02-3.96-46.03-5.17-69.11-.51-9.77-1.81-19.51-1.53-29.31.14-4.67-3.28-8.01-3.92-12.32-3.99-9.89-3.59-20.57-3.76-30.73-.37-21.85-1.45-43.68-2.34-65.49-1.35-33.25-1.24-66.59-4.48-99.75-.74-7.62,1.46-14.57,3.48-21.64,1.12-10.67-.15-21.33-1.03-31.88-1.64-19.7-1.15-39.34-.51-59.01.57-2.17,1.68-4.43,3.71-5.06,8-2.46,9.04-7.99,7.64-15.15-.58-2.95.56-5.87,1.76-8.63,3.39-4.13,8.55-4.67,13.13-6.17,13.88-4.54,26.93-10.47,38.36-19.79,16.55-13.49,27.23-31.02,35.6-50.27,1.91-4.39,2.75-9.65,8.16-11.66.87-.09,1.69.08,2.46.48,6.03,6.13,6.71,14.69,9.74,22.13,6.35,15.62,13.37,30.92,20.23,46.3,2.35,5.27,4.31,10.56,4.59,16.35.76,5.11,1.66,10.23-.1,15.32-.42,1.23-1.45,2.35,1.17,1.87,5.14-.94,8.29,2.19,10.51,6.13,4.38,7.76,10.74,13.68,17.51,19.17,6.1,4.95,10.13,10.67,8.9,18.91-.78,5.23,1.47,5.65,5.54,3.88,3.24-1.41,6.48-2.99,10.21-1.9.73.31,1.38.75,1.95,1.31-2.61,11.62,3.21,22.96,1.14,34.58-1.49,8.38.62,12.11,9,16.62,3.3,2.2,7.11,3.82,8.9,7.75,1.11,4.27-1.36,7.24-3.65,10.37-3.59,4.9-4.61,9.83.32,14.63,1.18,1.15,2.18,2.57,2.62,4.13,4.77,17.05,19.26,25.87,31.2,36.85,14.01,25.21,36.43,39.29,63.13,47.73,6.7,2.12,13.45,2.59,20.18.41,14.13-4.56,28.65-3.81,43.12-3.17,4.81.21,9.95,1.13,12.42,6.47Z" style="fill: #20173a;"/>
      <path d="m1998.01,1141.19c-24.64-3.12-49.3-6.05-73.9-9.4-25.49-3.47-40.5,1.93-49.85,18.69-.88,1.57-1.15,3.49-1.7,5.24.09.43.18.85.27,1.28,0,.89-.24,1.71-.7,2.47-7.22,11.51-10.17,24.72-14.26,37.38-31.61,97.72-64.14,195.14-96.44,292.64-2.41,7.26-4.64,14.59-7.09,21.84-.95,2.81-1.62,5.9-4.85,7.22-4.24,1.05-6.6-1.87-9-4.45-32.44-34.81-60.11-72.88-80.14-116.26-9.76-21.13-16.43-43.46-25.57-64.82-15.03-35.11-34.11-67.76-58.88-97.04-8.33-9.85-17.83-18.5-26.5-27.96-3.22-3.51-7.58-6.49-7.37-12.14,3.28-7.63,9.33-13.04,16.03-17.08,33.47-20.22,68.96-34.32,108.89-34.31,22.99,0,44.28,6.14,64.37,17.03,2.72,1.47,5.85,4.37,8.93,1.41,2.65-2.55.15-5.7-.61-8.46-14.01-50.84-.55-94.93,33.14-133.91,14.8-17.12,32.95-30.4,51.65-42.86,6.37-4.25,13.36-7.36,21.41-7.51,20.27-.39,32.44,12.44,30.34,32.58-3.74,35.94-13.04,70.37-28.44,103.11-1.21,2.57-4.44,5.63-1.13,7.95,3.18,2.22,5.2-1.77,7.29-3.66,15.33-13.87,23.92-32.49,34.83-49.48,29.81-46.41,67.15-84.4,120.12-103.72,30.35-11.07,61.98-17.59,94.22-10.9,23.12,4.8,44.25,15.52,52.94,39.53,9.64,26.62-.41,50.18-18.5,69.24-28.82,30.36-65.26,50.15-102.47,68.47-11.96,5.89-25.51,8.46-36.09,17.22-.31.22-.61.45-.92.67Z" style="fill: #ff711e;"/>
      <path d="m1384.9,919.18c-.41-.25-.84-.47-1.29-.65-5.14-1.93-6.06-6.65-7.12-11.12-1.85-7.78-5.56-13.99-12.89-17.89-3.86-2.05-6.84-5.35-9.51-8.83-4.01-5.23-8.44-9.87-14.66-12.61-5.71-2.51-6.9-9.77-12.56-12.45-2.57-16.58-12.71-30.12-18.29-45.49-4.95-13.63-10.05-27.2-15.08-40.79-1.49-2.07-2.5-4.35-1.92-6.91,5.36-23.62,5.45-47.7,6.42-71.7,4.07-9.11,3.69-19.17,6.02-28.64,2.64-10.71,9.45-12.79,16.83-4.62,21.43,23.73,42.01,48.14,57.39,76.46,15.37,28.31,30.04,57.02,49.3,83.07,7.16,9.68,12.58,20.51,15.29,32.42,2.15,9.46,8.18,15.76,16.06,20.77,3.66,2.33,7.52,4.58,9.26,8.97.52,1.59.61,3.29.05,4.8-5.61,15.26,1.34,26.59,11.23,37.21,3.43,3.68,8.59,5.99,9.74,11.6-.7,4.59-4.63,5.7-8,7.41-10.39,5.28-19.78,11.6-25.43,22.37-4.1,7.8-3.91,13.85,1.29,19.67,5.38,6.02,9.36,6.65,18.35,2.85,10.57-4.46,20.84-9.92,32.98-8.29,6.45.87,12.4,2.36,16.05,8.43,1.63,11.21,10.07,17.54,17.75,24.3,3.85,3.39,8.14,6.31,11.87,9.82,2.66,2.5,5.89,5.27,3.1,9.71-2.42,2.23-5.52,1.97-8.46,2.37-2.03.28-4.91-.1-4.85,3.04.04,2.29,2.39,2.66,4.22,3.15,11.82,3.17,23.89,5.34,35.66,8.68,4.23,1.2,9.52,1.03,11.61,6.36-6.2,14.71-13,29.1-21.61,42.58-14.46-4.34-29.55-6.03-43.82-1.81-32.6,9.65-56.79-5.83-80.16-24.52-7.97-6.38-13.66-14.91-17.71-24.39-5.7-10.25-12.46-19.81-19.13-29.42-6.46-9.31-9.88-19.38-8.36-30.77.31-2.32.19-4.31-1.42-6.07-3.04-1.92-7.42-1.84-8.95-6.01-4.9-6.05-4.35-13.58-2.14-19.56,4.25-11.5,3.39-21.09-5.04-30.02-.87-.92-1.21-2.42-2.06-3.5Z" style="fill: #a85431;"/>
      <path d="m1517.65,1179.38c6.65,5.31,13.31,10.63,19.96,15.94,9.45,6.33,11.93,16.67,14.51,26.57,5.97,22.89,6.72,46.7,11.7,69.79,3.41,17.18,3.58,34.7,5.15,52.07,2.51,27.74,4.23,55.54,6.9,83.27.05.55.06,1.11.23,1.62,1.62,5.04,1.12,11.76,7.72,13.38,6.25,1.53,7.82-4.72,10.88-8.28.36-.41.67-.87,1.07-1.25,4.08-3.83,7.34-9.9,14.19-7.77,6.42,2,7.21,8.29,8.49,13.93,3.8,16.78,1.41,33.3-3.39,49.3-4.04,13.48-3.04,24.81,6.36,35.89,8.44,9.94,8.27,22.16,5.44,34.36-1.36,5.88-4.36,11.21-5.54,17.17-1.85,9.37.25,13.42,9.39,15.82,11.11,2.9,22.48,4.79,33.32,8.73,3.86,1.4,7.74,2.71,11.3,4.85,11.45,6.87,15.15,15.77,11.46,28.51-2.6,9-7.58,16.98-11.59,25.36-5.68,11.86-4.1,14.52,8.79,14.94,4.56.15,9.41-.93,13.45,2.36,2.62,2.84,1.9,5.87.83,9.17-9.82,30.34-19.87,60.6-29.27,91.08-.89,2.9-1.69,5.84-4.93,7.1-10.18.11-17.77-5.83-25.67-11.04-7.73-15.41-11.68-32.27-18.4-48.09-16.69-39.36-37.26-76.51-61.97-111.42-11.83-16.71-22.9-33.94-34.17-51.03-1.97-2.99-3.49-6.23-2.54-10.04.32-20.23,3.26-40.24,5.08-60.34,1.77-19.56,3.76-39.12,5.82-58.66,2.11-20.08,4.33-40.16,6.27-60.26,3.84-39.68,2.56-79.09-6.92-118.05-5.17-21.25-10.93-42.35-15.82-63.67-.93-4.05-2.03-8.1,1.89-11.33Z" style="fill: #20173a;"/>
      <path d="m1555.25,475.71c38.36,8.92,76.7,17.89,115.08,26.71,8.55,1.97,17.28,3.33,26.02,1.26,6.45-1.53,11.88-.27,16.47,4.52,14.78,42.84,8.05,87.07,8.15,130.81.04,17.43-1.64,34.86-2.54,52.3-2.72,3.2-6.19,2.62-9.77,2.13-7.58-1.04-15.1-1.06-22.65.76-5.49,1.32-9.43,3.94-11.08,9.5-8.22,11.86-20.44,19.1-31.83,27.26-1.99,1.43-4.59,1.6-7.05.67-3.59-1.79-4.43-5.25-5.24-8.71-4.37-18.71-12.9-34.43-31-43.33-.71-.35-1.2-1.08-1.73-1.71-3.64-5.3-10.3-8.63-10.51-16.16-8.01-54.41-23.16-107.27-34.69-160.91-1.08-5.03-2.14-10.15-2.22-15.38-.06-4.04.57-7.66,4.59-9.73Z" style="fill: #d99378;"/>
      <path d="m1517.65,1179.38c5.31,22.34,10.19,44.79,16.02,66.98,12.81,48.71,11.96,97.84,6.33,147.35-4.63,40.7-8.01,81.54-12.32,122.28-1.34,12.68-.64,25.66-4.96,37.96-6.4.56-8.22-4.85-10.61-8.8-15.09-24.83-28.32-50.62-38.76-77.77-14.9-38.75-24.74-78.68-28.33-120.12-1.34-15.51-3.42-30.96-3.04-46.58.77-32.04,5.36-63.65,10.7-95.17,1.59-9.39,2.09-18.99,5.12-28.12.56-4.42,1.45-8.61,6.59-10,16,1.14,32,2.28,48,3.42,1.75,2.86,3.51,5.72,5.26,8.57Z" style="fill: #28526f;"/>
      <path d="m1599.98,676.2c19.53,8.93,29.51,24.98,33.93,45.25.68,3.13,1.89,6.15,2.86,9.22,2.85,2,3.15,6.91,7.32,7.16,8.64.51,17.16,3.26,25.92,1.64,2.46-.45,3.37-2.39,4.09-4.58,2.76-8.32,8.73-13.53,16.63-16.79,8.19-3.16,17.15-4.22,24.68-9.17.7-.42,1.45-.72,2.23-.93,3.51.1,6.91-2.33,10.51-.52,6.28-.02,12.57-.13,18.85-.05,29.42.35,47.65,18.36,45.79,47.72-2.77,43.84-24.16,76.97-61.99,99.17-16.3,9.57-33.92,9.21-51.69,4.42-7.3-1.07-8.4-5.88-7.27-12.04.56-.74,1.26-1.29,2.1-1.68,2.1-.86,4.26-1.06,6.47-.56,12.09,2.01,24.04,3.81,36.23-.33,22.62-7.68,41.06-19.81,49.44-43.5.82-2.32,2.58-4.19,3-6.66,2.83-3.97,4.43-8.44,5.46-13.16.74-7.05,2.66-13.87,3.84-20.84,3.47-20.55-8.6-35.23-29.58-36.01-8.46-.31-16.82.93-25.24.84-14.92-.55-23.67,8.73-31.37,19.7-3.39,2.81-4.95,6.8-6.85,10.58-7.17,11.62-10.6,24.92-16.69,37.01-1.73,3.43-3.63,7.41-8.23,6.5-4.85-.95-5.91-5-5.34-9.49.14-2.15.2-4.48,1.55-6.19,4.51-5.68,2.66-10.31-2.05-14.61-.46-1-.83-2.07-.79-3.16.17-4.59.23-8.93-5.96-9.75-6.27-.83-10.6,1.22-12.89,7.37-6.97,18.71-19.31,34.16-30.74,50.17-19.61,20.03-43.14,29.3-71.23,25.78-23.19-2.9-43.44-24.29-48.86-51.39-.95-2.69-.63-5.46-.53-8.21-.62-5.58-.87-11.15.14-16.7.58-9.9,2.56-19.48,6.62-28.58,1.16-5.17,4.63-9.52,5.34-14.86,1.25-4.64-1.74-6.16-5.3-7.65-15.34-6.41-31.01-12-46.1-19-2.87-1.33-5.19-.64-7.7.46-11.86-.54-21.65-7.15-32.17-11.39-23.55-9.48-46.89-19.47-70.39-29.09-4.81-1.97-9.04-5.09-14.03-6.6-6.42-1.43-12.16-4.7-18.32-6.84-2.81-.97-6.26-1.47-5.06,3.06,4.22,15.84,5.17,32,5.77,48.24-3.01,11.73-.16,23.8-1.96,35.58-2.21,14.54-4.63,29.05-6.95,43.58-.33.17-.68.23-1.05.18-3.96,1.44-7.33.05-9.34-3.16-3.62-5.78-8.39-10.67-12.03-16.4,4.02-40.12,2.93-79.74-11.26-118.15-18.97-51.36-50.94-88.84-106.97-100.91-2.01-.43-5.09-.65-4.65-3.56.67-4.45,4.75-3.73,7.88-3.95,48.97-3.49,91.06,21.63,115.05,69.12,9.03,17.86,22.54,29.18,42.53,32.31,3.62-2.05,6.86-.33,10.19.95,56.18,21.58,112.14,43.72,167.99,66.12,12.28,4.92,23.41,5.93,31.85-6.79,1.86-2.8,5.44-3.62,7.9-5.82,17.94-9.01,37.14-9.4,56.52-8.13,4.37.29,8.13,2.84,11.87,5.03Z" style="fill: #f4f2e5;"/>
      <path d="m1561.31,1292.08c-5.94-15.73-6.29-32.46-8.59-48.82-2.37-16.86-7.44-32.79-15.11-47.94,1.47.19,2.94.38,4.41.56,53.79,48.21,88.13,108.44,111.51,176.17,15.6,45.18,41.61,84.83,72.85,120.96,7.33,8.48,14.62,16.99,21.92,25.49,1.3,1.14,2.21,2.72,1.71,4.28-3.84,11.91-5.58,24.57-12.52,35.39-2.8,1.71-5.77,1.58-8.7.57-26.6-9.18-53.62-17.12-78.9-29.97-22.67-11.52-36.25-32.26-30.52-61.45,2.58-13.11,5.11-26.23,8.04-39.26,5.85-26.03.74-49.32-16.89-69.64-17.04-19.63-33.42-39.73-46.09-62.58-.79-1.43-2.42-2.23-3.11-3.78Z" style="fill: #377e9f;"/>
      <path d="m1487,787.67c.47.97,1.03,1.9,1.4,2.9,17.23,46.32,58.68,59.27,99.61,31.07,5.16-3.56,10.21-7.28,15.31-10.93,2.19.05,4.37-.15,6.56-.1,5.15.11,10.12.82,12.02,6.53,1.92,5.78-.92,10.23-5.24,13.6-7.6,5.93-16.3,9.95-25.27,13.39-3.57,1.37-7.24,2.45-10.93,3.49-2.1.59-4.35,1.49-4.43,4.17-.08,2.67,2.08,3.71,4.14,4.47,9.8,3.62,20.16,4.87,30.3,7.01,14.68,3.1,29.67,5.12,42.91,12.98,3.76,2.23,7.64,4.33,10.29,7.97,1.36,1.86,1.93,3.92.86,6.16-1.91,5.77-7.49,7.56-11.73,10.81-10.35,2.02-20.62,5.1-31.35,2.73-4.25-2.17-5.4-6.57-7.47-10.36-5.06-9.24-16.93-15.21-25.24-12.67-1.67.51-4.23.54-4.16,3.1.05,1.87,2.12,2.31,3.55,3.02,9.97,4.99,20.9,8.03,29.88,15.01,3.59,3.87,7.3,7.66,7.45,13.43.11,1.97-.45,3.7-1.71,5.22-4.17,4.05-9.43,4.27-14.58,3.45-9.94-1.58-19.75-4.33-29.77-.29-1.99.8-4.32.1-6.33-.91-2.67-1.55-3.66-4.14-3.46-6.95.42-5.98-2.92-9.64-7.17-12.97-15.77-12.37-23.51-28.31-21.58-48.59.23-2.39,2.31-5.5-1.61-7.06-4.21-1.21-5.84,2.37-8,4.53-9.85,9.84-21.21,17.08-34.65,20.93-19.55,5.61-38.49-1.19-49.41-17.78-10.03-15.24-8.48-34.81,3.96-50.36,6.48-8.1,14.62-13.89,24.28-17.55,3.9-1.48,7.86-2.67,11.57.55Z" style="fill: #a85431;"/>
      <path d="m1664.54,890.37c-9.66-12.63-23.85-16.82-38.34-20.16-15.17-3.5-30.5-6.32-45.68-9.8-4.75-1.09-10.01-2.81-10.11-9.08-.11-6.63,5.83-6.33,10.01-7.52,12.2-3.47,23.79-8.22,34.01-15.85,3.28-2.45,6.73-5.36,5.14-10.21-1.53-4.67-5.78-3.01-9.13-3.27-2.93-.23-6.29.4-7.12-3.77,1.22-7.1,6.27-12.03,10.32-17.4,7.65-10.13,14.15-20.82,18.1-32.92,3.5-10.71,11.73-10.37,20.08-8.19,9.24,2.41,6.05,9.36,4.57,15.41-.09,1.1-.22,2.18-.76,3.16q-5.25,9.43,2.09,17.14c.68,3.25-.43,8.24,3.52,8.85,2.92.45,2.88-4.58,4.27-7.09,6.66-12.03,8.22-26.59,18.37-36.88,9.63-2.18,18.2,1.55,23.25,10.11.5,5-.9,9.75-2.4,14.36-6.61,20.42-12.87,40.95-19.29,61.43-.95,3.03-1.49,6.47-4.82,8.18-2.11-.1-4.21-.2-6.32-.3-3.82-3.76-5.52-8.67-7.09-13.58-.18-.56-.44-.37-.39-.22,1.45,5,4.74,9.2,6.16,14.2,2.05,3.92,4.09,7.84,6.14,11.76-.4,6.74-.13,13.6-1.39,20.18-1.29,6.7-6.27,10.54-13.2,11.45Z" style="fill: #d99378;"/>
      <path d="m1571.7,920.34c17.08-5.27,34.54,2.42,51.66-1.48,7.62-1,12.45,2.87,15.93,9.11.17,7.58.35,15.15.52,22.73-2.72,3.75-6.69,3.76-10.4,2.72-35.24-9.89-68.16-1.59-100.36,12.54-1.65.73-4.26,1.03-3.88,3.44.37,2.32,2.95,2.04,4.76,2.33,24.52,3.97,49.07,7.84,73.64,11.51,3.54.53,7.1,1.18,10.32,2.54,4.72,1.98,8.83,4.87,6.72,11.19-.32.69-.63,1.39-.95,2.08-3.73,3.23-8.03,2.74-12.44,2.04-14.04-2.22-27.85-5.58-41.77-8.37-11.52-2.3-23.12-4.19-34.94-3.94-2.75.06-5.53.27-7.5-2.25-9.2-8.17-19.73-8.37-30.65-4.69-5.4,1.82-10.63,4.27-15.74,6.81-7.95,3.95-15.14,3.88-21.59-2.9-6.66-7-7.54-14.77-3.35-23.29,7.67-15.57,21.67-23.15,36.89-29.17.95-3.68,4.1-3.96,7.04-4.52,22.5-4.31,45.28-6.87,67.82-10.98,3.08-.56,5.98.22,8.29,2.54Z" style="fill: #20173a;"/>
      <path d="m1620.6,996.97c-1.95-5.96-6.38-8.25-12.31-9.15-27.26-4.11-54.5-8.38-81.71-12.76-3.79-.61-9.37.17-10.08-5-.78-5.64,5.09-5.46,8.62-6.8,25.52-9.68,50.81-20.72,79.14-17.56,11.89,1.32,23.71,3.32,35.56,5,11.56,14.81,1.4,39.26-19.21,46.27Z" style="fill: #a85431;"/>
      <path d="m1522.99,986.54c19.01-3.03,37.32,1.42,55.73,5.12,13.59,2.73,27.28,4.95,40.93,7.39.26,13.23,3.48,27.26-9.91,36.81-4.94,2.16-9.92,2.08-15.22,1.2-9.41-1.57-18.89-2.75-28.33-4.14-3.67-.54-7.01-1.38-8.39-5.38-9.72-8.66-19.66-17.09-29.06-26.09-3.98-3.81-8.44-8.19-5.75-14.92Z" style="fill: #d99378;"/>
      <path d="m1557.8,1027.54c17.31,2.77,34.63,5.55,51.94,8.32-4.81,5.6-9.62,11.21-14.43,16.81-15.95-3.81-31.92-7.58-47.85-11.45-4.4-1.07-10.22-1.36-9.17-8,.91-5.78,6.1-5.21,10.51-5.27,3-.04,6-.27,9-.41Z" style="fill: #5f322f;"/>
      <path d="m1718.16,710.85l-.22.07c-7.98,1.91-15.74,5.06-24.19,4.15-7.82-2.34-17.12-1.8-21.46-10.95-1.74-6.46,1.65-9.57,7.22-11.68,12.88-4.88,25.88-2.93,38.91-1.12,4.4,3.73,12.85,4.9,8.81,13.95-2.01,3.52-6.46,3.05-9.07,5.58Z" style="fill: #20173a;"/>
      <path d="m1639.29,927.97c-6.56-.86-10.45-6.38-15.93-9.11-.02-1.36-.03-2.72-.05-4.08,5.13-7.59,17.71-12.33,25.92-9.78-1.9,8.27-3.23,16.78-9.94,22.97Z" style="fill: #d99378;"/>
      <path d="m1649.23,905.01c-8.64,3.26-17.28,6.52-25.92,9.78-2.27-3.87-4.54-7.74-6.82-11.62.01-3.1,1.67-2.98,3.8-1.93,10.84,1.41,21.68-3.94,32.53-.05-1.19,1.27-2.39,2.55-3.58,3.82Z" style="fill: #5f322f;"/>
      <path d="m1718.16,710.85c2.11-3.35,5.48-4.65,9.07-5.58.31.74.61,1.48.92,2.22-3.33,1.12-6.66,2.24-9.99,3.36Z" style="fill: #5f322f;"/>
      <path d="m706.02,1055.23c-12.96-16.05-32.35-12.61-49.35-15.58-13.09-2.29-26.68-1.73-40.05-2.45-9.95-23.97-15.8-48.33-6.99-74.08,3.1-1.83,6.28-1.52,9.47-.3,38.82,14.83,78.8,26.43,117.3,42.19,56.58,23.16,111.26,50.02,162.3,83.8,40.22,26.62,78.51,55.79,111.27,91.43,12.79,13.91,26.25,27.1,39.28,40.75,3.7,3.87,9.36,8.47,5.03,13.91-4.47,5.62-9.86.54-14.52-2.07-2.35-1.31-4.31-3.23-6.83-4.26,1.3,2.35,2.85,4.55,4.41,6.71,8.98,12.4,17.05,25.41,25.44,38.21,2.84,4.33,7.9,6.84,9.42,12.14,1.85,43.03,2.6,86.05,2.15,129.09-.05,5.17-.27,10.36.53,15.5.29.96.45,1.96.52,2.96-.33,14.44,2.13,28.76,2.12,43.19.04,2.33.06,4.67.17,7.01,2.22,18.69,2.04,37.55,4.01,56.26.26.96.38,1.93.38,2.92,1.37,45.32,5.93,90.4,10.12,135.5.17,2.35.15,4.72.41,7.08,1.99,17.16,4.26,34.28,5.01,51.57-3.93,9.72-1.24,20.19-3.42,30.12-.57,2.61-.51,5.39-2.35,7.6-7.03,5.61-15.34,3.66-22.89,2.75-12.24-1.49-24.54-1.06-36.78-2.47-16.25-1.87-32.71-1.68-49-3.63-3.33-.4-6.49-1.05-9.3-2.88-5.93-3.87-7.09-10.84-1.11-14.1,21.49-11.69,26.69-32.68,30.63-53.6,6.76-35.92,13.96-71.87,14.28-108.67-.54-2.11-1.4-4.16-1.4-6.39.03-12.05-5.38-21.69-13.85-29.63-23.68-22.21-44.07-47.18-61.64-74.37-42.99-66.53-75.05-137.73-90.58-215.8-1.45-7.27-5.92-14.41-1.94-22.2l-16.21-46.25c-4.61-2.51-5.25-7.48-6.96-11.66-13.61-33.25-33.02-62.68-58.75-87.71-14.08-13.69-29.58-25.78-46.23-36.33-4.45-2.82-9.88-3.16-14.12-6.26Z" style="fill: #20173a;"/>
      <path d="m1068.6,1282.79c-4.45-1.47-7.13-5.02-9.57-8.63-10.89-16.1-21.67-32.28-32.37-48.52-.9-1.37-3.51-2.91-1.56-4.71.7-.64,3.56.46,5.05,1.38,5.36,3.31,10.53,6.92,15.82,10.33,2,1.3,4.35,3.6,6.57,1.38,2.42-2.42-.24-4.64-1.79-6.24-42.04-43.49-83.29-87.62-133.59-122.35-81.73-56.42-171.08-96.34-265.01-127.03-14.31-4.67-28.35-10.17-42.51-15.29,7.55-37.58,25.61-67.65,60.65-85.95,22.06-11.52,43.83-23.59,65.79-35.32,25.73-13.74,45.64-33.13,56.6-60.42,10.17-25.32,29.5-36.92,55.43-39.67,16.09-1.7,32.23-1.69,48.37-.59,16.79,1.15,33.36.58,49.2-6.03,3.98,2.58,3.5,6.58,3.01,10.35-2.21,17.1-7.77,33.51-10.31,50.6-1.6,10.78-13.86,13.89-22.51,6.64-4.9-4.11-7.63-9.97-11.7-14.77-7.03-8.29-13.26-8.04-18.38,1.56-11.27,21.11-12.08,42.93-2.87,64.93,16.03,38.3,37.03,73.83,60.78,107.79,30.59,43.74,64.28,85.13,96.86,127.35,2.53,3.28,5.3,4.43,9.11,4.1,9.65,4.06,10.9,13.47,13.88,21.78-.37,7.98,3.35,13.77,9.71,18.16,23.16,33.7,43.2,68.91,52.38,109.29,1.63,7.17,3.07,14.4,2.72,21.85-.14,3.03-.2,6.04-2.54,8.39-3.38,2.38-6.76,1.38-9.98-.23-10.14-5.07-20.75-9.27-30.01-16-3.17-3.99-2.27-8.92-2.79-13.42-1.62-14.03-7.21-26.76-12.14-39.73,2.54-5.85.96-10.95-2.23-16.2-17.7-29.2-32.59-60.14-54.71-86.61-10.47-12.53-23.41-22.24-35.69-32.61-34.03-28.76-69.05-56.31-101.92-86.49-33.71-30.95-66.72-62.42-93.63-99.69-3.21-4.44-6.15-9.06-9.37-13.48-1.02-1.4-1.82-4.3-3.93-3.02-1.77,1.07-.12,3.58.5,5.25,2.52,6.87,7.87,11.85,12.54,17.11,27.6,31.12,56.73,60.79,87.63,88.61,33.32,30,67.27,59.31,98.58,91.47,30.58,31.41,58.42,65.15,84.65,100.24,3.93,5.25,7.58,10.74,9.65,17.09,1.22,3.74,2.3,7.44-1.31,10.6-5.57,2.4-5.6,5.95-2.14,10.24,9.9,12.29,13.04,26.69,13.04,42.05,0,8.45.14,16.91-.09,25.36-.1,3.48.27,7.29-3.88,9.1Z" style="fill: #28526f;"/>
      <path d="m1050.42,1094.21c-3.48,4.45-6.76,6.08-10.95.43-32.26-43.47-67.18-84.91-98.1-129.41-24.11-34.7-45.77-70.76-62.03-109.83-9.35-22.47-8.3-44.87,2.58-66.67,6.89-13.8,16.23-14.66,25.5-2.52,3.48,4.56,6.38,9.63,10.29,13.77,5.82,6.18,16.4,4.69,17.11-2.79,1.98-21.02,11.04-40.72,10.85-62.03,15.06-19.45,23.73-22.06,47.21-14.43,16.87,5.48,30.91,15.87,45.3,25.7,4.07,0,5.44,3.1,6.98,6.02,7.79,16.53,17.97,31.52,29.52,45.63,1.9,2.32,3.32,4.98,3.32,8.15-.04,2.44.74,4.85.11,7.33-7.83,31.02-16.97,61.58-34.54,88.77-8.01,12.39-17.79,23.44-28.29,33.8-2.55,2.51-5.04,4.98-6.51,8.29-4.03,3.95-2.91,8.39-1.29,12.91,11.26,31.28,22.42,62.6,33.69,93.88,2.86,7.94,6.18,15.73,7.68,24.1.46,6.31,6.82,12.14,1.56,18.91Z" style="fill: #20173a;"/>
      <path d="m1085.82,446.88c19.03-1.38,38.07-2.75,57.1-4.13,3.09,2.7,2.96,6.08,2.31,9.74-3.24,18.44-7.46,36.77-6.99,55.68.07,2.94-1.59,5.11-2.97,7.43-1.58,39.61,9.2,76.15,27.38,110.91,14.58,27.88,21.68,57.18,15.46,88.66-1.26,6.38-3.8,12.5-5.75,18.74,1.24,4.82-2.34,7.37-4.86,10.46-6.89,8.45-16.21,14.16-24.08,21.51-22.24,12.21-44.45,11.31-66.31-.75-10.81-5.97-19.9-14.31-28.43-23.19-4.16-4.68-6.43-10.52-9.19-15.98-2.58-5.11-5.44-9.83-9.54-13.8-6.12-26.99-5.89-53.7,4.38-79.72,21.38-54.13,35.57-110.05,42.66-167.79.86-7.02,2.89-13.33,8.82-17.77Z" style="fill: #fafef1;"/>
      <path d="m1179.04,414.94c-31.36,7.57-62.73,15.13-94.09,22.7-14.78-4.39-15.18-5.44-10.06-20.02,3.08-8.75,5.74-17.65,8.35-26.56,5.94-20.23,15.72-28.39,36.43-30.86,6.45-.77,12.76-2.7,19.13-4.1,3.35-5.26,9.25-4.3,14.07-5.16,12.59-2.24,25.23-4.3,37.86-6.33,3.77-.61,7-.3,10.01,2.03,1.06.74,2.13,1.47,3.19,2.21,3.45,3.56,2.26,7.77,1.16,11.62-4.88,17.14-11.75,33.5-20.2,49.18-1.3,2.42-2.78,4.77-5.85,5.29Z" style="fill: #fafef1;"/>
      <path d="m1200.74,346.64c-20.64,3.15-41.29,6.31-61.93,9.46-8.58-5.79-2.81-13.99-3.54-21.09,24.73-12.31,51.45-15.54,78.51-17.29-1.85,10.76-12.7,17.47-13.04,28.91Z" style="fill: #28526f;"/>
      <path d="m1029.96,712.17c14.72,3.56,14,17.82,19.33,27.88,4.67,8.71,2.42,13.41-6.3,13.18-1.6-2.27-3.2-4.55-4.8-6.82-1.2-11.78-8.15-22.19-8.23-34.24Z" style="fill: #d9ebe5;"/>
      <path d="m2504.34,1902.49c-16.59,51.3-33.21,102.62-53.31,152.67-8.99,22.39-29.58,33.21-54.21,32.4-11.19-.37-22.41.5-33.62.81-69.78-3.21-139.61-2.13-209.42-2.11-191.69.06-383.38.26-575.06.32-4.33,0-8.65-.94-12.98-1.45-3.4-1.27-6.94-1.32-10.48-1.14-21.18,1.13-42.41.53-63.57,1.91-72.04.73-144.08,1.46-216.12,2.19-3.96.04-7.92-.11-11.88.11-53.04.71-106.07,1.38-159.11,0-2.87-.22-5.74-.06-8.61-.15-13-.51-26-1.01-39-1.52-.73-.04-1.45-.07-2.18-.08-19.34-1.72-38.71-3.11-58-5.25-16.29-1.8-25.55-22.13-16.8-35.94,2.55-4.03,6.71-3.02,10.42-3.09,64-1.32,128-2.57,191.99-3.9,5.19-.11,10.36-.61,15.54-.93,9.45-2.98,18.87-3.82,28.23.39,1.81,3.05,4.14,5.76,6.11,8.71,7,10.45,16.79,15.03,29.29,15,27.1-.06,54.17-.95,81.25-1.42,51.48-.89,102.99-.41,154.49-.15,13.18.06,26.24-1.08,39.33-1.96,8.63-.58,11.43-3.71,12.07-12.41.3-4.07-.31-8.25,1.46-12.13,3.87-7.33,10.77-7.01,17.09-5.66,8.78,1.87,15.48-.1,20.6-7.43,6.31-2.66,7.14-8.77,8.32-14.23,5.72-26.52,15.2-51.87,23.8-77.47,13.58-40.4,25.87-81.21,39.04-121.74,12.81-39.42,25.44-78.9,38.16-118.35,31.97-99.15,63.83-198.34,96.78-297.17,18.23-54.69,36.39-109.42,54.03-164.31,7.42-23.1,14.07-46.49,23.91-68.76.33-.81.62-1.62.88-2.45,0,0-.21-.06-.21-.06,7.17-3.61,9.77-.88,11.94,6.52,7.41,25.19,27.77,39.94,46.83,55.57,70.43,57.76,134.83,121.78,196.7,188.51,50.66,54.64,99.3,110.95,143.78,170.73,53.81,72.33,102.75,148.01,152.8,222.93,21.87,32.73,41.95,66.86,70.09,94.99,2.86,2.86,6.42,5.03,9.65,7.52Z" style="fill: #b9dbcf;"/>
      <path d="m603.39,1719.89c-19.56,0-35.63-9.6-51.8-18.88-10.73-6.15-21.99-11.05-33.87-14.47-6.45-1.86-11.18.69-12.73,6.87-1.82,7.27-6.88,9.86-13.11,11.99-42.42,14.45-84.64,11.78-126.57-1.81-29.18-9.46-58.15-19.56-87.17-29.52-11.13-3.82-12.39-9.52-4.39-18.06,20.23-21.6,45.69-23.57,72.76-19.31,40.08,6.31,79.9,13.61,117.24,30.46,1.12.51,3.31.96,3.65.48,1.56-2.19-.84-3.3-1.93-4.64-14.26-17.53-33.25-28.99-52.07-40.76-31.34-19.61-62.44-39.58-93.68-59.33-10.06-6.36-7.87-13.83-2.01-21.45,8.89-11.56,24.77-14.91,42.03-8.8,19.56,6.92,36.34,18.95,53.76,29.77,2.32,1.44,4.6,3.01,7.06,4.17,1.31.62,2.97.49,4.47.7-.61-1.4-.97-2.99-1.87-4.16-13.66-17.75-30.09-33.48-40.61-53.52-4.58-8.72-13.92-18.22-5.56-28.34,8.42-10.19,18.81-1.98,27.91,1.16,19.2,6.62,33.64,20.12,47.44,34.36,1.28,1.33,3.34,3.48,4.4,3.16,3.35-1.02-.44-2.95-.01-4.33,1.89-6.08,4.85-1.34,7.29-.49,2.21.77,4.39,3.36,6.6.82,2.23-2.56-.52-4.57-1.8-6.44-28.15-41.31-41.62-86.92-41.09-136.9.29-27.02,13.79-48.75,28.45-69.3,11.17-15.66,29.12-13.64,46.1-10.34,15.88,3.09,16.23,2.69,17.79-13.2,2.61-26.6.13-53.69,8.01-79.77,8.92-29.53,23.23-55.03,52.26-69.27,23.15-11.36,43.48-7.77,61.6,10,16.49,16.17,36.44,27.97,54.34,42.38,29.02,23.36,43.51,54.14,47.19,90.6,1.43,14.11,4.13,28.34-1.57,42.15-2.7,6.54-5.16,14.2-13.96,14.16-8.26-.03-9.88-7.59-12.38-13.53-10-23.71-19.85-47.47-29.84-71.18-.8-1.9-2.24-3.52-3.39-5.27-2.39,2.44.03,4.6.71,6.55,20.5,58.51,35.59,118.49,47.89,179.15,5.23,25.77,4.69,51.71-4.58,76.89-1.7,4.62-3.5,8.76-9.39,8.67-4.91-.49-4.84-4.69-5.5-7.93-2.91-14.4-6.57-28.66-8.8-43.19-.51-11.25-4.59-21.7-7.64-32.34-6.25-21.8-15.48-42.51-24.1-63.43-.4-.98-.58-2-.82-3.02.18.8.29,1.61.55,2.39,7.89,24.36,15.01,48.93,20.06,74.08,4.16,15.82,8.94,31.38,10.65,47.85,2.76,26.66,1.34,52.96-4.11,79.02-5.84,27.92-13.61,55.22-30.59,78.9-2.1,2.93-4.4,5.58-7.08,7.92-2.87,2.49-6.19,3.77-9.82,1.91-3.33-1.71-3.98-4.84-3.85-8.39.51-13.95.14-27.9.24-41.86.55-74.2-16.99-143.94-51.63-209.47-1.28-2.42-2.74-4.72-4.92-6.47-.79-.45-1.52-.98-2.21-1.57-.95-.92-1.73-1.99-2.39-3.13-7.73-11.91-14.2-24.57-21.89-36.51-.44-.69-.81-1.43-1.25-2.12-.42,1.12.4,1.94.76,2.84,28.04,69.47,44.74,142.14,61.03,214.95,3.69,16.5,5.39,33.3,8.67,49.85.89,4.47,3.1,8.08,5.22,11.87,1.72,7.86,1.11,15.84.85,23.73-.37,11.2,1.52,22.34.14,33.57-2.15,17.54-9.82,30.5-27.81,35.56-2.63.74-5.11,1.94-7.34,3.58Z" style="fill: #377e9f;"/>
      <path d="m588.93,1384.45c5.32.75,6.26,5.73,8.3,9.23,30.14,51.52,45.17,107.69,50.76,166.71,2.64,27.87,1.84,55.79,1.21,83.7-.06,2.81-1.85,6.59,1.93,8,3.87,1.44,5.82-2.24,7.87-4.64,17.42-20.42,24.96-45.32,31.71-70.53,12.52-46.72,10.55-93.18-2.74-139.4,6.18-3.68,7.94,1.87,10.17,5.29,3.19,4.9,3.34,11.29,7.22,15.96,3.87,17.51,7.74,35.02,11.61,52.53.13,9.58.2,19.17.43,28.74.06,2.75.39,6.03,3.71,6.52,3.39.5,4.45-2.72,5.39-5.24,18.55-49.66,31.48-100.73,38.34-153.31,3.47-26.59,5-53.28,5.28-80.13.48-45.79-14.34-86.48-39.39-123.94-14.53-21.73-26.01-44.99-36.52-68.8-.73-1.66-2.55-3.75-.65-5.2,2.27-1.73,3.25.94,4.21,2.38,21.55,32.63,46.38,62.99,65.49,97.36,21.28,38.26,25.87,79.26,22.35,121.61-3.39,40.81-8.1,81.52-12.67,122.23-1.86,16.55-4.87,32.97-7.34,49.45-.42,2.83-2.19,6.44,2.02,7.6,3.44.95,4.52-2.44,5.63-4.85,5.63-12.17,11.08-24.42,16.74-36.57,2.39-5.13,5.42-9.89,12.22-8.89,6.84,1,8.31,6.34,8.91,12.05,3.77,35.85,6.85,71.78,11.41,107.53,4.18,32.71,7.95,65.59,17.99,97.26,3.97,2.32,3.7,6.61,4.26,10.2,2.42,15.67,5.33,31.24,8.5,46.76.63,3.08.13,5.97-.75,8.87-4.13,8.67-12.7,9.16-20.28,9.68-16.58,1.13-33.16,2.66-49.85,2.16-22.27-.67-43.95,3.5-65.45,8.89-5.31,1.33-7.91,3.48-4.76,9.07.81,1.44.69,3.18.48,4.82-.98,4.5-4.54,6.51-8.15,8.54-15.72,8.86-30.23,19.35-43.47,31.64-3.93,3.65-8.66,8.55-14.2,4.52-5.28-3.85-1.05-9.52.11-14.32.57-2.37,1.73-4.6,3.93-6.03,11.62-19.84,17.82-41.09,15-64.14-2.31-18.94-20.3-28.92-40.26-23.36-7.35,2.05-14.82,3.66-22.24,5.46,1.27-3.55,4.67-4.51,7.55-5.83,18.72-8.54,24.98-24.18,24.75-43.37-.19-15.84-.81-31.68-1.24-47.53-4.42-20.53-7.05-41.34-9.55-62.15-5.46-45.36-11.06-90.68-24.93-134.46-3.39-10.7-7.92-20.99-11.79-31.52-1.32-3.6-2.91-7.3.76-10.58Z" style="fill: #20173a;"/>
      <path d="m650.89,1801.92c-.73,3.99-1.5,7.98-2.19,11.98-.43,2.51-3.47,5.5-.6,7.38,2.62,1.71,5.01-1.4,6.9-3.18,16.69-15.63,35.03-28.89,55.55-39.06,1.69-3.3,4.18-5.65,7.69-7.02,10.71-4.18,21.28-8.7,32.07-12.65,3.99-1.46,8.17-2.17,11.56,1.17,3.16,3.12,2.4,7.12,1.27,10.84-6.55,21.47-14.69,42.39-21.82,63.66-1.2,3.57-3.12,7.86-7.96,6.56-4.55-1.22-4.91-5.69-4.24-9.56,1.6-9.27.73-18.58.87-27.87.04-2.58.94-6.02-2.23-7.29-2.9-1.16-5.08,1.52-7.17,3.08-4.59,3.45-8.61,7.59-12.94,11.36-25.65,22.34-50.08,45.83-67.78,75.35-1.83,3.06-3.42,6.24-5.21,9.31-2.83,4.85-6.64,8.29-12.67,6.99-6.15-1.33-8.98-6.04-9.92-11.8-1.39-8.52.51-16.91,1.84-25.26,3.24-20.23,5.74-40.57,8.85-60.82.73-4.77.21-9.6-4.3-12.47-4.9-3.12-9.3-1.16-13.53,2.1-20.57,15.89-40.24,32.86-60.39,49.26-14.21,11.56-28.24,23.35-42.65,34.67-7.25,5.7-15.1,7.99-23.6,3.2-7.22-4.07-10.7-14.07-9.08-23.9,3.07-18.55,11.56-34.64,22.4-49.67.8-1.11,1.85-2.05,2.55-3.22.64-1.08,2.21-2.21,1.07-3.49-.5-.57-2.09.24-3.07.68-9.49,4.26-18.89,8.71-28.35,13.05-15.17,6.97-30.3,14.01-45.71,20.46-13.98,5.85-28.47,9.72-43.39,12-10.43,1.59-20.37-.03-28.54-7.19-4.05-3.55-8.19-7.64-5.99-14.11,8.98-17.4,24.03-28.8,39.37-39.93,28.78-20.86,61.31-34.94,92.59-51.28,2.35-1.23,7.33-1.46,6.1-4.91-.84-2.35-4.89.4-7.33,1.22-25.91,8.81-51.77,17.75-77.65,26.66-3.05-5.53-8.8-5.83-13.99-7.22-.55-3.92,2-6.02,4.94-7.4,4.98-2.35,9.69-5.57,15.51-5.69,37.12-17.13,75.95-28.08,116.89-29.1,20.5-.51,40.84,3.14,59.91,11.67,2.23,1,4.8,1.79,5.2,4.69.42,3.08-2.09,4.28-4.18,5.45-8.11,4.53-16.32,8.91-24.44,13.41-1.31.73-2.41,1.84-3.61,2.77,1.76,1.77,3.57.65,5.23-.07,18.05-7.86,35.94-16.09,54.13-23.6,17.64-7.28,32.12-4.42,42.68,7.64,9,10.27,6.32,22.48,5.79,34.44-.55,12.55-7.01,23.99-6.46,36.69Z" style="fill: #377e9f;"/>
      <path d="m850.78,1742.67c-3.22-21.88-9.49-43.28-10.25-65.54,5.57-13.14,5-27.3,6.3-41.05,5.18-54.66,10.81-109.3,13.05-164.19,1.29-31.49-.73-62.9-3.54-94.24-3.37-37.54-7.57-75-10.73-112.56-.59-7.05-6.68-15.57,2.69-21.65,15.84,80.04,44.47,155.1,87.99,224.26,19.3,30.67,40.58,59.82,67.59,84.37,11.13,10.12,17.68,22.23,15.35,37.86-.4,3.28-2.76,5.03-5.04,7.11-18.54,16.89-40.3,28.88-61.75,41.47-30.65,17.99-51.42,43.56-58.29,79.24-1.09,5.63-1.11,11.38-2.51,16.99-1.34,5.35-4.12,8.55-9.48,10.05-8.64,2.4-17.36,1.52-26.08,1.3-2.3-.06-4.1-1.38-5.31-3.4Z" style="fill: #377e9f;"/>
      <path d="m706.02,1055.23c5.42-1.92,10.24-.34,14.81,2.56,50.31,31.94,87.5,74.85,109.21,130.67,1.07,2.76,1.38,5.82,2.05,8.73-3.12,6.08-.02,11.85,1.39,17.45,5.58,22.14,4.82,45.03,8.48,67.38.37,2.25,1.02,5.61-1.98,6.43-3.54.97-4.41-2.53-5.4-4.96-14.33-34.93-28.59-69.9-45.22-103.81-17.82-36.32-38.09-70.92-71.85-95.33-3.52-2.55-6.28-6.11-9.66-8.88-7.59-6.21-8.67-12.83-1.83-20.25Z" style="fill: #377e9f;"/>
      <path d="m399.76,1737.94c-6.81,4.36-13.62,8.72-20.44,13.09-22.76,4.55-43.4,14.81-64.19,24.43-43.42,20.11-83.27,45.9-119.75,76.9-2.3,1.96-5.84,6.41-7.68,4.2-2.31-2.77,2.26-6,4.47-8.44,21.42-23.61,47.81-40.6,75.25-56.21,38.91-22.13,79.87-39.55,122.37-53.42,3.15-1.03,6.49-3.64,9.98-.54Z" style="fill: #20173a;"/>
      <path d="m409.68,1721.96c-2.86.81-5.41,1.7-8.04,2.26-53.38,11.33-104.24,29.54-152.54,55.01-5.05,2.66-9.13,8.08-15.91,6.94,2.32-6.81,9.2-7.73,14.32-10.69,48.7-28.14,101.43-45.02,156.48-55.25,1.75-.32,4.18-1.54,5.68,1.73Z" style="fill: #20173a;"/>
      <path d="m1531.36,682.93c-13.72,22.3-31.31,17.04-51.13,8.89-51.84-21.32-104.23-41.31-156.38-61.9-3.52-1.39-6.81-3.38-10.21-5.09,11.96-19.86,31.47-29.8,51.53-38.92,8.71-3.96,17.92-6.91,26.4-11.29,18.61-9.61,26.75-24.8,23.53-45.34-6.25-39.87,1.33-54.22,48.5-62.08,31.22-5.2,61.6.26,91.64,8.51-3.11,16.73,3.06,32.29,6.6,48.05,9.69,43.07,21.8,85.62,27.58,129.51.46,3.47.24,7.04.34,10.56-3.62,3.35-7.66,1.88-11.62.98-17.8-4.04-35.3-9.43-53.36-12.27-14.25-2.24-28.53-4.48-43.05-4.16-2.18.05-4.38-.01-6.52.49-1.57.37-3.54.63-3.88,2.49-.38,2.04,1.53,2.68,3.04,3.18,12.94,4.29,24.69,11.63,38.07,14.77,5.09,1.19,9.97,2.93,14.32,5.83,2.68,1.78,5.64,3.67,4.58,7.78Z" style="fill: #a85431;"/>
      <path d="m1042.98,753.23c6.94-2.08,6.08-7.89,6.3-13.18,7.76,5.94,15.39,12.05,23.29,17.78,22.33,16.19,45.97,16.47,70.42,5.36,13.56-5.55,27.1-10.99,37.62-21.93,9.85-10.24,14.51-22.75,17.56-36.16.3-1.33.94-3.16.1-3.93-1.82-1.65-2.32,1.2-3.64,1.69-1.33.49-2.52.92-3.85.17,4.8-21.71.82-42.44-7.62-62.44-7.85-18.62-16.49-36.91-24.59-55.43-3.83-8.76-7.19-17.73-6.81-27.58,4.61-3.11,8.3-.21,11.99,1.98,17.05,10.12,27.54,26.08,37.55,42.45,19.94,32.61,28.49,68.13,27.48,106.16-.22,8.19-.18,16.39.03,24.57.34,13.25,3.64,17.69,16.32,22.05,2.14.74,4.11,1.46,5.06,3.71-9.74,57.96-64.11,90.88-123.56,74.8-5.52-1.49-11.05-2.93-16.57-4.4-1.2.78-2.71,1.37-3.88.68-11.16-6.62-23.24-12.15-30.03-24.21-12.54-16.44-26.41-32.03-33.17-52.14Z" style="fill: #b9dbcf;"/>
      <path d="m1076.16,805.37c11.3,7.84,22.61,15.69,33.91,23.53,4.3,10.82,14.85,12.24,23.93,15.79,2.74,1.07,5.7,1.56,8.56,2.32,9.31,5.42,19.99,4.37,30.02,6.39,2.5-.08,5-.16,7.49-.24,3.97.09,5.76,2.51,6.51,6.05,1.01,8.01,2.96,15.99.73,24.1.57,28.1,1.17,56.19,1.66,84.29.06,3.24-.49,6.5-.75,9.75-6.55.63-7.47-4.74-8.7-8.91-4.63-15.71-9.14-31.46-13.57-47.23-3.5-12.46-5.23-13.4-17.98-10.78-43.6,8.98-87.27,17.59-129.21,33.06-3.95,1.46-8.44,3.21-12.15-1.03,4.01-8.3,11.15-14.13,17.19-20.66,30.58-33.01,42.31-74.31,52.35-116.44Z" style="fill: #5f322f;"/>
      <path d="m1250.2,758.51c-17.48-.56-25.14-8-24.76-25.37.8-36.04.52-72.05-15.14-105.48-13.26-28.3-27.24-56.57-58.53-70.07-.34-1.32-.71-2.64-1.02-3.97-1.1-4.72-3.71-10.02.45-13.92,4.31-4.03,8.71.41,12.79,1.99,55.31,21.44,76.32,67.87,87.33,121.1,5.85,28.3,6.7,56.97,1.91,85.61-.57,3.44-2,6.74-3.03,10.11Z" style="fill: #fafef1;"/>
      <path d="m1184.88,858.39c-1.6-1.74-3.2-3.48-4.81-5.22-.73-3.52-.47-6.76,3.57-7.95,48.23-14.25,74.35-48.77,87.44-95.24,5.69.86,9.38,4.26,11.38,9.44,1.89,4.89,5.27,8.11,9.99,10.12-15.06,43.52-41.84,75.12-88.31,86.64-1.58.39-3.21.6-4.82.9-6.2,6.02-8.17,6.2-14.45,1.33Z" style="fill: #d9ebe5;"/>
      <path d="m1179.04,414.94c8.16-19.79,19.01-38.52,23.6-59.72.46-2.12.86-4.25,1.28-6.38,13.94,5.45,20.67,20.45,15.5,36.56-5.18,16.16-17.15,29.09-22.38,45.37-1.31,4.07-4.62,1.75-6.5-.15-4.59-4.64-8.81-9.62-11.51-15.68Z" style="fill: #b9dbcf;"/>
      <path d="m1190.79,703.03c3.66-.97,3.89-4.2,4.62-7.07.55-2.16.91-4.68,3.81-4.45,3.44.27,3.14,3.17,3.23,5.62,1.13,28.84-26.31,62.27-54.85,66.7-1.47.23-3.07-.4-4.6-.63,9.58-9.97,21.21-17.88,29.36-29.28,11.97-6.82,13.44-19.9,18.43-30.89Z" style="fill: #377e9f;"/>
      <path d="m1135.27,515.6c-2.9-24.86,4.34-48.65,7.65-72.85,1.65-.26,3.3-.52,4.95-.79,2.01.09,3.78.58,4.57,2.71,4.8,5.77,5.46,12.27,3.54,19.31-3.74,13.75-6.86,27.64-7.86,41.88-.6,8.51-7.07,8.49-12.86,9.73Z" style="fill: #b9dbcf;"/>
      <path d="m1276.24,294.71c28.08-25.59,61.72-39.72,98.39-47.5,8.61-1.83,17.36-2.1,26.14-1.35-7.89,1.49-15.85,2.72-23.67,4.53-31.57,7.28-59.96,21.97-87.83,37.87-4.2,2.4-7.87,6.05-13.11,6.37l.09.08Z" style="fill: #a85431;"/>
      <path d="m1172.58,853.41c-6.14,3.87-26.76-.53-30.02-6.39,7.54.55,15.08,1.21,22.63,1.59,3.54.18,6.45.85,7.39,4.8Z" style="fill: #b9dbcf;"/>
      <path d="m1152.45,444.68c-1.52-.9-3.05-1.81-4.57-2.71,10.76-3.09,21.5-6.22,32.29-9.2,1.39-.38,4.17-.34,4.33.15.77,2.36-1.43,3.57-3.1,3.98-6.34,1.56-12.76,2.87-19.19,4.03-3.53.64-7.05,1.06-9.75,3.75Z" style="fill: #28526f;"/>
      <polygon points="1276.15 294.63 1275.9 295.08 1276.24 294.71 1276.15 294.63" style="fill: #a85431;"/>
      <path d="m850.78,1742.67c.54.05,1.09.15,1.63.15,10.1.02,20.86,2.17,30.06-1.91,11.36-5.03,6.4-17.64,8.48-26.74,8.07-35.38,29.03-60.72,59.5-78.73,21.41-12.66,43.27-24.53,61.81-41.45,1.94-1.77,4.63-2.73,6.98-4.07,4.12,5.37,2.79,11.78,2.03,17.39-5.26,38.9-8.14,78.24-19.95,115.99-4.44,14.21-11.58,26.47-26.07,33.04-6.11,2.77-5.29,5.96.28,8.99,5.83,3.17,12.33,2.81,18.42,3.23,32.12,2.22,64.29,3.77,96.44,5.56,3.39-2.1,7.13-1.56,10.82-1.42,4.69-.69,9.36-.57,14,.38,15.51.9,30.81,4.06,46.39,4.24,1.91.08,3.82.12,5.67.7,20.31,3.17,25.08,8.08,27.96,28.79,3.83,18,4.16,36.39,5.28,54.61,1.5,24.53,3.1,49.13,2.01,73.76-.17,3.97.74,8.41-3.57,11.11-38.68,3.31-77.32,7.2-116.04,9.76-28.29,1.87-55.41-4.94-81.87-14.63-14.23-5.21-15.49-4.29-17.56,10.87-2.15,15.7-4.26,31.41-6.35,47.12-.5,3.73-1.39,7.55-5.89,7.59-4.13.03-4.86-3.88-5.65-7.04-7.03-28.03-2.88-55.99.51-83.98.85-6.98,3.33-13.82,2.05-21.01-3.58,6.02-3.39,12.99-4.87,19.53-6.76,29.85-9.4,60.73-21.38,89.26-18.87,44.96-54.59,66.58-101.83,69.25-24.79,1.4-49.78-.95-74.68-1.29-27.39-.37-54.61,3.53-81.91,4.15-35.34.8-73.17-7.21-87.3-54.99-4.52-15.29-9.45-16-21.5-5-19.92,18.19-40.64,35.48-68.06,41.04-52.28,10.61-91.9-19.18-96.79-72.48-.6-6.48-1.88-12.87-1.16-19.59.63-5.84-1.33-11.52-8.14-13.6-8.24-2.51-12.82,2.91-17.21,8.22-17.66,21.37-36.47,41.58-58.66,58.37-19.79,14.97-41.96,24.65-66.47,28.71-32.46,5.38-54.07-17.02-50.45-52.29,6.43-62.59,30.82-116.44,77.72-159.33,12.99-11.88,27.24-22.02,42.35-30.98,2.11-1.25,4.67-3.27,6.51-.66,1.56,2.21-1.28,3.82-2.74,5.29-8.87,8.95-17.9,17.75-26.65,26.82-1.78,1.84-6.63,3.83-3.55,6.72,2.61,2.45,4.8-2.18,7.01-3.9,1.29-1,2.25-2.41,3.53-3.43,3.15-2.5,6.18-6.39,6.36,2.22.13,6.49,4.33,4.8,7.78,1.73,4.67-4.16,8.26-9.56,14.18-12.27,10.8,18.02,20.16,21.28,44.69,15.86,33.27-7.36,62.66-24.3,93.48-37.7,6.53-2.84,12.93-5.95,19.43-8.85,1.9-.85,4.15-2.85,5.99-.83,2.38,2.61-.52,4.4-1.95,6.18-13.48,16.8-24.97,34.54-28.87,56.34-1.6,8.94-.37,17,7.28,21.86,7.11,4.52,13.96,1.11,20.16-4,32.69-26.98,65.53-53.78,98.3-80.66,5.77-4.73,11.6-10.17,19.75-6.78,7.87,3.27,9.06,10.45,7.95,18-3.53,24.05-7.26,48.08-10.79,72.13-.51,3.5-.52,7.1-.46,10.65.09,5.26,1.73,10.06,7.23,11.67,6.21,1.81,7.73-3.55,9.89-7.59,18.29-34.21,45.73-60.46,74.56-85.49,5.37-4.66,10.84-9.2,16.23-13.83,2.14-1.84,4.32-3.58,7.34-2.24,3.05,1.35,3.26,4.2,3.18,6.98-.36,11.74-.81,23.48-1.23,35.23-.09,2.38-1.18,5.72,1.79,6.4,2.71.62,2.7-2.88,3.36-4.77,7.54-21.72,15.02-43.47,22.43-65.24.84-2.48,2.78-5.33.23-7.64-2.69-2.44-5.68-.63-8.45.47-13.73,5.47-27.46,10.96-41.18,16.44,0-.54.13-1.14-.04-1.63-5.11-14.76-4.94-14.12,10.77-18.52,25.01-7,50.47-7.79,76.15-8.08,13.84-.15,27.68-1.77,41.48-3.15,4.25-.43,8.6-1.72,11.86-5.02Z" style="fill: #28526f;"/>
      <path d="m1198.93,1946.29c.72-43.56-1.71-86.97-5.98-130.29-.35-3.53-.42-7.09-.62-10.64,1.94-3.96,5.66-4.66,9.5-5.46,40.35-8.4,80.7-16.82,120.91-25.89,9.33-2.1,18.6-4.44,27.86-6.79,4.14-1.05,8.03-1.13,12,.29,18.86-3.2,37.73-6.4,56.59-9.6,11.97-.19,21.18,6.94,30.86,12.24,33.63,18.39,65.91,39.05,98.28,59.52,1.63,1.03,3.24,2.04,4.64,3.37,1.84,1.74,3.66,3.78,2.85,6.39-.8,2.6-3.37,3.41-5.93,3.69-3,.33-6.02.36-9.03.25-25.24-.88-50.23,1.95-75.2,5.05-2.4.3-6.82,1.09-6.49,2.07.95,2.77,4.48,2.02,7.07,2.22,40.16,3.08,79.21,10.87,115.12,29.82,14.88,7.85,30.02,15.79,42.01,28.19,1.7,5.07.57,9.31-3.69,12.64-4.76,2.12-9.11.42-13.37-1.58-8.93-4.21-17.06-9.83-25.58-14.76-14.87-8.6-30.24-15.11-48.03-14.43-10.55.4-19.64,4.78-28.82,8.85-34.27,15.18-68.31,30.86-102.6,45.98-31.02,13.68-61.24,29.29-93.7,39.54-32.29,10.2-64.75,12.74-97.45,1.71-2.87-.97-5.86-1.52-7.66-4.3-1.19-12.7-2.37-25.4-3.56-38.1Z" style="fill: #a85431;"/>
      <path d="m1202.5,1984.39c11.94.08,22.86,5.34,34.55,6.82,40.07,5.08,76.16-8.33,111.64-24.1,54.54-24.24,108.86-48.96,163.4-73.19,24.88-11.05,47.61-3.27,69.51,9.36,12.07,6.96,23.35,15.43,37.01,19.35,1.9,2.09,1.7,4.62.9,6.91-4.19,12-8.32,24.03-13.19,35.77-1.05,2.53-2.59,4.77-5.22,5.99-3,1.15-5.9.53-8.65-.73-14.02-6.45-27.22-14.46-40.95-21.48-2.41-1.23-4.37-3.19-5.65-5.66-1.88-5.47-2.48,1.28-3.86.45-6.88,2.4-13.96,3.8-21.23,4.26-2.6-.22-4.9,1.41-7.49,1.25-27.03,3.73-50.28,15.48-71.15,32.74-11.7,9.68-25.34,15.97-39.88,20.26-2.09.62-4.18,1.25-6.3,1.78-11.7,2.9-18.43,10.01-19.21,22.31-.26,4.23-1.16,8.17-5.59,10.17-11.09,1.52-22.36,2.08-33.41,2.1-29.46.07-58.85,2.83-88.31,2.1-4.63-.11-9.27-.07-13.85.93-3.96.86-7.61.21-10.44-3.03-9.04-.98-18.25,1.16-27.21-1.4,1.53-17.66,3.06-35.31,4.59-52.97Z" style="fill: #d99378;"/>
      <path d="m873.37,2101.01c-.5.44-1,.87-1.49,1.31-6.64-.41-13.28-.82-19.92-1.24,7.13-2.27,14.27-2.1,21.41-.07Z" style="fill: #28526f;"/>
      <path d="m1263.67,2088.2c3.97-.04,7.93-.07,11.89-.11-3.97.04-7.93.07-11.89.11Z" style="fill: #377e9f;"/>
      <path d="m1095.95,2088.05c2.88.05,5.75.1,8.62.15-2.88-.05-5.75-.1-8.62-.15Z" style="fill: #377e9f;"/>
      <path d="m1054.77,2086.46c.73.03,1.46.05,2.19.08-.73-.03-1.46-.05-2.19-.08Z" style="fill: #377e9f;"/>
      <path d="m1362.61,1767.51c-31.64,9.63-64.17,15.51-96.39,22.68-24.54,5.46-49.24,10.14-73.88,15.17-3.72-13.6-8.84-25.65-26.45-23.87-1.36.28-2.64-.43-3.99-.29-15.61-1.77-31.21-3.54-46.82-5.31-2.35-2.09-3.57-4.67-3.51-7.86.27-16.27-2.9-32.24-4.29-48.37,1.35-5.53,4.09-10.89,2.07-16.85,2.22-12.77.41-25.59.65-38.38.91-48.69,2.37-97.37,3.61-146.04.67-4.11,1.07-8.25,1.25-12.42.24-2.14.28-4.28.05-6.44-.52-8.31,2.24-16.4,1.61-24.71.18-2.11.22-4.23-.02-6.34-.71-8.28,1.42-16.33,1.84-24.52.48-2.32,1.57-4.58.62-7.03-.33-1.96-.17-3.91.01-5.87.1-1.57,0-3.13-.17-4.7.82-8.87.7-17.78,1.44-26.64.26-1.59.41-3.19.24-4.82-.44-3.91.28-7.74.72-11.59.38-1.34.86-2.64,1.02-4.05.23-21.26,2.59-42.41,2.61-63.68,0-5.56-1.98-10.68-2.31-16.11,1.59-8.8-1.78-18.09,2.55-26.64.76-31.02-10.09-58.98-23.9-85.81-9.22-17.92-20.36-34.84-30.65-52.21-4.32-5.53-6.95-11.95-9.7-18.31-3.47-7.44-6.94-14.88-10.4-22.32-1.45-6.43-2.9-12.86-4.35-19.28,5.3-2.39,8.16,1.64,11.16,4.55,10,9.69,19.64,19.75,29.61,29.47,29.43,28.69,61.65,53.81,96.99,74.83,4.59,2.73,8.47,5.84,11.44,10.19,5.01,3.33,5.6,8.04,5.59,13.78-.08,33.52,4.35,66.79,6.3,100.2,0,.67.04,1.34.1,2.01.87,8.15,1.96,16.29,2.56,24.46,9.9,134.62,66.06,252.13,135.88,364.29,11.55,18.55,18.71,36.57,16.17,58.26-.4,3.44.46,7.03.74,10.56Z" style="fill: #d9ebe5;"/>
      <path d="m1362.99,1286.07c-2.88,42.16,1.2,84.17,2.82,126.23,1.28,33.34,2.7,66.68,4.05,100.02.06,1.39.06,2.78.01,4.17.39,6.15.78,12.31,1.18,18.46-.21,1.62-.65,3.26.23,4.83-2.89,10.41-1.56,21.13-2.03,31.69-1.17,26.68-1.73,53.39-2.54,80.09-.11,1.71-.07,3.43-.08,5.14-.5,13.68-.96,27.36-1.53,41.04-.1,2.33.85,5.55-2.01,6.51-2.83.95-4.16-2.18-5.63-3.93-3.5-4.19-7.37-8.29-9.88-13.06-36.74-69.68-75.43-138.41-100.66-213.56-18.46-54.99-26.4-111.66-29.83-169.24-1.73-28.96-4.12-57.89-6.27-86.83-.29-3.9-.19-7.66,1.78-11.16,4.24-3.32,8.32-1.12,12.36.45,15.54,6.04,30.81,12.82,47.48,15.44,7.65,1.21,15.38,1.56,22.89.34,13.79-2.24,23.15-10.38,28.06-23.59,3.93-10.56,5.62-21.64,7.74-32.63.17-4.61,1.47-8.46,6.47-9.91,6.85,16.7,8.73,34.61,12.4,52.06,3.75,17.82,6.61,35.83,9.86,53.75.04.75.07,1.5.09,2.26.29,2.28.58,4.57.86,6.85.37,1.95-.52,4.06.72,5.9.1.32.24.61.43.89,1.31,2.47-.13,5.31,1.04,7.8Z" style="fill: #d9ebe5;"/>
      <path d="m1195.27,1193.95c-46.77-24.48-86.64-57.91-123.83-94.92-8.26-8.21-14.62-18.5-25.36-24.11-14.56-40.33-29.07-80.66-43.73-120.95-1.95-5.35-.7-8.99,4.28-11.5,15.17-4.52,30.42-8.78,45.49-13.6,33.44-10.69,68.18-15.67,102.27-23.49,8.02-1.84,11.7,2.28,13.66,9.25,4.82,17.1,9.62,34.22,14.6,51.28,1.19,4.08,1.33,8.82,5.59,11.45-3.64,44.17,2.09,88.16,3.02,132.23.59,28.11.38,56.36,4.03,84.36Z" style="fill: #a85431;"/>
      <path d="m1337.59,1156.58c-1.47,3.54-2.93,7.09-4.4,10.63-11.65,14.12-26.03,22.55-44.91,19.96-15.14-2.08-22.69-13.35-27.97-26.07-4.39-10.57-7.82-21.55-12.13-32.18-9.76-24.06-20.77-47.54-33.58-70.14-3.5-6.17-4.11-13.48-7.93-19.51-6-14.11-2.15-29.15-3.89-43.72-2.28-19.18-1.73-38.7-2.25-58.08-.05-1.94-1.34-4.46,1.14-5.73.24-.12,2.29,2.63,3.05,4.25,22.8,48.52,57.47,88.15,94.92,125.53,13.7,13.67,28.8,25.95,43.43,38.66,6.74,5.85,8.45,12.31,4.28,20.35-5.85,11.29-7.98,23.63-9.78,36.03Z" style="fill: #5f322f;"/>
      <path d="m1639.24,1770.1c8.14,4.09,16.29,8.18,24.43,12.27,2.12,2.36,1.68,5,.78,7.66-7.18,21.33-13.65,42.9-20.67,64.28-.85,2.58-1.62,5.23-4.17,6.77-4.94,2.28-9.94,1.93-15.19.89-23.01-4.55-42.83-16.14-62.28-28.32-38.63-24.19-77.59-47.85-116.23-72.04-3.4-2.13-8.46-3.6-7.34-9.5,24.35-13.29,45.4-33.5,75.01-35.75,1.99-1.7,3.83-1.48,5.54.43,32.11,14.69,64.44,28.87,97.44,41.49,8.45,2.23,15.58,7.01,22.68,11.83Z" style="fill: #a85431;"/>
      <path d="m1639.24,1770.1c-9.21-.8-16.86-4.57-22.68-11.83-4.87-24.07-14.93-46.22-25.83-67.96-17.21-34.34-40.35-64.76-62.57-95.97-79.4-111.53-116.15-234.17-91.75-371.58,2.48-13.99,5.28-27.92,7.93-41.88,4.45-4.95,9.29-8.07,15.8-3.38-4.45,35.26-12.19,70.1-13.69,105.73-4.1,97.42,21.63,186.67,73.89,268.6.55.87,1.58,1.43,2.38,2.14,13.52,20.22,26.84,40.59,40.61,60.64,33,48.1,59.96,99.11,75.92,155.5Z" style="fill: #f4f2e5;"/>
      <path d="m1206.67,1039.28c16.52,23.4,27.96,49.48,39.44,75.5,6.07,13.76,11.18,27.96,16.26,42.13,10.51,29.33,35.21,36.35,59.57,16.61,3.42-2.77,6.56-5.86,11.25-6.3-.52,5.7-.54,11.5-1.64,17.09-6.88,34.99-26.21,47.68-61.54,41.43-20.16-3.57-38.25-12.96-57.43-19.25-3.67-7.1-3.92-14.07-2.13-22.12,2.92-13.14.78-26.71.39-40.11-.81-28.19-1.2-56.4-2.02-84.59-.2-6.81-1.41-13.59-2.16-20.38Z" style="fill: #a85431;"/>
      <path d="m1438.58,1752.11c29.45,18.44,58.86,36.94,88.37,55.29,19.07,11.85,38.09,23.8,57.48,35.1,16.7,9.74,34.67,16.3,54.14,18.05,1.89,1.99,1.99,4.23,1.23,6.77-3.73,12.39-7.42,24.79-11.95,36.91-1.06,2.83-1.59,6.66-6.12,6.37-10.04-6.08-20.08-12.16-30.11-18.25-37.93-23.05-80.03-31.79-123.44-36.08-4.35-.43-8.7-.91-13.05-1.39-2.83-.31-5.88-.84-5.7-4.48.17-3.58,3.29-3.73,6.08-4.13,30.38-4.29,60.84-7.51,91.6-6.29,2.24.09,5.39,1.52,6.5-1.3.3-.77-2.99-3.31-4.94-4.54-42.36-26.74-84.62-53.66-129.44-76.23,6.16-2.91,11.82-7.52,19.37-5.8Z" style="fill: #d99378;"/>
      <path d="m1326.87,855.64c4.84-1.05,8.71-.48,9.93,5.36,1.29,6.22,8.47,4,11.54,7.87,12.63,15.94,33.77,25.84,35.27,49.68-2.72,1.28-5.38,2.72-8.17,3.82-3.4,1.34-6.58,4.83-10.61,2.16-4.75-3.14-.85-6.81-.21-10.26,1.09-5.91-1.96-9.99-6.17-13.4-8.31-6.73-16.57-13.47-21.11-23.57-1.09-2.42-2.83-4.08-5.72-3.77-3.01.32-3.89,2.47-4.4,5.1-.22,1.11-1.55,3.02-1.72,2.95-2.05-.84-1.41-2.66-.97-4.11,2.16-7.14,3.4-14.35,2.34-21.83Z" style="fill: #5f322f;"/>
      <path d="m1403.09,978.27c3.36.32,5.01,2.29,4.59,5.52-2.26,17.3,8.16,29.41,17.06,42.17,3.91,5.6,8.19,11.08,7.28,18.58-13.02-9.87-27.25-18.69-31.16-36.37-.17-.79-.39-1.88-.95-2.21-15.29-9.04-3.51-16.26,1.53-23.97.73-1.12,1.12-2.47,1.66-3.71Z" style="fill: #5f322f;"/>
      <path d="m1384.9,919.18c12.98,7.3,16.78,15.76,11.75,28.82-3.1,8.04-1.58,16.2-2.52,24.26-9.88-3.19-14.47-9.4-11.04-19.88,1.62-4.95,1.71-9.55-1.21-14.08-4.66-7.22.98-12.91,3.01-19.13Z" style="fill: #5f322f;"/>
      <path d="m1519.12,1716.78c-1.85-.14-3.69-.29-5.54-.43,2.88-36.85,5.74-73.7,8.72-110.54.19-2.31,1.26-4.55,1.93-6.82,3.15,1.68,2.06,4.73,1.92,7.12-2.25,36.9-4.66,73.78-7.03,110.67Z" style="fill: #b9dbcf;"/>
      <path d="m1460.14,1177.48c-5.27,1.13-10.53,2.25-15.8,3.38.03-4.1.04-8.19.08-12.29.05-5.7,1.21-10.4,8.42-10.56,6.65-.15,11.36,1.75,11.55,9.38-1.42,3.36-2.83,6.73-4.25,10.09Z" style="fill: #b9dbcf;"/>
      <path d="m1184.88,858.39c4.82-.44,9.63-.88,14.45-1.33-2.52,4.28-.31,8.59.43,12.65,1.91,10.46-3.14,13.79-12.44,13.6-3.31-8.06-4.23-16.36-2.44-24.93Z" style="fill: #b9dbcf;"/>
      <path d="m1366.62,1656.7c.03-1.72.06-3.44.08-5.15-.03,1.72-.06,3.44-.08,5.15Z" style="fill: #377e9f;"/>
      <path d="m1362.99,1286.07c-.35-2.6-.69-5.21-1.04-7.8,1.75,2.42,1.84,5.05,1.04,7.8Z" style="fill: #28526f;"/>
      <path d="m1207.25,1309.94c-.16-.46-.37-.92-.45-1.39-.03-.18.23-.42.36-.63.18.47.41.92.5,1.4.03.17-.26.41-.41.62Z" style="fill: #377e9f;"/>
      <path d="m1621.71,1910.59c8.15-15.83,12.46-32.95,16.85-50.05,8.37-26.05,16.74-52.11,25.11-78.17,11.29-35.03,22.57-70.05,33.86-105.07-1.92-3.42-1.19-6.89-.11-10.33,10.53-33.63,21.98-66.97,32.46-100.62,1.19-3.83,3.19-6.89,6.53-9.09,3.97-12.93,7.93-25.85,11.9-38.78,18.01-53.08,36.3-106.07,53.95-159.27,19.55-58.94,38.47-118.08,57.74-177.11,2.79-8.55,5.31-17.28,11.16-24.45.8-.78,1.49-.69,2.06.27-10.69,33.07-21.26,66.17-32.1,99.19-39.69,120.98-79.9,241.78-119.1,362.92-40.54,125.28-80.13,250.87-120.2,376.3-2.91,9.11-2.15,20-12.01,25.92-2.84-2.44-2.91-5.59-2.3-8.93,2.22-12.23,5.36-24.27,7.88-36.44.57-2.75,2.11-4.95,4.63-6.37,6.2-15.97,12.39-31.95,18.59-47.92,2.6-3.6,3.61-7.62,3.11-12.02Z" style="fill: #d9ebe5;"/>
      <path d="m1873.22,1157.93c-.69-.09-1.37-.18-2.06-.27.54-.63,1.07-1.25,1.61-1.88.15.71.3,1.43.45,2.14Z" style="fill: #fafef1;"/>
      <path d="m1487,787.67c-22.87,4.47-38.25,18.8-42.33,40.07-2.82,14.71,3.47,26.26,14.52,35.17,14.16,11.41,29.84,10.12,45.65,3.77,9.77-3.92,18.28-9.74,25.14-17.81,3.01-3.54,6.46-5.85,11.36-4.93,1.92,3.17.52,5.89-1.56,8.11-17.15,18.25-37.39,30.4-63.15,31.25-3.48.12-7.21.37-9.5-3.24-15.58-8.79-26-20.48-31.06-38.89-5.91-21.5-23.28-37.43-34.24-56.69-16.62-29.23-30.38-60.2-51.48-86.73-10.55-13.26-21.77-25.99-32.74-38.93-1.7-2.01-3.14-4.94-6.56-3.73-2.73.97-3.02,3.68-3.46,6.09-1.75,9.67-3.45,19.34-5.17,29.01-6.04-17.86-5.92-36.92-10.78-55.04-1.04-3.86,2.41-3.42,4.85-2.39,8.01,3.38,15.98,6.86,23.96,10.3,14.06,14.12,27.43,28.89,41.01,43.47,2.79,2.99,6,5.63,7.8,9.43,6.08,10.21,12.5,20.25,17.77,30.9,3.33,6.73,9.02,9.47,15.42,11.71,1.37,1.65,1.61,3.6,1.48,5.64-.02,2.27.71,4.27,2.07,6.09,10.45,14.03,19.91,28.76,29.95,43.08,4.77,6.81,5.95,7.01,11.84,1.14,7.86-7.82,16.1-14.84,27.38-17.15,4.13-.84,8.16-1.54,11.34,2.25.17,2.68.34,5.36.51,8.05Z" style="fill: #5f322f;"/>
      <path d="m1467.12,880.06c30.87.55,55.44-11.84,74.22-36.12,5.52-.53,4.85,3.08,4.11,6.41-4.72,21.26,3.42,37.44,19.85,50.3,6.64,5.2,10.71,11.03,6.41,19.7-27.72,4.32-55.43,8.63-83.14,12.95-11.01-7.61-20.28-16.55-24.41-29.88-2.6-8.38-2.47-16.13,2.98-23.35Z" style="fill: #d99378;"/>
      <path d="m1736.41,1557.28c-11.94,40.34-24.89,80.35-38.88,120.03-6.85-.11-13.7-.04-20.54-.38-8.94-.44-11.73-5.31-8.22-13.27,3.76-8.51,8.35-16.65,12.18-25.13,7.86-17.43,3.69-27.62-14.44-33.57-12.19-4-24.76-6.86-37.23-9.97-10.96-2.73-14.65-9.24-11.92-20.14,2.38-9.5,7.66-18.1,7.68-28.38.02-8.73-2.45-16.24-8.1-22.59-8.45-9.5-10.39-20.11-6.7-32.07,5.54-17.98,8.89-36.19,4.1-54.91-.97-3.81-1.08-9.14-5.74-10.08-4.19-.85-5.98,4.08-8.74,6.56-1.01.9-1.77,2.09-2.61,3.16-3.88,4.95-6.11,12.89-14.74,10.21-8.24-2.56-9.37-10.55-10.01-17.44-3.15-33.73-5.77-67.5-8.52-101.26-.97-11.98-1.78-23.97-2.66-35.95,3.85.54,6.55,2.9,8.42,6.01,12.74,21.2,28.16,40.38,44.34,58.98,19.06,21.92,22.8,47.01,16.2,74.58-3.69,15.4-7.97,30.77-8.69,46.71-.93,20.43,8.38,35.2,26,44.93,28.01,15.47,58.72,23.95,88.82,33.98Z" style="fill: #28526f;"/>
      <path d="m1531.36,682.93c-4.05-4.82-9.46-7.56-15.39-8.84-16.48-3.56-30.89-12.43-46.71-17.66-2.49-.82-6.14-1.65-6.1-4.64.05-3.39,3.8-4.45,6.62-5.17,18.92-4.85,37.62-.52,56.04,2.71,21.5,3.77,42.64,9.58,63.94,14.51,3.4,4.12,6.8,8.25,10.2,12.37-23.45-3.6-46.48-3.02-68.62,6.73Z" style="fill: #20173a;"/>
      <path d="m1672.3,704.12c6.72,2.64,13.43,5.27,20.15,7.91,2.26,2.96,2.16,5.79-.45,8.5-7.08,5.46-16.55,8.98-14.77,21.04.45,3.07-3.66,2.42-5.89,2.29-9.75-.57-19.49-1.33-29.23-2.05-8.2-.61-7.01-5.76-5.33-11.12,13.44-6.72,23.72-17.66,35.52-26.56Z" style="fill: #a85431;"/>
      <path d="m1571.84,684.44c6.57,0,13.1.19,19.23,3,4.89,2.75,5.94,8.22,8.81,12.4,1.15,1.68,1.43,4.81,4.1,4.44,2.97-.41,1.66-3.49,2.21-5.4.45-1.57.79-3.19,2.76-3.57,13.58,7.32,21.37,31.58,14.87,45.58-1.67,3.59-4.7,3.31-7.54,3.76-5.86.93-9.2,4.86-11.04,9.89-1.8,4.91,1.35,8.43,5.01,11.14,7.88,5.84,7.51,11.9,2.23,19.67-16.51,24.3-36.7,42.22-68.19,41.8-24-.32-40.69-12.99-44.47-36.74-3.47-21.76-6.72-44.52,13.03-61.86,7.15-2.49,13.91.32,20.8,1.49.84.14,1.96.8,2.58-.32.08-.14-1.27-.81-2.01-1.16-2.72-1.27-5.71-1.88-8.36-3.26-2.46-1.29-6.03-1.62-5.67-5.74,1.03-2.02,2.06-4.04,3.09-6.06,3.13-2.89,6.78-1.26,10.2-1.01,2.43.18,4.78,1.15,7.29,1,1.65-.1,3.27-.32,4.85-.8-1.05-1.13-2.67-.88-3.9-1.65-4.25-2.64-7.75-5.53-4.59-11.2,4.86-1.66,9.55-4.06,14.81-4.14,5.91-.09,9.84-2.81,11.98-8.25,2.04-2.63,5.39-1.76,7.95-3Z" style="fill: #d99378;"/>
      <path d="m1366.93,697.66c-14.14-15.38-28.26-30.78-42.43-46.13-2.25-2.44-4.52-4.77-4.06-8.46,34.13,13.98,68.26,27.96,102.4,41.93,4.8,1.96,9.64,3.85,14.46,5.77,4.8-.59,8.03,1.72,10.39,5.63,5.17,17.29,18.66,25.32,34.36,30.98,3.97,1.43,8.83,1.52,11.01,6.21-2.24,9.24-4.48,18.47-6.73,27.71-2.55,3.72-6.35,3.94-10.21,3.35-12.38-1.87-24.48-4.64-35.72-10.53-10.4-5.46-20.96-10.48-33.32-6.88-1.85.54-3.77-.14-5.23-1.61-.26-2.29-.52-4.58-.78-6.87-.06-1.1-.01-2.2.53-3.17,6.49-11.65,5.16-17.26-5.82-25.26-5.35-3.9-11.21-6.61-17.67-7.98-4.05-.86-7.76-2.4-11.19-4.69Z" style="fill: #a85431;"/>
      <path d="m1680.64,846.89c2.41-18.44,10.23-35.35,15.05-53.12,2.84-10.48,6.4-20.76,9.63-31.13,2.71-2.3,5.72-1.49,8.48-.46,9.68,3.61,19.27,7.66,27,14.66,7.77,7.04,15.66,13.38,26.53,14.68,1.61.19,2.95,1.33,3.65,2.95-5.33,37.22-53.65,65.25-90.34,52.41Z" style="fill: #f23c2f;"/>
      <path d="m1722.03,722.46c9.33-2.1,18.7-3.14,28.31-2.27,23.01,2.08,34.64,16.17,31.73,39.37-.98,7.8-3.01,15.46-4.56,23.19-3.1,2.87-6.48,2.3-9.87.73-13.11-6.04-27.01-10.13-40.11-16.13-7.51-3.44-16.11-5.91-19.17-15.16,2.16-11,4.32-22.02,13.67-29.73Z" style="fill: #f23c2f;"/>
      <path d="m1401.85,745.64c12.24-5.89,23.87-3.51,35.2,2.61,15.38,8.3,31.68,13.13,49.27,13.06.05,6.11.11,12.21.16,18.32-16.49-.4-28.65,7.95-38.68,19.84-5.35,6.34-8.6,5.53-12.91-1-9.93-15.04-20.35-29.76-30.61-44.58-1.74-2.52-3.53-4.93-2.44-8.25Z" style="fill: #d99378;"/>
      <path d="m1709.72,752.12c19.99,15.97,44.63,21.67,67.79,30.62-2.44,3.77.5,10.53-6.54,11.74-11.71.6-21.11-4.04-29.21-12.26-10.09-10.24-23.42-14.69-36.45-19.58-6-5.77-14.22-6.7-21.43-9.84-.07-4.55,1.21-8.19,6.24-9.32,7.56-1.69,14.65,1.44,19.6,8.64Z" style="fill: #d9ebe5;"/>
      <path d="m1493.05,733.59c-13.11-2.41-25.33-6.92-35.73-15.53-6.34-5.25-10.68-11.69-11.19-20.21,2.09-2.98,4.92-2.03,7.35-.97,13.98,6.15,27.22,13.92,41.64,19.12,1.29.46,2.11,1.69,2.43,3.11,2.37,6.03-2.09,9.93-4.51,14.48Z" style="fill: #20173a;"/>
      <path d="m1497.56,719.12c-15.82-2.54-29.02-11.4-43.2-17.91-2.69-1.24-5.49-2.24-8.23-3.35-2.95-2.36-5.9-4.72-8.85-7.08,1.98-5.16,5.54-2.22,8.15-1.21,16.78,6.5,33.49,13.19,50.15,19.97,5.06,2.06,8.75,4.86,1.97,9.58Z" style="fill: #d9ebe5;"/>
      <path d="m1709.72,752.12c-6.53-2.88-13.06-5.76-19.6-8.64,3.54-12.35,22.64-24.94,31.9-21.02-4.1,9.89-8.2,19.78-12.3,29.66Z" style="fill: #d99378;"/>
      <path d="m1537.46,700.31c-.53,11.39,10,7.52,15.21,10.98,1.5.99,4.59,2,4.49,2.56-.46,2.63-3.03,1.34-4.71,1.54-9.83,1.21-19.64,1.49-29.18-1.9-1.97-6.9.72-11.67,6.74-15,13.09-7.24,25.42-16.69,41.82-14.05-2.04,1.06-4.08,2.12-6.12,3.18-8.97,5.24-19.04,8-28.26,12.69Z" style="fill: #5f322f;"/>
      <path d="m1520.19,719.55c7.1,2.76,14.21,5.49,21.28,8.3,2.3.91,4.93,2,3.96,5.16-.87,2.81-3.37,2.12-5.52,1.64-9.02-2.02-18.04-4.06-27.06-6.09,2.45-3,4.89-6,7.34-9Z" style="fill: #28526f;"/>
      <path d="m1608.96,695.31c.25,2.94.74,5.87.7,8.8-.04,2.98-1.8,5.07-4.65,6-2.53.82-4.26-.44-5.17-2.69-2.73-6.75-7.76-12.49-8.76-19.99,7.43-.71,13.21,2.32,17.88,7.87Z" style="fill: #a85431;"/>
      <path d="m1657.72,787.92c-4.04.02-8.72.63-9.48-4.91-.95-6.85.35-12.97,8.16-15.39,15.62,5.78,3.69,13.35,1.32,20.3Z" style="fill: #a85431;"/>
      <path d="m1672.99,846.99c-6.81-6.38-8.53-15.07-10.6-23.58-.23-.95.14-2.04.23-3.07.92.8,2.3,1.43,2.69,2.44,3.11,7.9,6.03,15.86,9,23.81-.41.22-.85.36-1.32.39Z" style="fill: #b9dbcf;"/>
      <path d="m1691.99,720.52c.15-2.83.3-5.66.45-8.49,8.5-.37,17-.74,25.5-1.11-8.65,3.2-17.3,6.4-25.96,9.61Z" style="fill: #5f322f;"/>
      <path d="m1620.28,901.23c-1.26.64-2.53,1.29-3.79,1.93-11.72-5.2-23.47-10.35-35.14-15.68-1.59-.72-3.62-2.19-3.92-3.62-.52-2.53,2.1-3.44,4.04-4.42,15.85-7.98,33.64,2.01,38.81,21.79Z" style="fill: #20173a;"/>
      <path d="m1110.9,1716.47c1.37,19.81,5.48,39.42,4.18,59.42-5.01-.03-10.02-.07-15.02-.1-4.03-3.57-4.93-8.11-4.88-13.33.09-8.69.22-17.4-1-26.05-1.76-17.85-3.52-35.7-5.28-53.55-.09-.53-.12-1.06-.1-1.6-4.63-46.24-8.43-92.54-10.68-138.96-.21-.51-.26-1.04-.14-1.59-1.33-19.98-2.65-39.96-3.98-59.94-.03-.6-.06-1.2-.09-1.8-.8-15.05-1.6-30.11-2.41-45.16-.19-.52-.21-1.05-.06-1.58-.71-45.17-1.4-90.35-2.14-135.52-.08-4.64-.46-9.28-.7-13.92,1.11-17.48,1.99-34.97-1.35-52.31-1.74-9.02-5.94-16.97-11.72-24.1-2.35-2.9-5.83-5.56-3.62-10,2.52-5.06,6.74-1.51,10.21-1.73,6.16-.97,9.59,1.48,9.86,7.88,11.78,15.92,13.26,34.98,16.38,53.55,4.13,9.03,2.05,18.5,2.02,27.82-.62,5.66,1.16,11.36-.23,17.01,4.18,28.63,1.6,57.43,2.2,86.15.19,2.46.11,4.94.1,7.41-1.17,13.82,3.5,27.53.76,41.38,4.09,35.8,4.63,71.84,6.96,107.75,1.74,26.96,3.33,53.93,5.51,80.85,1.52,18.76,3.97,37.43,4.91,56.26.38,7.65-.26,15.28.37,22.9,1.27,4.29.54,8.57-.05,12.86Z" style="fill: #fafef1;"/>
      <path d="m1094.18,1736.42c4.69,12.72,3.52,26.31,5.88,39.37-3.29-.16-6.74.58-9.67-1.67,1.26-12.57,2.53-25.14,3.79-37.7Z" style="fill: #377e9f;"/>
      <path d="m1073.9,1478.98c.15.42.36.83.44,1.27.03.16-.23.37-.35.55-.18-.43-.4-.84-.5-1.28-.03-.14.27-.35.41-.53Z" style="fill: #377e9f;"/>
      <path d="m1077.97,1540.72c.22.37.48.73.63,1.12.03.08-.32.31-.49.47-.11-.35-.27-.69-.33-1.04-.03-.17.12-.36.18-.55Z" style="fill: #b9dbcf;"/>
      <path d="m1071.44,1432.24c.2.38.44.75.57,1.15.03.08-.33.29-.51.44-.02-.53-.04-1.06-.06-1.59Z" style="fill: #b9dbcf;"/>
      <path d="m1071.99,1202.53c-3.29-2.63-6.57-5.25-9.86-7.88-3.73-19.96-18.65-33.06-30.05-48.15-51.45-68.1-115.24-124.11-178.36-180.76-29.55-26.53-56.5-55.64-82.54-85.58-1.42-1.64-2.68-3.53-3.56-5.5-2.37-5.29-5.72-12.87-.75-15.82,5.79-3.43,7.32,5.3,9.82,9.01,31.38,46.47,71,85.36,112.96,121.88,37.74,32.85,77.07,63.86,114.81,96.7,24.11,20.98,38.38,49.56,54.11,76.81,5.2,9,10.53,17.93,15.54,27.04,2.43,4.42,4.74,9.24-2.12,12.25Z" style="fill: #20173a;"/>
      <path d="m1088.24,1284.38c.04-9.43.09-18.87.13-28.3,12.24,5.59,24.47,11.18,36.71,16.77,2.25,8.6,2.16,17.33,1.55,26.1-1.73,2.46-.69,5.24-.85,7.86-.42,7.14-4.65,9.44-10.78,5.49-4.57-2.95-8.18-7.12-11.78-11.12-5.02-5.57-11.97-9.45-14.97-16.8Z" style="fill: #377e9f;"/>
      <path d="m1060.82,1116.53c3.23,6.1,6.47,12.2,9.7,18.31-6.55-4.35-9.42-10.64-9.7-18.31Z" style="fill: #377e9f;"/>
      <path d="m1132.8,636.19c-1.32,2.21-2.56.66-3.33.18-21.01-13.18-39.95-8.19-57.94,6.33-1.44,1.16-2.68,3.57-5.31,2.36.81-1.62,1.38-3.43,2.48-4.83,13.32-17.06,42.51-20.84,59.84-7.78,1.49,1.12,2.82,2.46,4.26,3.73Z" style="fill: #377e9f;"/>
      <path d="m1090.4,750.16c-19.88-5.71-31.18-19.9-38-38.49-.35-.94-.22-2.06-.31-3.1.85.81,2.07,1.47,2.5,2.46,7.42,16.9,19.02,29.73,36.07,37.29.38.68.29,1.29-.27,1.83Z" style="fill: #377e9f;"/>
      <path d="m1159.71,703.64c-1.37,14.49-7.67,26.47-18.87,35.85-.88.73-2.28.84-3.44,1.23.56-1.08.9-2.39,1.72-3.2,9.69-9.57,14.47-21.59,17.58-34.5.36-1.48,1.58-4.13,1.77-4.08,2.72.79.74,3.03,1.24,4.7Z" style="fill: #377e9f;"/>
      <path d="m1152.44,661.17c7.56,8.47,9.38,18.64,8.59,29.52-.09,1.17-.76,3.18-1.41,3.28-1.96.31-1.5-1.67-1.75-2.83-2.15-10.07-4.26-20.14-6.39-30.22l.96.25Z" style="fill: #377e9f;"/>
      <path d="m1090.4,750.16c.09-.61.18-1.22.27-1.83,8.98.04,17.95.04,26.93.17,1.17.02,2.33.66,3.5,1.02-.98.72-1.87,1.85-2.95,2.09-9.36,2.11-18.74,3.58-27.74-1.45Z" style="fill: #377e9f;"/>
      <path d="m1152.44,661.17l-.44-.28-.52.03c-2.78-3.94-5.61-7.84-8.28-11.85-.62-.93-.64-2.25-.94-3.39,1.05.74,2.36,1.28,3.1,2.25,3.04,4.03,6.38,7.94,7.08,13.24Z" style="fill: #377e9f;"/>
      <path d="m1225.12,2038.75c49.46-1.75,98.93-3.49,148.39-5.24,2.76-3.44,6.68-3.2,10.47-3.25,11.15-.14,22.3-.2,33.44,0,6.66.12,12.98-.67,18.75-4.2,19.81,5.28,40.03,1.25,60.01,2.57,6.64.44,10.83-4.74,16.65-5.94,10.15,5,20.91,6.7,32.16,6.13,3.02-.15,5.99.49,7.38,3.83.02,2.74.04,5.48.07,8.22.19,18.47-1.93,19.95-20.6,21.11-48.44,3.01-96.91.64-145.36,1.43-42.69.7-85.39,1.27-128.09,1.66-16.06.15-30.05-11.25-33.26-26.31Z" style="fill: #d9ebe5;"/>
      <path d="m1552.36,2032.65c-7.31-.26-14.62-.47-21.93-.8-7.04-.31-13.39-2.17-17.57-8.47-5.29-1.51-6.3-5.44-5.82-10.23,4.46-19.28,5.56-39.05,8.24-58.59.47-3.43,1.4-6.25,3.46-8.85,7.68-1.6,15.35-3.21,23.03-4.81,1.89-.55,3.69-.72,5.04,1.13,17.73,9.49,35.47,18.99,53.21,28.48-3.4,17.25-6.8,34.49-10.2,51.74-3.45,8.21-9.91,10.81-18.29,9.72-6.43-.84-12.86-1.82-19.17.67Z" style="fill: #20173a;"/>
      <path d="m588.93,1384.45c6.58,19.37,14.1,38.48,19.54,58.17,13,47.06,17.57,95.59,23.03,143.91,1.38,12.16,4.52,24.22,2.94,36.63-8.08-12.97-7.57-28.16-10.61-42.37-17.33-81.09-35.57-161.88-67.06-238.98-1.08-2.63-4.23-6.37-1.3-8.09,3.84-2.25,5.23,2.84,6.78,5.23,9.06,13.96,17.82,28.12,26.67,42.21-1.01,1.14-1.13,2.27.04,3.38,0,0-.04-.09-.04-.09Z" style="fill: #28526f;"/>
      <path d="m516.13,1645.71c-.29.79-.35,1.88-.86,2.16-1.87,1.02-3.03-.51-4.11-1.63-13.66-14.08-28.97-26.58-38.19-44.66-18.26-35.81-36.7-71.56-61-103.85-1.09-1.45-3.13-3.3-1.12-4.9,1.9-1.52,3.48.78,4.69,2.07,14.1,15.11,23.86,33.31,35.22,50.33,20.96,31.38,41.25,63.22,61.82,94.87,1.19,1.83,2.33,3.68,3.56,5.64Z" style="fill: #28526f;"/>
      <path d="m705.35,1458.77c-5.18-1.37-6.45-5.84-8.3-10.05-1.97-4.5-2.83-10.1-9.09-11.19-7.48-27.38-14.99-54.75-22.4-82.16-.46-1.71-.87-4.54,0-5.26,1.69-1.39,2.72.89,3.33,2.26,15.23,33.86,30.78,67.62,36.56,104.78.08.53-.07,1.09-.11,1.63Z" style="fill: #28526f;"/>
      <path d="m369.19,1659.17c18.99,2.3,37.09,4.46,55.18,6.78,1.34.17,3.71,1.76,3.6,2.31-.57,3.01-2.88,1.25-4.55,1.14-23.03-1.46-45.94-7.13-69.13-2.09-5.58,1.21-11.01,3.08-16.52,4.62-2.44.69-5.78,3.64-7.18.46-1.56-3.55,2.87-4.57,5.34-5.88,10.67-5.66,22.57-5.78,33.27-7.33Z" style="fill: #28526f;"/>
      <path d="m487.17,1552.32c.67,1.1,1.41,2.55,2.36,3.85,8.82,12.07,17.67,24.12,26.51,36.17.94,1.29,2.57,2.9,1.04,4.21-2.16,1.85-3.43-.64-4.43-2-9.04-12.25-18.01-24.56-26.87-36.93-.88-1.23-2.78-3.1,1.39-5.3Z" style="fill: #28526f;"/>
      <path d="m472.88,1540.79c-1.81-2.34-3.27-4.2-4.62-6.14-.05-.08.92-.87,1.42-1.33,1.61,1.74,3.25,3.45,4.77,5.27.1.12-.71,1.02-1.57,2.2Z" style="fill: #28526f;"/>
      <path d="m462,1522.86c1.55,2.22,2.91,4.15,4.26,6.08-.58.34-1.59,1.08-1.69.98-1.61-1.73-3.11-3.56-4.63-5.37.52-.42,1.04-.85,2.06-1.68Z" style="fill: #28526f;"/>
      <path d="m480.28,1545.13c-.47.99-.77,1.61-1.06,2.22-.93-.78-1.96-1.47-2.71-2.4-.22-.27.4-1.2.64-1.83.99.64,1.98,1.27,3.13,2.01Z" style="fill: #28526f;"/>
      <path d="m588.97,1384.55c-1.53-1.11-1.44-2.24-.04-3.38.01,1.13.02,2.25.04,3.38Z" style="fill: #20173a;"/>
      <path d="m1161.9,1781.2c1.33.1,2.66.19,3.99.29-1.33-.1-2.66-.19-3.99-.29Z" style="fill: #b9dbcf;"/>
      <path d="m1437.48,2026.63c-2.74,6.05-7.9,8.07-14.02,7.97-16.65-.27-33.3-.71-49.94-1.09.03-22.71,4.2-28.38,25.97-34.04,18.13-4.72,33.75-13.9,48.12-25.62,19.37-15.8,41.31-25.44,66.46-27.16,3.6,7,.27,13.97-.41,20.84-1.27,12.65-2.83,25.27-4.23,37.91-.15,1.35-.79,2.61-1.31,3.85-3.49,6.02-8.17,2.97-12.11,1.11-12.61-5.96-24.99-12.41-37.5-18.59-10.5-5.19-11.05-4.86-13.07,6.28-1.17,6.45-2.26,12.9-3.33,19.37-.57,3.41-1.01,7.16-4.61,9.16Z" style="fill: #20173a;"/>
      <path d="m1506.33,2010.86c2.58-21.39,5.15-42.78,7.73-64.17,1.56-.33,3.13-.65,4.69-.97-3.08,22.74-6.15,45.48-9.22,68.22-2.66.63-3.62-.51-3.19-3.08Z" style="fill: #b9dbcf;"/>
      <path d="m1546.81,1942.04c-1.68-.38-3.36-.75-5.04-1.13,2.23-2.8,1.19-9.75,5.28-8.61,4.12,1.15-.6,6.3-.24,9.74Z" style="fill: #5f322f;"/>
      <path d="m1091.32,1435.25c-.9-14.44-1.81-28.88-2.72-43.32.07-.54.07-1.08,0-1.62-.13-29.82-.26-59.64-.39-89.46,6.11-1.76,7.37,3.1,9.01,6.92,6.79,15.79,12.61,31.97,18.9,47.96,3.08,7.84,6.62,15.56,7.35,24.13.62,1.55.67,3.19.7,4.83l-.44,11.68c-.01.34-.02.68-.04,1.02-.54,10.62-1.08,21.24-1.62,31.87-.01.33-.02.67-.04,1-.13,2.53-.26,5.07-.39,7.6-.03,1.18-.02,2.36-.12,3.54-.51,9.76-1.01,19.52-1.52,29.28-.02.67-.05,1.34-.08,2.01-.53,9.74-1.06,19.48-1.59,29.22-.02.67-.05,1.35-.11,2.02-.48,4.08-.96,8.17-1.43,12.25-5.49,3.73-9.22.82-12.33-3.5-2.44-3.38-3.52-7.55-3.87-11.5-1.36-15.69-4.18-31.21-5.34-46.92-.48-6.46-1.06-12.99-3.94-18.99Z" style="fill: #20173a;"/>
      <path d="m1091.32,1435.25c8.03,2.73,6.3,10.09,7.11,15.87,2.52,17.85,4.41,35.79,6.77,53.66.87,6.58,4,11.39,11.6,11.38-1.15,63.02-1.71,126.05-5.29,189-.36-.02-.73-.04-1.09-.06-8.81-70.06-13.3-140.46-16.74-210.94-.96-19.63-1.58-39.28-2.36-58.92Z" style="fill: #28526f;"/>
      <path d="m1123.15,1381.26c-9.78-24.29-19.57-48.58-29.33-72.89-1.22-3.03-1.87-6.41-5.6-7.53,0-5.49.02-10.98.02-16.47,10.45,4.35,15.91,14.37,24.19,21.19,2.8,2.31,4.59,6.97,9,5.91,5.05-1.21,2.9-6.24,3.83-9.64.28-1.01.9-1.93,1.36-2.89,2.09,27.51,1.51,54.96-1.94,82.34-.53,1.16-1.04,1.16-1.53-.03Z" style="fill: #28526f;"/>
      <path d="m1110.42,1705.11c.37-.09.73-.07,1.09.06-.2,3.77-.4,7.55-.61,11.32-.16-3.79-.32-7.58-.48-11.37Z" style="fill: #377e9f;"/>
      <path d="m1121.53,1441.38c.04-1.19.08-2.37.12-3.55-.04,1.19-.08,2.37-.12,3.55Z" style="fill: #377e9f;"/>
      <path d="m1118.23,1503.91c-.13-.48-.31-.96-.36-1.45-.02-.18.3-.39.47-.58.11.48.28.95.31,1.44.01.19-.27.39-.42.59Z" style="fill: #377e9f;"/>
      <path d="m1119.94,1472.67c-.14-.48-.33-.95-.38-1.44-.02-.18.29-.39.46-.58.12.48.29.95.33,1.42.02.19-.26.4-.4.6Z" style="fill: #377e9f;"/>
      <path d="m1123.15,1381.26c.51.01,1.02.02,1.53.02-.17,1.13-.33,2.26-.5,3.39-.34-1.14-.69-2.28-1.03-3.41Z" style="fill: #377e9f;"/>
      <path d="m1122.04,1430.24c-.35-.35-.34-.69.04-1.01.15.27.29.53.44.79-.16.07-.32.15-.48.22Z" style="fill: #377e9f;"/>
      <path d="m1123.7,1397.37c-.36-.36-.34-.7.04-1.02.15.27.3.53.45.8-.16.07-.32.15-.48.22Z" style="fill: #377e9f;"/>
      <path d="m1501.71,1741.59c2.92,1.2,7.44,2.14,10.84,4.62,25.61,18.7,54.52,31.29,82.69,45.24,2.04,1.01,6.09,1.88,4.97,4.33-1.2,2.61-4.31-.16-6.42-.93-36.63-13.31-75.01-20.13-112.47-30.36-2.81-.77-6.65-.47-7.35-4.11-.71-3.67,3.12-4.7,5.35-6.52,6.34-5.18,12.36-10.94,22.4-12.27Z" style="fill: #d99378;"/>
      <path d="m1366.93,697.66c14.94-.17,27.84,4.63,37.5,16.32,9.89,11.96,9.22,15.74-3.36,24.78-6.83,2.46-11.34-.02-14.69-6.25-6.3-11.71-12.95-23.24-19.45-34.84Z" style="fill: #d99378;"/>
      <path d="m1537.46,700.31c7.28-8.99,16.66-13.31,28.26-12.69.38,9.14-5.34,11.35-12.99,11.63-5.1.19-10.18.7-15.27,1.06Z" style="fill: #a85431;"/>
      <path d="m1506.33,2010.86c1.06,1.03,2.13,2.05,3.19,3.08,1.12,3.15,2.23,6.3,3.35,9.45-3.23,6.76-8.73,8.71-15.98,8.7-15.87-.03-31.77.11-47.59,1.2-6.24.43-8.21-3.91-11.82-6.66,1.95-12.33,4.08-24.63,5.78-36.99.93-6.75,3.99-7.33,9.47-4.64,17.82,8.73,35.73,17.26,53.6,25.86Z" style="fill: #377e9f;"/>
    </g>
  </g>
</svg>