<?xml version="1.0" encoding="UTF-8"?>
<svg id="Calque_2" data-name="Calque 2" xmlns="http://www.w3.org/2000/svg" viewBox="0 0 1650 1080">
  <g id="Calque_1-2" data-name="Calque 1">
    <rect x="0" y="0" width="1650" height="1080" rx="125.4397437001" ry="125.4397437001" style="fill: #fff;"/>
    <g>
      <path d="m907.8558954066,3.0926369193c.1662761841,136.5615267508.3337302396,273.1230535015.4967672773,409.6845802523.0153123286,12.7793349266.002159431,25.5586698532.002159431,40.4247131037h737.7664472532c0,58.6086824307,0,115.1340900758.0007852476,171.6610182878-245.1963185319.0015696175-490.3934223114.0015696175-737.1683830326.0015696175,0,9.463027518.0050059536,16.3199014311-.0007852476,23.1767753441-.1193576386,142.463288434-.2398931487,284.9265768679-.3566005766,427.3915330204-.6834598995.0932941383-1.3223569965.3202019637-1.9131576766.6823911946-55.5275096067.0003924044-111.0549210574.0008829098-166.5823815861.0012753142-.5969845051-.3587556928-1.2062875823-.3810246406-1.8278601536-.0668068435v-451.7708315479h-22.0107853301c-231.8430845532,0-463.6861691063.0100063114-695.5292444574-.0492467481-6.9110456121-.0017658196-13.8219056482-.7303626285-20.7328523375-1.1201182663-.0000007668-55.7193600242-.0000007668-111.4386709979-.0000007668-167.1579819716,6.9141344573-.3900989916,13.8281814944-1.1193334575,20.7424156413-1.1210992772,229.2754214494-.0594002111,458.5508935105-.0492467481,687.8263164937-.0492467481,2.6784796408,0,5.3569102036.0007848087,8.0353898444-.0000490505q21.9800134389-.0070142281,21.9895345663-21.2102899083c.0048587197-46.0436002886-.047900105-92.0872986784.0116805584-138.1308499164.1260813214-97.4318461601.3089949395-194.8635696938.4705596379-292.2971816735,56.26132351-.0179279745,112.5207329789-.0340410789,168.7799952139-.0501541832Z" style="fill: #ff4b55;"/>
      <path d="m739.0739370736,3.1446059726c-.1596015793,97.4317971095-.3425151974,194.8635206432-.4685965188,292.2953668033-.0595806634,46.0435512381-.0068218387,92.0872496278-.0116805584,138.1308499164q-.0022085089,21.2031775791-21.9895345663,21.2102899083c-2.6784796408.0008338593-5.3569102036.0000490505-8.0353898444.0000490505-229.2754229831,0-458.5508950442-.010153463-687.8263164937.0492467481-6.9142341469.0017658197-13.828281184.7310002856-20.7424156413,1.1210992772C.0000034508,436.6640482182.0000034508,417.3765887599.0000053679,398.0891293017c1.0732164835-.2342654072,2.1464306664-.4685308145,3.219643699-.7027962217,135.2869311231.1241959822,270.5738699145.278361848,405.8607964365.3172098804,11.1754969313.0031882855,22.3512392525-.7750476758,33.5268343397-1.1902114964,0,.0000490505.2001890658.0745568298.2001890658.0745568298,1.7448692955.352133869,3.4896895129.7042677381,5.2345588084,1.0564506577.1095911213-.4860909099.2191822427-.9721327693.328773364-1.4581746286-1.4151143719-.5363677195-2.8301796659-1.0726863884-4.2453431158-1.6089560067-1.1845460387-.8250301821-2.3690920775-1.6501584653-3.5536381162-2.4752867485-2.9167041383-2.2292001597-5.7069343314-4.6509237121-8.7683694221-6.6598869207-123.3691497364-80.9564544985-246.6944728399-161.9799610932-370.2220278799-242.6944492488C41.5206739257,129.6396608644,20.5500564299,117.9226136105.0000034508,105.5626608513.0000034508,102.348084275.0000034508,99.1335076986.0000057513,95.9189311222c4.3473923325-8.6036374285,8.6947815975-17.2072993823,13.0425619527-25.8104463053,5.5595240282,3.0682833232,11.3281018316,5.8127349424,16.645798732,9.2532383332,61.7165461025,39.9303571768,123.4235741449,79.8760181239,185.0179927704,119.9941653156,95.7128020845,62.3403008115,191.2634505349,124.9298764972,287.1297930686,187.0330179193,8.1621091795,5.2875016968,18.055296743,10.5487123011,27.3548861818,10.9500438676,29.3601632201,1.2671227523,58.8205927461.2161167053,88.2422015927.0620489406.8787411677-.3445310344,1.7574823354-.6890620689,2.6361744251-1.0336421538-.7401940403-.6834212561-1.4804371585-1.3667444111-2.2206802768-2.0500675661-1.5409503034-1.4422822518-2.9046309561-3.1577269937-4.6481751462-4.2878515713-123.8520524853-80.2799984199-247.705626388-160.5577895653-371.6261181114-240.732280261C177.1768232664,107.6330108181,112.6565965379,66.1581010014,48.1917512385,24.5976960831,64.8850267779,11.5340396672,82.912017798,2.1620990129,104.9519677156,2.6203046875c16.5790066735.3446536608,33.1721232652.0108646959,49.7585897911-.0208219567,2.0588701886-.0029185075,4.1181084619-.0059596413,6.1773467353-.0089762499,1.6570074482,2.0110723821,2.9421510691,4.5912291977,5.0249345016,5.9506650775,66.7817521511,43.5881299607,133.6831564087,86.9930806577,200.4780123795,130.5611734703,104.1124486698,67.9091073891,208.1603598006,135.916953527,312.2356564422,203.8830085999.840558502-.9247008914,1.6810679261-1.8494508333,2.5215282722-2.7742007752.1565587448-7.9911187365.4377264716-15.9820412709.4509775253-23.9733562096.172803555-104.5190614367.3077189121-209.0381964492.4521553967-313.5573069364,17.1866656385-.0331336438,34.3733803549-.0662918128,51.55867181-.0986161225,1.502325936.2943278007,3.0059769774.5878217421,4.5096770967.8812911583l.9544194073-.3185587704Z" style="fill: #f5f4f4;"/>
      <path d="m.0000046011,623.1094896481c6.9109463059.3897556378,13.821806342,1.1183524466,20.7328519541,1.1201182663,231.843075351.0592530595,463.6861599042.0492467481,695.5292444574.0492467481h22.0107853301c0,151.5851203547,0,301.6780250019-.004171628,451.772008761-1.4637015686,1.0978493184-2.9231333532,2.1944233227-4.3825651378,3.291095428-17.6642925049-.0848574444-35.3285850098-.1697148888-52.9928284368-.2544742322.0848558212-113.4095709829.1697116424-226.8192400669.2545674637-340.2288110498-.838546305-.9275458231-1.677043532-1.8550916461-2.5155898371-2.7826374691-15.5872143871,9.7177960534-31.3677469233,19.1407002249-46.7313129719,29.1996918757-134.2250263463,87.8809200638-268.4290718577,175.7942134879-402.4969505235,263.9143040135-23.1828164848,15.2375520851-45.6945897982,31.4951593229-68.5163396105,47.2815870167-1.9952037836.9619793063-3.9904198368,1.9239586125-5.9856481594,2.8859379188-25.0502457569-1.2172383472-50.9903611126,5.3593607466-74.5952850031-8.5076209849,3.3951591956-2.5323815839,6.655936757-5.2701868541,10.202716226-7.5668315145,110.6578250155-71.652154547,221.3636176181-143.2302427697,332.0180869269-214.8875966746,79.1456477423-51.2527192131,158.2401071552-102.5845079062,237.3045308465-153.9622079103,4.0542825536-2.6346029216,7.6105708805-6.0345905615,11.398752646-9.0782750359-.4667315557-1.3862665283-.9334140334-2.7726311578-1.4000965111-4.1589957872-26.5940793915,0-53.2117652896-.634714064-79.7692815886.3501227967-9.0802108842.3366829471-19.2558422021,2.7775362124-26.8136542579,7.5831162957-69.7572271662,44.3548390437-139.1412653997,89.2987751437-208.4571588629,134.3429705595-108.3096708297,70.383805531-216.4818251695,140.979117016-324.7122381346,211.4847641031-8.9530973916-14.9944575796-17.9314147284-29.9741018944-26.8310094573-45.0002461267-1.2771860871-2.156261998-2.1743683044-4.5375679005-3.2474084139-6.8146904436.0000015337-3.2145765764.0000015337-6.4291531528-.0000019171-9.6437297291,4.777625594-2.0509995264,9.9813841379-3.4497248934,14.2701520607-6.2489414471,92.3397678541-60.2667380339,184.6468283043-120.5842924334,276.8066670948-181.1255173222,49.9779192677-32.8314923955,99.6712598891-66.0958068081,149.4929884969-99.1648019469,1.1854294423-.8255206876,2.3709079626-1.650943274,3.5563374049-2.4763658605,1.4150652939-.5168946527,2.8300815099-1.0336912044,4.2451468039-1.5505858571-.0909414903-.4890339427-.1818339026-.9779697842-.2727263149-1.4670037269-1.7264159763.3175532342-3.4527828747.6352045695-5.1929406844.9608020932-.0137909114.0079461884-.2130965736.0850536466-.2130965736.0850536466-1.5553301505-.3456101464-3.110758457-.9939602622-4.6660395296-.99376406-144.9319022198.0205031282-289.8637921701.0907435099-434.7956790531.1575503534-1.0769341402-.2342654072-2.1538694306-.4686289156-3.2308054879-.7028943228-.0000007668-19.2874594583-.0000007668-38.5749189165.0000003834-57.8623783748Zm676.8839403338,59.4701571684c-1.1142172985-.4052556103-2.0698145773-.7528277785-3.025460934-1.1004980479-.004220706.7269290903-.008392334,1.4539562817-.0126130399,2.1809834731.9596216728-.3412936984,1.9191942677-.6825873968,3.038073974-1.0804854252Z" style="fill: #f5f4f4;"/>
      <path d="m908.5926539886,1075.4311588265c.1203391982-142.463288434.2408747082-284.9265768679.3602323469-427.3898653019.0057912012-6.856873913.0007852476-13.7137478261.0007852476-23.1767753441,246.7749607212,0,491.9720645007,0,737.1683830326-.0015696175,1.292124963,1.5576491357,2.5850351737,3.1166716868,3.8779453843,4.6756942378v48.2186486457c-1.1305602647,1.2040928009-2.2609242175,2.4081856017-3.3914844821,3.6122784026-1.0640105287-.3529677283-2.0818877595-.2503539863-3.0537298484.3079393272-146.8419925229-.0045126502-293.6839850458-.0090253004-440.5259775686-.0135379507h-10.1404914867c6.117667916,2.0194109749,7.9006707991,2.6080175257,9.6836736822,3.1965259755,2.3631045643,2.0496261111,4.5262654528,4.4033656069,7.1178770753,6.1052233476,123.7026100472,81.2356502058,247.3900059216,162.4947465725,371.2297398349,243.5210490484,20.4655161647,13.3902104253,41.6161608802,25.7343689086,62.4501544918,38.5618714713,2.2100794339,1.2214566941,4.4201588678,2.4428152871,6.6302383017,3.6642719812v6.4291531528c-3.4831621421,5.9523818466-6.8821064766,11.9561686652-10.4757922216,17.8410569606-3.0028850649,4.9172191258-6.2336882522,9.6954290045-9.363685276,14.5347558634-1.0608695382-.1232149713-2.3490682631.1032023486-3.1499226822-.4182049544-84.2512787066-54.8569533262-168.4395412916-109.8107324299-252.6908199982-164.6676857561-77.2060370364-50.2696481721-154.3875350846-100.5781443765-231.8200179042-150.4974735498-11.3272951123-7.3026452742-23.6265304696-16.8317929281-36.1019557622-17.8784334766-29.7696207774-2.4975556963-59.9133138909-.5425971388-89.9059449931-.385733493-.8176390871.1657908452-1.6353763301.3315816903-2.4530154171.4972744344.746966801.7354638853,1.493933602,1.4708296695,2.2409004031,2.2062935548,5.9471710259,4.2476791742,11.742102169,8.7293294524,17.8642852588,12.708113534,105.9959632486,68.8893334984,212.0410044736,137.7031291561,318.0568933806,206.5621494172,78.919545505,51.2594881884,157.8127852145,102.55968833,236.7178036385,153.8416416684-13.7700041544,17.4990765546-34.1314750091,19.7213605873-53.8409940252,21.7582335566-15.287887809,1.5801142858-30.8817277229.2025787546-46.3391308624.1400883591-.9476957246-.9729666286-1.8958822289-1.9460313582-2.8440687332-2.9191941889-40.707138601-26.8130885142-81.366573409-53.6988699373-122.1300535269-80.4261199962-130.7989909688-85.7599744589-261.6364590711-171.4614806671-392.4591056245-257.1855501264-1.8927412384.0387499313-3.7853843208.0774017614-5.6781255592.1161516927-.183060852,112.5436326455-.36621986,225.0871671899-.549280712,337.6307998354-.9309110566.8995870119-1.8618221133,1.7991740238-2.7927331699,2.6987610357-17.5007156095.0244271719-35.001529375.0488543437-52.4998892417.0743606276-.3960592697-1.3133774171-.7943761262-2.6278339463-1.1926929828-3.9421923743Z" style="fill: #f5f4f4;"/>
      <path d="m442.6072798432,396.5133314639c-11.1755950872.4151638205-22.3513374084,1.1933997819-33.5268343397,1.1902114964-135.286926522-.0388480323-270.5738653135-.1930138981-405.8607918355-.3172098804-1.0732103487-.837243768-2.1464283658-1.6744875361-3.2196483001-2.5117803547-.0000019171-96.4372972913-.0000019171-192.8745945826-.0000019171-289.3118918739,20.5500529791,12.3599527591,41.5206704749,24.0770000131,61.5814190965,37.1849245467,123.52755504,80.7144881555,246.8528781435,161.7379947503,370.2220278799,242.6944492488,3.0614350907,2.0089632086,5.8516652838,4.430686761,8.7683694221,6.6598869207.6785030239,1.4704372651,1.3569569699,2.9409726313,2.0354599938,4.4114098964Z" style="fill: #41479b;"/>
      <path d="m440.5698076523,686.959075757c-49.8217286077,33.0689951388-99.5150692292,66.3333095514-149.4929884969,99.1648019469-92.1598387905,60.5412248888-184.4668992406,120.8587792883-276.8066670948,181.1255173222-4.2887679228,2.7992165537-9.4925264667,4.1979419207-14.2701520607,6.2489414471.0000034508-96.4372972913.0000034508-192.8745945826.0000032591-289.3118918739,1.0769350987-.8371947175,2.1538700057-1.6744875361,3.2308056796-2.5116822536,144.9318876498-.0668068435,289.8637776001-.1370472253,434.7956798199-.1575503534,1.5552810726-.0001962022,3.1107093791.6481539136,4.652641242,1.0015140463-.7120232818,1.48525053-1.410697354,2.9627510737-2.1093223483,4.4403497185Z" style="fill: #41479b;"/>
      <path d="m1646.6085155179,681.369569849c1.1305602647-1.2040928009,2.2609242175-2.4081856017,3.3914844821-3.6122784026v298.9556216031c-2.2100794339-1.2214566941-4.4201588678-2.4428152871-6.6302383017-3.6641738801,1.1305602647-6.1517232651,3.2413058743-12.3029560248,3.244054241-18.4552678964.0414218121-90.1277293695-.1982750247-180.2556549411-.3710295017-270.3834824117.4365976782-.9062578861.5585073716-1.8530315232.3657290802-2.8404190122Z" style="fill: #fefefe;"/>
      <path d="m.000007285,394.8745527253c1.0732180171.8372928186,2.1464360343,1.6745365866,3.2196486835,2.5117803547-1.0732199342.2342654072-2.1464341172.4685308145-3.2196506006.7027962217-.0000019171-1.0715091753-.0000019171-2.1430674011.0000019171-3.2145765764Z" style="fill: #595fa7;"/>
      <path d="m3.2308089387,681.6747623457c-1.0769356739.8371947175-2.1538705809,1.6744875361-3.2308056796,2.5116822536.0000001917-1.0715582258.0000001917-2.1430183506.0000009586-3.2145765764,1.0769360573.2342654072,2.1538713477.4686289156,3.230804721.7028943228Z" style="fill: #595fa7;"/>
      <path d="m682.0511687596,2.6804897073c-.1444364846,104.5191104872-.2793518417,209.0382454997-.4521553967,313.5573069364-.0132510536,7.9913149387-.2944187805,15.9822374731-.4509775253,23.9732581085-.8404603461.9247499419-1.6810188481,1.8494998839-2.5215282722,2.7742988763-104.0752966416-67.9660550729-208.1232077724-135.9739012108-312.2356564422-203.8830085999C299.5959951524,95.5342522159,232.6945908947,52.129301519,165.9128387436,8.5411715583c-2.0827834326-1.3594358797-3.3679270534-3.9395926954-5.0250694661-5.9505179258.3731153157-.6780992719.4530510698-1.3892586116.2396600283-2.133355393,170.7238143563-.1304008763,341.4475919041-.2738246725,512.1714185298-.28213874,2.91739123-.0001226264,5.8348806159,1.6338736841,8.7523209238,2.5053302079Z" style="fill: #41479b;"/>
      <path d="m965.5546146898,340.1108935374c-.1897354568-112.5054222703-.3793727577-225.0108690658-.5691082145-337.5162668107.5112943583-.5750931255.6102355587-1.2140500617.2970199133-1.9168462834,26.2226572659-.2069197279,52.4454126879-.6017275719,78.6679717978-.5896366123,147.2309845639.0679350061,294.4620672838.2339220534,441.6930518477.3663830526-.2124094819.7978316544-.1026711267,1.5487219364.3293132217,2.2526217954-66.5925320131,43.8936167606-133.1412864711,87.8537215361-199.7905526249,131.6611810128-60.0843015608,39.4925074788-120.2590047541,78.8478696312-180.4310577367,118.2070577262-44.7527343528,29.2732676945-89.564951213,58.4557918791-134.3506659659,87.6787337136-1.9486901315-.0477261812-3.897282107-.0955014129-5.8459722386-.143227594Z" style="fill: #41479b;"/>
      <path d="m1202.5130967247,394.0821902067c34.951567995-23.3161769956,69.7780853061-46.822473907,104.8779669459-69.9135088969,110.9961256416-73.0208609799,222.094824254-145.8863298304,334.6413231705-219.7886781708,1.7833955069,7.7488090398,4.5329400576,14.1552517898,4.5407925338,20.5650299769.1093457314,89.9699337633-.1548900936,179.9403089815-.3282335063,269.9105860986-.9004827113.867606056-1.8009654225,1.7352121119-2.7015462897,2.6028181679-113.6207176643.1627987619-227.2414353286.3712635819-340.8621529929.4599960195-33.2220601062.0259477388-66.4443165243-.2886624626-99.6664747864-.4471447765-.1671595877-1.1296831227-.3344173313-2.2593662454-.5016750749-3.3890984187Z" style="fill: #41479b;"/>
      <path d="m975.0457063926,392.2599133759c33.3790114748-22.3902498405,66.5090012972-45.1628977369,100.1920017579-67.0866768859,59.904774323-38.9912599502,120.2262206658-77.3423612257,180.2256173274-116.1891182677,100.8697686121-65.308251243,201.6078119356-130.8198169989,302.499861949-196.0936838092,3.204399236-2.0731703732,8.747854828-4.6473675475,11.0722859469-3.3053200863,16.1453782129,9.3218109964,31.7269486327,19.6188204211,50.0408863114,31.2192254769-55.6550141894,36.2091129865-106.946014716,69.605863873-158.2641062857,102.9608972702-105.4986070356,68.57050495-211.0085020058,137.1236950574-316.5231084617,205.6694294817-12.834577924,8.3377589444-26.6549360822,15.4584266934-38.3991976822,25.1110345713-24.050073406,19.7665851907-50.7440755575,27.1279439683-81.5051696144,23.6839089382-15.3486463438-1.7184368252-31.0159069104-.5941492625-46.5390745383-.7555746091-.9333649554-1.7379589425-1.8666317549-3.476015986-2.7999967104-5.2141220802Z" style="fill: #ff4c56;"/>
      <path d="m48.1917543059,24.5976960831c64.4648422321,41.5604049183,128.9850689605,83.035314735,193.3826866344,124.6994615579,123.9204917235,80.1744906957,247.7740656261,160.452281841,371.6261181114,240.732280261,1.7435441901,1.1301245776,3.1072248427,2.8455693195,4.6475371325,4.2889797339-.2510829273,1.0131390257-.389139275,2.0402574569-.4148561346,3.0825325068-29.4216088466.1541168152-58.8820383726,1.2051228623-88.2422015927-.06199989-9.2995894388-.4013315666-19.1927770024-5.6625421708-27.3548861818-10.9500438676-95.8663425337-62.103141422-191.4169909841-124.6927171078-287.1297930686-187.0330179193-61.5944186255-40.1181471918-123.301446668-80.0638081389-185.0179927704-119.9941653156-5.3176969004-3.4405033908-11.0862747039-6.18495501-16.6458017994-9.2532383332,11.7161337847-15.17059809,23.4326601933-30.3406811492,35.1491896692-45.5107887337Z" style="fill: #ff4c56;"/>
      <path d="m907.8559935626,3.0926369193c-56.2593603909.0161131043-112.5187698599.0322262087-168.7800933699.0501541832-.001963119.0018148702-.9563825264.3203736406-.9469104769.3166948496.6205910118-1.1533990617,1.231759052-2.3030948071,1.8429270923-3.4527660273,55.6123654279-.0019129713,111.2247308558-.0038259426,166.8371453616-.0067199248.6112171183.9944507677,1.2224342365,1.9898089704,1.8337495107,2.9851916985l-.7868181179.1074452208Z" style="fill: #f3707d;"/>
      <path d="m975.0457063926,392.2599624264c.9333649554,1.7380570436,1.8666317549,3.4761140871,2.7999967104,5.2140730296-2.7317783232-.0000981011-5.4635566463-.0000981011-11.7043121272-.0000981011,4.9497102333-2.8983477069,6.927061903-4.056185843,8.9043154168-5.2139749285Z" style="fill: #fe646d;"/>
      <path d="m965.5546146898,340.1108935374c1.9486901315.0477261812,3.897282107.0955014129,5.8459722386.143227594-1.9486901315-.0476771306-3.897282107-.0954523623-5.8459722386-.143227594Z" style="fill: #5b5fa8;"/>
      <path d="m1202.5130967247,394.0821902067c.1672577436,1.1297321733.3345154872,2.259415296.5016750749,3.3891474692-1.3747722753-.1397940558-2.7494463947-.2795881117-4.12421867-.4193821675,1.2075145317-.9899381174,2.4150290634-1.9798271843,3.6225435951-2.9697653018Z" style="fill: #595fa7;"/>
      <path d="m161.1274293059.4573227647c.2133910414.7440722561.1334552874,1.4552315959-.2396600283,2.1333308677-2.0591033089.0028694569-4.1183415823.0059105908-6.1772117709.0088290983,2.1392108359-.7141268978,4.2780413176-1.4281311693,6.4168717992-2.142159966Z" style="fill: #7478b6;"/>
      <path d="m739.9718677301.0066953995c-.6111189623,1.1496957454-1.2222870026,2.2993914909-1.8428780144,3.4527905526-1.5131721688-.2897906252-3.0168232102-.5832845666-4.5191491462-.8776123673,2.1215918424-.8589241093,4.2418585795-1.7170388847,6.3620271605-2.5751781852Z" style="fill: #faa2a7;"/>
      <path d="m1643.5433995789,397.4584373824c.9005808672-.867606056,1.8010635784-1.7352121119,2.7015462897-2.6028181679-.9004827113.867606056-1.8009654225,1.7352121119-2.7015462897,2.6028181679Z" style="fill: #595fa7;"/>
      <path d="m908.6428116804,2.9851916985c-.6113152742-.995382728-1.2225323925-1.9907409308-1.8337495107-2.9851916985.6112171183.9957015566,1.2225323925,1.9904466275,1.8337495107,2.9851916985Z" style="fill: #faa2a7;"/>
      <path d="m1485.9728632559,2.7071241537c-.4319843484-.7038753337-.5417227037-1.4547656157-.3293132217-2.2525727448.9117706458.2146451889,1.8235412916.4291922767,2.7353119375.6437393644-.8020322906.5362696184-1.6039664252,1.0725392367-2.4059987157,1.6088333804Z" style="fill: #7478b6;"/>
      <path d="m965.2825263886.6777804433c.3132156455.7027962217.214274445,1.3417531579-.2970199133,1.9168462834-.7778859262-.5109595367-1.5557718523-1.0218945481-2.3337559345-1.5328295595.8769252826-.1279973995,1.7538505651-.2560193243,2.6307758477-.3840167239Z" style="fill: #7478b6;"/>
      <path d="m160.8876833911,1076.4716190062c22.8217620818-15.7864276938,45.3335353952-32.0440349316,68.51635188-47.2815870167,134.0678786658-88.1200905256,268.2719241772-176.0333839497,402.4969505235-263.9143040135,15.3635660486-10.0589916508,31.1440985848-19.4818958222,46.7313129719-29.1996918757.838546305.927447722,1.67709261,1.854993545,2.5155898371,2.7826374691-.0848558212,113.4095709829-.1697116424,226.8192400669-.2545674637,340.2288110498-166.3079866199-.0279588112-332.6159487009-.0510125677-498.9238985123-.100455518-6.945883307-.0020601229-13.891692997-.250059683-20.8375885734-.3833790668.215268274-.7444891857.1338969891-1.4552315959-.2441506632-2.1320310283Z" style="fill: #41479b;"/>
      <path d="m965.077871227,1076.6001314365c.183159008-112.5435345444.3663180159-225.0870690888.549378868-337.6306036332,1.8926430824-.0387499313,3.7853843208-.0774017614,5.6781255592-.1161516927,130.8226465534,85.7239713582,261.6601146557,171.4254775664,392.4591056245,257.1854520253,40.7634801179,26.7272500588,81.4229149259,53.613031482,122.1302498388,80.425923794-.3464905135.6846475197-.4210890376,1.3978424572-.2236974165,2.1392905091-173.4685615347-.0736739199-346.9371230694-.1473478399-520.4057827601-.2209236587.3156695443-.6339292553.2532423583-1.2282256694-.1873797139-1.7829873436Z" style="fill: #41479b;"/>
      <path d="m30.0784136536,1034.9570027726c108.2304190999-70.5056470871,216.4025734397-141.100958572,324.7122442694-211.4847641031,69.3158934633-45.0441954158,138.6999316968-89.9881315158,208.4571588629-134.3429705595,7.5578120559-4.8055800833,17.7334433737-7.2464333486,26.8136542579-7.5831162957,26.557516299-.9848368607,53.1752021971-.3501227967,79.7692815886-.3501227967.4666824777,1.3863646294.9333649554,2.7727292589,1.4000965111,4.1589957872-3.7881817655,3.0436844744-7.3444700924,6.4436721143-11.398752646,9.0782750359-79.0644236913,51.3777000041-158.1588831042,102.7094886972-237.3045308465,153.9622079103-110.6544693088,71.6573539049-221.3602619115,143.2354421276-332.0180869269,214.8875966746-3.546779469,2.2966446603-6.8075570304,5.0344499305-10.202716226,7.5668315145-20.8714462424-6.1942010379-37.5431642807-18.2573979943-50.2283488445-35.8929331676Z" style="fill: #ff4c56;"/>
      <path d="m1016.4918611625,681.6702496954c29.9926311022-.1567655447,60.1363242158-2.1117241023,89.9059449931.3858315941,12.4754252926,1.0466405485,24.7746606498,10.5757882024,36.1019557622,17.8784334766,77.4324828196,49.9193291732,154.6139808678,100.2278253777,231.8200179042,150.4974735498,84.2512787066,54.8569533261,168.4395412916,109.8107324299,252.6908199982,164.6676857561.8008544191.521407303,2.089053144.2949899831,3.1499226822.4182049544-10.0614759447,17.6076744632-21.9727008204,33.3993015149-41.241990388,41.9679413789-78.904822112-51.2819533385-157.7980618216-102.58215348-236.7176073266-153.8416416684-106.015888907-68.859020261-212.060930132-137.6728159188-318.0568933806-206.5621494172-6.1221830898-3.9787840816-11.9171142329-8.4604343597-17.8640889469-12.7085059383.141540884-.8957610693.2121150141-1.7967214965.2119187022-2.7032736859Z" style="fill: #ff4c56;"/>
      <path d="m740.1007464962,1076.1164930539c55.5274605287-.0003924044,111.0548719794-.0008829098,166.5844428611.0002943033.1792327699.9754191558.2139799772,1.9544680521.106106585,2.938520104-55.5976911129.0009810109-111.1954803818.0019620218-166.7933187287.0036297404-.1100819011-.9854254672-.0758254735-1.9664363853.1027692826-2.9424441477Z" style="fill: #f3707d;"/>
      <path d="m740.1007464962,1076.1164930539c-.1785947562.9760077624-.2128511837,1.9570186805-.1027692826,2.9424441477-2.0388954521.0944713514-4.0778890602.1896294105-6.1143796915.2839045597,1.4619838394-1.0975550152,2.921415624-2.1941290194,4.3851171926-3.2919783378.6257441993-.3153950102,1.2350472765-.2931260623,1.8320317816.0656296304Z" style="fill: #faa2a7;"/>
      <path d="m160.8876956606,1076.4716190062c.3780353828.6767994324.4594066677,1.3875418425.2441383937,2.1320310283-2.0767223025.2513349972-4.1535059524.5027680955-6.230031943.7540049916,1.9954737125-.9620774074,3.9906897657-1.9240567136,5.9858935493-2.8860360199Z" style="fill: #7478b6;"/>
      <path d="m1485.671033701,1078.6041405399c-.1973916211-.741546153-.122793097-1.4547410904.2236974165-2.1393886102.9479901924.9733590329,1.8961766967,1.9464237626,2.8438724213,2.9193903911-1.0228831844-.2602621966-2.0451774331-.5201319888-3.0675698378-.780001781Z" style="fill: #7478b6;"/>
      <path d="m906.7912959422,1079.0553074612c.1078733922-.9840520519.0731261849-1.9631009482-.106106585-2.938520104.5887394051-.3637588484,1.227636502-.5906666738,1.9110964016-.6839608121.3946850863,1.3126907095.7930019429,2.6271472386,1.1890612126,3.9405246558-1.0199385058.0846612422-2.0172029866-.0209936337-2.9940510291-.3180437396Z" style="fill: #faa2a7;"/>
      <path d="m965.077871227,1076.6001314365c.4406220722.5547616742.5030492582,1.1490580884.1873797139,1.7829873436-.8673059992.7153531615-1.8608405537,1.0208399614-2.9802110398.9160679953.9311073685-.8997832141,1.8620184252-1.7993702259,2.7928313258-2.6990553389Z" style="fill: #7478b6;"/>
      <path d="m444.1255070436,394.5771592655c1.4151143719.5363186689,2.8301796659,1.0726373378,4.2452940378,1.6090050573-.1095911213.4860418594-.2191822427.9720837187-.328773364,1.4581746286-1.7448692955-.3521829196-3.4896895129-.7043167886-5.2474663162-1.064298745.3177308193-.7517977171.76566551-1.4167759679,1.3309456424-2.0028809409Z" style="fill: #595fa7;"/>
      <path d="m678.6264584874,342.985304578c.840558502-.9247499419,1.6811170041-1.8494998839,2.5216264282-2.7742007752-.8405094241.9247989925-1.6810188481,1.8495489344-2.5216264282,2.7742007752Z" style="fill: #5a5fa8;"/>
      <path d="m442.6072798432,396.5133805145c-.6785030239-1.4704863157-1.3569569699-2.9410216819-2.0354599938-4.411458947,1.1845460387.8251282832,2.3690920775,1.6502565664,3.5536381162,2.4752867485-.5652310544.5860559225-1.0131657451,1.2510341733-1.3308965644,2.0028318904.0129075078.0078480873-.187281558-.0666596919-.187281558-.0666596919Z" style="fill: #595fa7;"/>
      <path d="m617.4332400496,397.4009501426c.0257168596-1.0422750499.1637732073-2.0693934812.4148561346-3.0825325068.7408811319.6821949924,1.4811242502,1.3655181474,2.2213182905,2.0489394035-.8786920897.344580085-1.7574332574.6891111194-2.6361744251,1.0335931033Z" style="fill: #fe636c;"/>
      <path d="m442.9194157732,682.4178781161c1.7263668983-.3175532342,3.4527337967-.6352045695,5.179149773-.9527578036.0908924123.4890339427.1817848246.9779697842.2727263149,1.4670037269-1.4150652939.5168946527-2.8300815099,1.0336912044-4.2451468039,1.550487756-.5646421186-.5935116054-.9668852133-1.2816907645-1.2067292841-2.0647336793Z" style="fill: #595fa7;"/>
      <path d="m676.8839449348,682.5796468165c-1.1188797063.3978980284-2.0784523011.7391917268-3.038073974,1.0803873241.004220706-.7269290903.008392334-1.4539562817.0126130399-2.180885372.9556463567.3476702694,1.9112436355.6952424376,3.025460934,1.1004980479Z" style="fill: #fe656e;"/>
      <path d="m440.5698076523,686.959075757c.6986249943-1.4775986448,1.3972990665-2.9550991885,2.1093223483-4.4403497185.0133982876-.0077499863.2127039498-.0848574444.2264948612-.0928036328.2536349821.7749986253.6558780768,1.4631777843,1.2205201954,2.0565912887-1.1854294423.8256187887-2.3709079626,1.6510413751-3.5563374049,2.4765620627Z" style="fill: #595fa7;"/>
      <path d="m681.1478886036,738.8586735695c-.838497227-.9276439241-1.677043532-1.8551897472-2.5155898371-2.7826374691.838546305.927545823,1.677043532,1.8550916461,2.5155898371,2.7826374691Z" style="fill: #5a5fa8;"/>
      <path d="m1646.2427864376,684.2099888613c.172754477,90.1278274706.4124513138,180.2557530422.3710295017,270.3834824117-.0027483667,6.1523118717-2.1134939763,12.3035446313-3.244054241,18.4551697954-20.8339936116-12.8275025627-41.9846383271-25.171661046-62.4501544918-38.5618714713-123.8397339133-81.0263024759-247.5271297877-162.2853988426-371.2297398349-243.5210490484-2.5916116225-1.7018577407-4.754772511-4.0555972364-7.1176807634-6.105615752.1523380388-1.0656721603.3044797657-2.1308538152.4566214926-3.1961335711,146.8419925229.0045126502,293.6839850457.0090253005,440.5259775686.0134398496.8960656934.844159895,1.7920332308,1.68831979,2.6880007682,2.5325777861Z" style="fill: #41479b;"/>
      <path d="m1203.0288081008,681.6639712255c-.1521417269,1.065279756-.3042834538,2.1304614108-.4566214926,3.1961335711-1.783199195-.5881160454-3.5662020782-1.1767225962-9.6838699941-3.1961335711h10.1404914867Z" style="fill: #595fa7;"/>
      <path d="m971.3053756541,738.8533761105c-1.8927412384.0387499313-3.7854824768.0774017614-5.6781255592.1160535916,1.8927412384-.0387499313,3.7853843208-.0774017614,5.6781255592-.1160535916Z" style="fill: #5b5fa8;"/>
      <path d="m1016.4918611625,681.6703477965c.0001963119.9064540883-.0703778182,1.8074145155-.2119187022,2.7031755848-.7471631129-.7350714809-1.494129914-1.4704372651-2.241096715-2.2059011504.8176390871-.1656927441,1.6353763301-.3314835892,2.4530154171-.4972744344Z" style="fill: #fe636c;"/>
      <path d="m1646.2427864376,684.2099888613c-.8959675374-.8442579961-1.7919350748-1.6884178911-2.6880007682-2.5325777861.971842089-.5581952124,1.9897193198-.6608089544,3.0537298484-.3078412261.1927782914.987387489.0708685979,1.9341611261-.3657290802,2.8404190122Z" style="fill: #595fa7;"/>
    </g>
  </g>
</svg>