<?xml version="1.0" encoding="UTF-8"?>
<svg id="Calque_2" data-name="Calque 2" xmlns="http://www.w3.org/2000/svg" viewBox="0 0 1920 1257.6220911791">
  <g id="Calque_1-2" data-name="Calque 1">
    <g>
      <path d="m639.2327568793,1257.4232992227c.628197905-7.402927573,1.804462643-14.8057408979,1.8061189517-22.2087827189.0884697295-404.3099577046.0884126154-808.6198011612.0003426846-1212.9296731798-.0015991946-7.4033560029-1.1720382951-14.8064549479-1.7973804955-22.2095253309,214.9357514223-.0249060637,429.871788415-.0499834994,644.8075398373-.0753179932-1.0928210486,25.4194085409-3.1240266394,50.8386171477-3.1373913371,76.2589111106-.2025265725,386.0339052836-.1452982517,772.0680105012-.1065748969,1158.1020585948.0007995973,7.4690771642.5116280419,14.9380400804.7845191765,22.4071172446-3.7189270284.2970447967-7.4378540568.8545750304-11.1567810852.8540037904-210.4000928691-.0369021036-420.8002428523-.1201888946-631.2003928355-.1987915178Z" style="fill: #fff;"/>
      <path d="m1281.5899307999,1256.76808695c-.2728911347-7.4690771642-.7837195793-14.9380400804-.7845191765-22.4071172446-.0387233548-386.0340480936-.0959516756-772.0681533112.1065748969-1158.1020585948.0133646977-25.4202939629,2.0445702885-50.8395025697,3.1373913371-76.2589111106,161.5293914451.1432384284,323.0586686619.1551773443,484.5874889661.4889243105,71.9662697508.1486937703,125.3252250311,39.4677708933,145.060314375,107.8253189745,4.532460164,15.6992459339,6.0185688546,32.7676970084,6.0363884515,49.209126504.3401715358,315.6407149233.2695785173,631.2819439625.2385084509,946.9230016298-.0075390602,77.8009449113-47.0143791849,136.1833859763-125.8729491796,152.3057208115-5.9552864399,1.2175409223-12.3589185071.2832207888-18.5540841361.2800218448-164.6517046617-.0824870551-329.3034093234-.173999702-493.9551139851-.264027125Z" style="fill: #ff4b55;"/>
      <path d="m638.4100692001,1256.8927013694c.2728911347-7.4690771642.7837195793-14.9380400804.7845191765-22.4071172446.0387233548-386.0340480936.0959516756-772.0681533112-.1065748969-1158.1020585948-.0133646977-25.4202939628-2.0445702885-50.8395025697-3.1373913371-76.2589111106-161.5293914451.1432384284-323.0586686619.1551773443-484.5874889661.4889243105C79.3968634258.7622325002,26.0379081455,40.0813096232,6.3028188017,108.4388577043,1.7703586377,124.1381036382.2842499471,141.2065547128.2664303502,157.6479842083-.0737411856,473.2886991316-.0031481671,788.9299281708.0279218993,1104.5709858381c.0075390602,77.8009449113,47.0143791849,136.1833859763,125.8729491796,152.3057208115,5.9552864399,1.2175409223,12.3589185071.2832207888,18.5540841361.2800218448,164.6517046617-.0824870551,329.3034093234-.173999702,493.9551139851-.264027125Z" style="fill: #41479b;"/>
    </g>
  </g>
</svg>