<?xml version="1.0" encoding="utf-8"?>
<!-- Generator: Adobe Illustrator 27.7.0, SVG Export Plug-In . SVG Version: 6.00 Build 0)  -->
<svg version="1.1" id="Layer_1" xmlns="http://www.w3.org/2000/svg" xmlns:xlink="http://www.w3.org/1999/xlink" x="0px" y="0px"
	 viewBox="0 0 24 24" style="enable-background:new 0 0 24 24;" xml:space="preserve">
<style type="text/css">
	.st0{fill:#FFFFFF;}
</style>
<path class="st0" d="M20.4,10.1c-1.2-1.4-3.4-3.6-6.8-5.8c-2.8-1.8-5.3-2.7-6.9-3.2C5.8,0.9,4.8,1,4.1,1.6C3.3,2.2,2.9,3,2.9,4V20
	c0,0.9,0.4,1.8,1.2,2.4C4.6,22.8,5.2,23,5.8,23c0.3,0,0.6,0,0.9-0.1c1.6-0.5,4.1-1.4,6.9-3.2c3.4-2.2,5.6-4.3,6.8-5.8
	C21.4,12.8,21.4,11.2,20.4,10.1L20.4,10.1z"/>
</svg>
