<?xml version="1.0" encoding="UTF-8"?>
<svg id="Calque_2" data-name="Calque 2" xmlns="http://www.w3.org/2000/svg" viewBox="0 0 18.256500721 22.0019389062">
  <g id="Layer_1" data-name="Layer 1">
    <path d="m17.5519995689,9.0979376702c-1.2310009003-1.4449996948-3.4149990082-3.6219997406-6.8319997787-5.7789998055C7.9099993706,1.5449376969,5.4089999199.6029377847,3.8049998283.124937859,2.904999733-.1430621476,1.9509997368.0239379077,1.1929998398.5889378457.4349999428,1.1549378304,0,2.0209380059,0,2.9659379392v16.0699994564c0,.9449996948.4359998703,1.811000824,1.1929998398,2.3770008087.5209999084.3880004883,1.134999752.5890007019,1.7610001564.5890007019.2839999199,0,.5700001717-.0419998169.8520002365-.125,1.6040000916-.4780006409,4.1050004959-1.4200000763,6.9149999619-3.1940002441,3.4169998169-2.1579990387,5.6009998322-4.3339996338,6.8320007324-5.7800006866.9379997253-1.1020002365.9379997253-2.7030000687,0-3.8050003052h-.001001358Z" style="fill: #1d1d1b;"/>
  </g>
</svg>