<svg xmlns="http://www.w3.org/2000/svg" width="256" height="271" preserveAspectRatio="xMidYMid" version="1.1" viewBox="0 0 256 271"><title>Angular</title><defs><linearGradient id="linearGradient-1" x1="25.071%" x2="96.132%" y1="90.929%" y2="55.184%"><stop offset="0%" stop-color="#E40035"/><stop offset="24%" stop-color="#F60A48"/><stop offset="35.2%" stop-color="#F20755"/><stop offset="49.4%" stop-color="#DC087D"/><stop offset="74.5%" stop-color="#9717E7"/><stop offset="100%" stop-color="#6C00F5"/></linearGradient><linearGradient id="linearGradient-2" x1="21.863%" x2="68.367%" y1="12.058%" y2="68.21%"><stop offset="0%" stop-color="#FF31D9"/><stop offset="100%" stop-color="#FF5BE1" stop-opacity="0"/></linearGradient></defs><g><path fill="url(#linearGradient-1)" d="M256,45.1787083 L246.756071,190.336865 L158.373321,0 L256,45.1787083 Z M194.783035,232.875768 L128.000576,270.981182 L61.2169653,232.875768 L74.7998577,199.957744 L181.200142,199.957744 L194.783035,232.875768 Z M128.000576,72.2488146 L162.994709,157.325468 L93.005291,157.325468 L128.000576,72.2488146 Z M9.14940313,190.336865 L0,45.1787083 L97.626679,0 L9.14940313,190.336865 Z"/><path fill="url(#linearGradient-2)" d="M256,45.1787083 L246.756071,190.336865 L158.373321,0 L256,45.1787083 Z M194.783035,232.875768 L128.000576,270.981182 L61.2169653,232.875768 L74.7998577,199.957744 L181.200142,199.957744 L194.783035,232.875768 Z M128.000576,72.2488146 L162.994709,157.325468 L93.005291,157.325468 L128.000576,72.2488146 Z M9.14940313,190.336865 L0,45.1787083 L97.626679,0 L9.14940313,190.336865 Z"/></g></svg>