<?xml version="1.0" encoding="UTF-8"?>
<svg id="Calque_2" data-name="Calque 2" xmlns="http://www.w3.org/2000/svg" viewBox="0 0 147.34 90">
  <g id="Calque_1-2" data-name="Calque 1">
    <path d="m117.83,56.78c-.7-.16-1.26-.34-1.8-.56-.36-.18-.68-.36-.95-.61-.18-.16-.27-.39-.25-.63.27-2.86-.02-5.4.23-8.21,1.15-11.52,8.39-7.88,14.9-9.74,3.71-1.06,7.45-3.13,8.82-7.2.23-.68.02-1.4-.45-1.91-4.19-4.78-8.92-9.07-14.09-12.78C106.8,2.98,85.39-2.13,64.34.81c-.53.06-.93.52-.93,1.05,0,.2.06.4.17.57,2.54,3.95,5.93,7.29,9.92,9.77.72.45.43,1.42-.41,1.22-2.41-.53-4.68-1.52-6.71-2.93-.23-.15-.52-.18-.77-.07l-3.8,1.53c-.39.16-.64.54-.64.96,0,.31.14.6.37.8,10.31,8.94,25.31,10.21,36.97,3.13.72-.45,1.87.45,1.64,1.26-.38,1.28-.81,3.06-1.26,5.47-2.93,14.69-11.3,13.57-21.67,9.86-20.7-7.52-32.47-1.1-42.91-13.79-.74-.9-2.03-1.19-2.88-.45-2.19,1.86-3.45,4.6-3.45,7.47,0,3.31,1.67,6.4,4.44,8.21.34.23.77.14,1.01-.16.65-.83,1.17-1.35,1.85-1.71.7-.36,1.06.68.45,1.19-2.23,1.96-2.86,4.3-4.3,8.93-2.3,7.22-1.33,14.63-11.97,16.56-5.63.29-5.54,4.12-7.58,9.81-2.39,6.89-5.49,9.9-11.25,15.93-.81.81-.88,2.14,0,2.88,2.3,1.96,4.68,2.07,7.09,1.08,5.99-2.52,10.6-10.26,14.94-15.28,4.84-5.58,16.45-3.2,25.23-8.66,4.73-2.9,7.58-6.62,6.68-12.15-.16-.9.88-1.44,1.24-.61.7,1.58,1.17,3.24,1.35,4.95.07.47.45.81.92.79,9.5-.54,21.76,9.92,33.24,12.76.7.18,1.19-.63.81-1.24-1.41-2.13-2.42-4.49-2.99-6.98-.23-.88,1.08-1.13,1.53-.32,3.46,6.27,9.87,10.37,17.01,10.89,2.79.23,5.85-.11,9.05-1.08,3.83-1.15,7.36-2.63,11.57-1.82,3.17.49,6.01,2.23,7.88,4.84,2.54,3.74,7.94,4.73,10.82.81.38-.54.45-1.24.18-1.85-6.35-14.85-22.44-15.87-29.37-17.67h.02Z" style="fill: #3f2ea0; fill-rule: evenodd;"/>
  </g>
</svg>