<svg xmlns="http://www.w3.org/2000/svg" id="Calque_2" data-name="Calque 2" viewBox="0 0 1236.85 906.5"><g id="Layer_2" data-name="Layer 2"><g><rect width="128.06" height="128.06" x="537.07" style="fill:#009ddb"/><rect width="128.06" height="128.06" x="537.07" y="160.99" style="fill:#009ddb"/><rect width="128.06" height="128.06" x="537.07" y="321.99" style="fill:#009ddb"/><rect width="128.06" height="128.06" x="381.57" y="160.99" style="fill:#009ddb"/><rect width="128.06" height="128.06" x="381.57" y="321.99" style="fill:#009ddb"/><rect width="128.06" height="128.06" x="226.07" y="160.99" style="fill:#009ddb"/><rect width="128.06" height="128.06" x="226.07" y="321.99" style="fill:#009ddb"/><rect width="128.06" height="128.06" x="72.39" y="321.99" style="fill:#009ddb"/><rect width="128.06" height="128.06" x="692.58" y="321.99" style="fill:#009ddb"/><path d="m418.73,906.5C-52.93,906.5,1.96,491.21,1.96,491.21h787.43c132.79,0,176.7-42.08,176.7-42.08,0,0-75.01-96.96,12.81-214.05,98.79,56.71,95.13,140.87,95.13,140.87,0,0,100.62-32.93,162.82,23.78-34.76,113.43-188.43,106.11-188.43,106.11,0,0-142.7,400.65-629.69,400.65Z" style="fill:#009ddb"/></g></g></svg>