<?xml version="1.0" encoding="UTF-8"?>
<svg id="Calque_2" data-name="Calque 2" xmlns="http://www.w3.org/2000/svg" viewBox="0 0 202.6 202.6">
  <g id="layer">
    <g id="icon">
      <path id="Shape" d="m101.3,55.3c-25.5,0-46.2,20.7-46.2,46.2s20.7,46.2,46.2,46.2,46.2-20.7,46.2-46.2c-.1-25.6-20.8-46.2-46.2-46.2Z" style="fill: #3880ff;"/>
      <circle id="Oval" cx="167.5" cy="38.3" r="21.1" style="fill: #3880ff;"/>
      <path id="Shape-2" data-name="Shape" d="m193.4,59.4l-.8-1.9-1.4,1.7c-3.4,3.9-7.9,6.9-12.7,8.7l-1.4.6.6,1.4c4.3,10.1,6.3,20.8,6.3,31.7,0,45.6-37.1,82.8-82.8,82.8S18.5,147.2,18.5,101.6,55.6,18.8,101.3,18.8c12.4,0,24.2,2.8,35.4,8l1.2.6.6-1.4c2.1-4.8,5.2-9,9.4-12.3l1.7-1.4-1.9-1C133.2,3.9,117.7,0,101.3,0,45.5,0,0,45.5,0,101.3s45.5,101.3,101.3,101.3,101.3-45.5,101.3-101.3c-.1-14.5-3.2-28.5-9.2-41.9Z" style="fill: #3880ff;"/>
    </g>
  </g>
</svg>