<?xml version="1.0" encoding="UTF-8"?>
<svg id="Calque_2" data-name="Calque 2" xmlns="http://www.w3.org/2000/svg" xmlns:xlink="http://www.w3.org/1999/xlink" viewBox="0 0 273.5328580931 292.6505116507">
  <defs>
    <mask id="mask" x="0" y="0" width="273.5328580931" height="292.6505116507" maskUnits="userSpaceOnUse">
      <g id="mask0_1_36" data-name="mask0 1 36">
        <path d="m136.7658783615,0h0L0,48.5799715762l20.8601281692,180.126408288,115.9057501923,63.9441317865h0l115.9068238929-63.9441317865,20.8601558388-180.126408288L136.7658783615,0Z" style="fill: none;"/>
      </g>
    </mask>
  </defs>
  <g id="Calque_1-2" data-name="Calque 1">
    <g>
      <path d="m136.7658783615,0h0L0,48.5799715762l20.8601281692,180.126408288,115.9057501923,63.9441317865h0l115.9068238929-63.9441317865,20.8601558388-180.126408288L136.7658783615,0Z"/>
      <g style="fill: none; mask: url(#mask);">
        <path d="m136.7667734706,0v32.4842361253-.1463847634,148.2278919594h0v112.0847683295h0l115.9059287838-63.9441317865,20.8601558388-180.126408288L136.7667734706,0Z"/>
      </g>
      <path d="m176.8951078124,138.7813452757l-13.1204057485-2.9141395287,10.2053625039,14.5734173981v45.1786689257l34.9886437718-29.1477299053v-49.5503300767l-16.0363441022,5.8291827733-16.0372564249,16.0309304136Z" style="fill: #fff;"/>
      <path d="m95.2531287109,138.7813452757l13.1204057485-2.9141395287-10.2053625039,14.5734173981v45.1786689257l-34.9890095616-29.1477299053v-49.5503300767l16.036804567,5.8291827733,16.0371617499,16.0309304136Z" style="fill: #fff;"/>
      <path d="m102.398139059,153.1760765218l11.6294896717-17.523662529,7.2686558979,4.3806897033h29.0737284827l7.267752182-4.3806897033,11.6294982785,17.523662529v65.7139173787l-8.7216675475,13.1429728257-10.175582913,10.2225072857h-29.0737284827l-10.1755743062-10.2225072857-8.7225712634-13.1429728257v-65.7139173787Z" style="fill: #fff;"/>
      <path d="m173.9791522451,223.3094917469l18.9522996696-18.945982265v-18.945982265l-18.9522996696,16.0309390204v21.8610255096Z" style="fill: #fff;"/>
      <path d="m98.1681719555,223.3094917469l-18.9521189264-18.945982265v-18.945982265l18.9521189264,16.0309390204v21.8610255096Z" style="fill: #fff;"/>
      <path d="m117.1213667341,51.3391539507l-11.6628841262,27.690113608,18.9522996696,55.380416566h8.7469371657V51.3391539507h-16.036352709Zm21.8673429142,0v83.0705301739h10.2062662198l17.4947694404-55.380416566-11.6637878421-27.690113608h-16.0372478181Z" style="fill: #fff;"/>
      <path d="m124.4107822775,134.4096841246l-62.6894126206-23.318547132-8.7473847202-36.4339781396,53.9420192936,4.3721087056,18.9522996696,55.380416566h-1.4575216223Z" style="fill: #fff;"/>
      <path d="m149.1949758681,134.4096841246l62.6896708252-23.318547132,8.7469371657-36.4339781396-55.3993515659,4.3721087056-17.4947866541,55.380416566h1.4575302291Z" style="fill: #fff;"/>
      <path d="m169.6047885532,74.6571588531l30.6160875117-2.9147764333-20.4107250078-20.4032284692h-20.4107250078l10.2053625039,23.3180049024Z" style="fill: #fff;"/>
      <path d="m102.5425442542,74.6571588531l-30.6158120935-2.9147764333,20.4104495896-20.4032284692h20.410716401l-10.2053538971,23.3180049024Z" style="fill: #fff;"/>
    </g>
  </g>
</svg>